<?xml version="1.0" encoding="utf-8"?>
<!-- Generator: Adobe Illustrator 16.0.0, SVG Export Plug-In . SVG Version: 6.00 Build 0)  -->
<!DOCTYPE svg PUBLIC "-//W3C//DTD SVG 1.1//EN" "http://www.w3.org/Graphics/SVG/1.1/DTD/svg11.dtd">
<svg version="1.1" id="Layer_1" xmlns="http://www.w3.org/2000/svg" xmlns:xlink="http://www.w3.org/1999/xlink" x="0px" y="0px"
	 width="407px" height="257px" viewBox="80.5 84 407 257" enable-background="new 80.5 84 407 257" xml:space="preserve">
<path opacity="0.08" fill="none" stroke="#000014" enable-background="new    " d="M88,124h392"/>
<path opacity="0.08" fill="none" stroke="#000014" enable-background="new    " d="M88,170h392"/>
<path opacity="0.08" fill="none" stroke="#000014" enable-background="new    " d="M88,215h392"/>
<path opacity="0.08" fill="none" stroke="#000014" enable-background="new    " d="M88,261h392"/>
<path opacity="0.08" fill="none" stroke="#000014" enable-background="new    " d="M88,307h392"/>
<circle fill="#03A9F4" cx="96" cy="98" r="8"/>
<path fill="#000014" d="M115.836,93.2c1.4,0,2.469,0.256,3.206,0.77c0.747,0.514,1.12,1.298,1.12,2.353
	c0,1.316-0.649,2.207-1.946,2.674c0.177,0.215,0.378,0.476,0.602,0.784c0.224,0.308,0.453,0.644,0.686,1.008
	c0.233,0.355,0.457,0.723,0.672,1.106c0.215,0.373,0.406,0.742,0.574,1.106h-1.974c-0.177-0.336-0.369-0.672-0.574-1.008
	c-0.205-0.345-0.415-0.677-0.63-0.994c-0.205-0.327-0.411-0.63-0.616-0.91c-0.205-0.289-0.397-0.546-0.574-0.77
	c-0.131,0.009-0.243,0.014-0.336,0.014c-0.093,0-0.182,0-0.266,0h-0.854V103h-1.764v-9.562c0.429-0.093,0.887-0.154,1.372-0.182
	C115.019,93.219,115.453,93.2,115.836,93.2z M115.962,94.726c-0.373,0-0.719,0.014-1.036,0.042v3.136h0.77
	c0.429,0,0.807-0.023,1.134-0.07s0.597-0.131,0.812-0.252c0.224-0.121,0.392-0.285,0.504-0.49c0.112-0.205,0.168-0.466,0.168-0.784
	c0-0.299-0.056-0.551-0.168-0.756c-0.112-0.205-0.275-0.369-0.49-0.49c-0.205-0.122-0.453-0.206-0.742-0.252
	C116.625,94.754,116.307,94.726,115.962,94.726z M121.627,99.374c0-0.644,0.093-1.209,0.28-1.694
	c0.196-0.485,0.453-0.887,0.77-1.204c0.317-0.327,0.681-0.569,1.092-0.728c0.411-0.168,0.831-0.252,1.26-0.252
	c1.008,0,1.792,0.313,2.352,0.938c0.569,0.625,0.854,1.559,0.854,2.8c0,0.093-0.005,0.201-0.014,0.322
	c0,0.112-0.005,0.214-0.014,0.308h-4.83c0.047,0.588,0.252,1.045,0.616,1.372c0.373,0.317,0.91,0.476,1.61,0.476
	c0.411,0,0.784-0.037,1.12-0.112c0.345-0.075,0.616-0.154,0.812-0.238l0.224,1.386c-0.093,0.047-0.224,0.098-0.392,0.154
	c-0.159,0.047-0.345,0.089-0.56,0.126c-0.205,0.047-0.429,0.084-0.672,0.112c-0.243,0.028-0.49,0.042-0.742,0.042
	c-0.644,0-1.204-0.093-1.68-0.28c-0.476-0.196-0.868-0.462-1.176-0.798c-0.308-0.345-0.537-0.747-0.686-1.204
	C121.702,100.433,121.627,99.925,121.627,99.374z M126.541,98.618c0-0.233-0.033-0.453-0.098-0.658
	c-0.065-0.215-0.163-0.396-0.294-0.546c-0.121-0.159-0.275-0.28-0.462-0.364c-0.177-0.093-0.392-0.14-0.644-0.14
	c-0.261,0-0.49,0.051-0.686,0.154c-0.196,0.093-0.364,0.219-0.504,0.378c-0.131,0.159-0.233,0.341-0.308,0.546
	c-0.075,0.206-0.126,0.416-0.154,0.63H126.541z M129.625,99.346c0-0.542,0.084-1.045,0.252-1.512
	c0.168-0.476,0.406-0.887,0.714-1.232c0.317-0.345,0.7-0.616,1.148-0.812c0.448-0.196,0.952-0.294,1.512-0.294
	c0.691,0,1.344,0.126,1.96,0.378l-0.364,1.386c-0.196-0.084-0.42-0.154-0.672-0.21c-0.243-0.056-0.504-0.084-0.784-0.084
	c-0.663,0-1.167,0.21-1.512,0.63c-0.345,0.411-0.518,0.994-0.518,1.75c0,0.728,0.163,1.307,0.49,1.736
	c0.327,0.42,0.877,0.63,1.652,0.63c0.289,0,0.574-0.028,0.854-0.084c0.28-0.056,0.523-0.126,0.728-0.21l0.238,1.4
	c-0.188,0.093-0.471,0.177-0.854,0.252c-0.373,0.075-0.761,0.112-1.162,0.112c-0.625,0-1.171-0.093-1.638-0.28
	c-0.457-0.196-0.84-0.462-1.148-0.798c-0.299-0.345-0.523-0.751-0.672-1.218C129.7,100.41,129.625,99.896,129.625,99.346z
	 M136.229,99.374c0-0.644,0.093-1.209,0.28-1.694c0.196-0.485,0.452-0.887,0.77-1.204c0.317-0.327,0.681-0.569,1.092-0.728
	c0.41-0.168,0.83-0.252,1.26-0.252c1.008,0,1.792,0.313,2.352,0.938c0.569,0.625,0.854,1.559,0.854,2.8
	c0,0.093-0.005,0.201-0.014,0.322c0,0.112-0.005,0.214-0.014,0.308h-4.83c0.046,0.588,0.252,1.045,0.616,1.372
	c0.373,0.317,0.91,0.476,1.61,0.476c0.41,0,0.784-0.037,1.12-0.112c0.345-0.075,0.616-0.154,0.812-0.238l0.224,1.386
	c-0.094,0.047-0.224,0.098-0.392,0.154c-0.159,0.047-0.346,0.089-0.56,0.126c-0.206,0.047-0.43,0.084-0.672,0.112
	c-0.243,0.028-0.49,0.042-0.742,0.042c-0.644,0-1.204-0.093-1.68-0.28c-0.476-0.196-0.868-0.462-1.176-0.798
	c-0.308-0.345-0.537-0.747-0.686-1.204C136.303,100.433,136.229,99.925,136.229,99.374z M141.143,98.618
	c0-0.233-0.033-0.453-0.098-0.658c-0.066-0.215-0.164-0.396-0.294-0.546c-0.122-0.159-0.276-0.28-0.462-0.364
	c-0.178-0.093-0.392-0.14-0.644-0.14c-0.262,0-0.49,0.051-0.686,0.154c-0.196,0.093-0.364,0.219-0.504,0.378
	c-0.131,0.159-0.234,0.341-0.308,0.546c-0.075,0.206-0.126,0.416-0.154,0.63H141.143z M144.633,95.916
	c0.326-0.093,0.751-0.182,1.274-0.266c0.522-0.084,1.101-0.126,1.736-0.126c0.597,0,1.096,0.084,1.498,0.252
	c0.401,0.159,0.718,0.387,0.952,0.686c0.242,0.29,0.41,0.644,0.504,1.064c0.102,0.411,0.154,0.863,0.154,1.358V103h-1.694v-3.85
	c0-0.392-0.028-0.723-0.084-0.994c-0.047-0.28-0.131-0.504-0.252-0.672c-0.112-0.177-0.271-0.303-0.476-0.378
	c-0.196-0.084-0.439-0.126-0.728-0.126c-0.215,0-0.439,0.014-0.672,0.042c-0.234,0.028-0.406,0.051-0.518,0.07V103h-1.694V95.916z
	 M152.738,93.746l1.694-0.28v2.212h2.604v1.414h-2.604v2.982c0,0.588,0.093,1.008,0.28,1.26s0.504,0.378,0.952,0.378
	c0.308,0,0.579-0.033,0.812-0.098c0.243-0.065,0.434-0.126,0.574-0.182l0.28,1.344c-0.196,0.084-0.453,0.168-0.77,0.252
	c-0.317,0.093-0.691,0.14-1.12,0.14c-0.523,0-0.961-0.07-1.316-0.21c-0.345-0.14-0.621-0.341-0.826-0.602
	c-0.205-0.271-0.35-0.593-0.434-0.966c-0.084-0.383-0.126-0.817-0.126-1.302V93.746z M168.465,103
	c-0.13-0.383-0.266-0.761-0.406-1.134s-0.275-0.756-0.406-1.148h-4.088c-0.13,0.392-0.266,0.779-0.406,1.162
	c-0.13,0.373-0.261,0.747-0.392,1.12h-1.834c0.364-1.036,0.71-1.993,1.036-2.87c0.327-0.877,0.645-1.708,0.952-2.492
	c0.318-0.784,0.63-1.531,0.938-2.24s0.626-1.409,0.952-2.1h1.666c0.327,0.691,0.644,1.391,0.952,2.1
	c0.308,0.709,0.616,1.456,0.924,2.24c0.318,0.784,0.64,1.615,0.966,2.492c0.336,0.877,0.686,1.834,1.05,2.87H168.465z
	 M165.609,95.174c-0.214,0.495-0.462,1.097-0.742,1.806c-0.27,0.709-0.555,1.479-0.854,2.31h3.192
	c-0.298-0.831-0.588-1.605-0.868-2.324C166.057,96.247,165.815,95.65,165.609,95.174z M171.359,93.746l1.694-0.28v2.212h2.604v1.414
	h-2.604v2.982c0,0.588,0.094,1.008,0.28,1.26c0.187,0.252,0.504,0.378,0.952,0.378c0.308,0,0.579-0.033,0.812-0.098
	c0.243-0.065,0.434-0.126,0.574-0.182l0.28,1.344c-0.196,0.084-0.452,0.168-0.77,0.252c-0.317,0.093-0.69,0.14-1.12,0.14
	c-0.522,0-0.961-0.07-1.316-0.21c-0.345-0.14-0.62-0.341-0.826-0.602c-0.205-0.271-0.35-0.593-0.434-0.966
	c-0.084-0.383-0.126-0.817-0.126-1.302V93.746z M177.211,93.746l1.694-0.28v2.212h2.604v1.414h-2.604v2.982
	c0,0.588,0.093,1.008,0.28,1.26c0.186,0.252,0.504,0.378,0.952,0.378c0.308,0,0.578-0.033,0.813-0.098
	c0.242-0.065,0.434-0.126,0.574-0.182l0.28,1.344c-0.196,0.084-0.453,0.168-0.77,0.252c-0.318,0.093-0.691,0.14-1.12,0.14
	c-0.523,0-0.962-0.07-1.316-0.21c-0.346-0.14-0.621-0.341-0.826-0.602c-0.206-0.271-0.35-0.593-0.434-0.966
	c-0.084-0.383-0.126-0.817-0.126-1.302V93.746z M182.617,99.374c0-0.644,0.094-1.209,0.28-1.694c0.196-0.485,0.453-0.887,0.77-1.204
	c0.318-0.327,0.682-0.569,1.092-0.728c0.411-0.168,0.831-0.252,1.26-0.252c1.008,0,1.792,0.313,2.352,0.938
	c0.57,0.625,0.854,1.559,0.854,2.8c0,0.093-0.004,0.201-0.014,0.322c0,0.112-0.004,0.214-0.014,0.308h-4.83
	c0.047,0.588,0.252,1.045,0.616,1.372c0.374,0.317,0.91,0.476,1.61,0.476c0.411,0,0.784-0.037,1.12-0.112
	c0.346-0.075,0.616-0.154,0.812-0.238l0.224,1.386c-0.093,0.047-0.224,0.098-0.392,0.154c-0.158,0.047-0.345,0.089-0.56,0.126
	c-0.205,0.047-0.429,0.084-0.672,0.112c-0.242,0.028-0.49,0.042-0.742,0.042c-0.644,0-1.204-0.093-1.68-0.28
	c-0.476-0.196-0.868-0.462-1.176-0.798c-0.308-0.345-0.536-0.747-0.686-1.204C182.692,100.433,182.617,99.925,182.617,99.374z
	 M187.531,98.618c0-0.233-0.032-0.453-0.098-0.658c-0.065-0.215-0.163-0.396-0.294-0.546c-0.121-0.159-0.275-0.28-0.462-0.364
	c-0.177-0.093-0.392-0.14-0.644-0.14c-0.261,0-0.49,0.051-0.686,0.154c-0.196,0.093-0.364,0.219-0.504,0.378
	c-0.13,0.159-0.233,0.341-0.308,0.546c-0.074,0.206-0.126,0.416-0.154,0.63H187.531z M195.193,99.15
	c0-0.765-0.098-1.316-0.294-1.652c-0.186-0.345-0.541-0.518-1.064-0.518c-0.186,0-0.392,0.014-0.616,0.042
	c-0.224,0.028-0.392,0.051-0.504,0.07V103h-1.694v-7.084c0.327-0.093,0.752-0.182,1.274-0.266c0.532-0.084,1.092-0.126,1.68-0.126
	c0.504,0,0.915,0.065,1.232,0.196c0.327,0.131,0.598,0.304,0.812,0.518c0.103-0.075,0.234-0.154,0.392-0.238
	c0.159-0.084,0.336-0.159,0.532-0.224c0.196-0.075,0.402-0.135,0.616-0.182c0.224-0.046,0.448-0.07,0.672-0.07
	c0.57,0,1.036,0.084,1.4,0.252c0.374,0.159,0.663,0.387,0.868,0.686c0.215,0.29,0.36,0.644,0.434,1.064
	c0.084,0.411,0.126,0.863,0.126,1.358V103h-1.694v-3.85c0-0.765-0.093-1.316-0.28-1.652c-0.186-0.345-0.546-0.518-1.078-0.518
	c-0.27,0-0.527,0.047-0.77,0.14c-0.242,0.084-0.424,0.168-0.546,0.252c0.075,0.233,0.126,0.48,0.154,0.742
	c0.028,0.261,0.042,0.541,0.042,0.84V103h-1.694V99.15z M207.993,99.374c0-0.756-0.173-1.344-0.518-1.764
	c-0.336-0.42-0.882-0.63-1.638-0.63c-0.159,0-0.327,0.009-0.504,0.028c-0.168,0.01-0.336,0.038-0.504,0.084v4.186
	c0.149,0.103,0.345,0.201,0.588,0.294c0.252,0.084,0.518,0.126,0.798,0.126c0.616,0,1.064-0.21,1.344-0.63
	C207.848,100.648,207.993,100.083,207.993,99.374z M209.729,99.346c0,0.56-0.075,1.073-0.224,1.54
	c-0.14,0.467-0.346,0.868-0.616,1.204c-0.271,0.336-0.612,0.597-1.022,0.784c-0.402,0.187-0.859,0.28-1.372,0.28
	c-0.346,0-0.663-0.042-0.952-0.126c-0.29-0.084-0.528-0.177-0.714-0.28v2.842h-1.694v-9.674c0.345-0.093,0.771-0.182,1.274-0.266
	s1.036-0.126,1.596-0.126c0.578,0,1.096,0.089,1.554,0.266c0.457,0.177,0.844,0.434,1.162,0.77c0.326,0.327,0.574,0.728,0.742,1.204
	C209.64,98.23,209.729,98.758,209.729,99.346z M211.39,93.746l1.694-0.28v2.212h2.604v1.414h-2.604v2.982
	c0,0.588,0.094,1.008,0.28,1.26s0.504,0.378,0.952,0.378c0.308,0,0.579-0.033,0.812-0.098c0.243-0.065,0.434-0.126,0.574-0.182
	l0.28,1.344c-0.196,0.084-0.452,0.168-0.77,0.252c-0.317,0.093-0.69,0.14-1.12,0.14c-0.522,0-0.961-0.07-1.316-0.21
	c-0.345-0.14-0.62-0.341-0.826-0.602c-0.205-0.271-0.35-0.593-0.434-0.966c-0.084-0.383-0.126-0.817-0.126-1.302V93.746z"/>
<circle fill="#3F51B5" cx="265" cy="98" r="8"/>
<path fill="#000014" d="M288.294,101.474V103h-6.132v-9.702h1.764v8.176H288.294z M292.133,101.81c0.522,0,0.919-0.028,1.19-0.084
	V99.85c-0.094-0.028-0.229-0.056-0.406-0.084c-0.178-0.028-0.374-0.042-0.588-0.042c-0.187,0-0.378,0.014-0.574,0.042
	c-0.187,0.028-0.36,0.079-0.518,0.154c-0.15,0.075-0.271,0.182-0.364,0.322c-0.094,0.131-0.14,0.299-0.14,0.504
	c0,0.401,0.126,0.681,0.378,0.84C291.363,101.735,291.703,101.81,292.133,101.81z M291.993,95.496c0.56,0,1.031,0.07,1.414,0.21
	c0.382,0.14,0.686,0.336,0.91,0.588c0.233,0.252,0.396,0.56,0.49,0.924c0.102,0.355,0.154,0.747,0.154,1.176v4.438
	c-0.262,0.056-0.658,0.121-1.19,0.196c-0.523,0.084-1.116,0.126-1.778,0.126c-0.439,0-0.84-0.042-1.204-0.126
	s-0.677-0.219-0.938-0.406c-0.252-0.187-0.453-0.429-0.602-0.728c-0.14-0.299-0.21-0.667-0.21-1.106c0-0.42,0.079-0.775,0.238-1.064
	c0.168-0.29,0.392-0.523,0.672-0.7c0.28-0.187,0.602-0.317,0.966-0.392c0.373-0.084,0.76-0.126,1.162-0.126
	c0.186,0,0.382,0.014,0.588,0.042c0.205,0.019,0.424,0.056,0.658,0.112v-0.28c0-0.196-0.024-0.383-0.07-0.56
	c-0.047-0.177-0.131-0.331-0.252-0.462c-0.112-0.14-0.266-0.247-0.462-0.322c-0.187-0.075-0.425-0.112-0.714-0.112
	c-0.392,0-0.752,0.028-1.078,0.084c-0.327,0.056-0.593,0.122-0.798,0.196l-0.21-1.372c0.214-0.075,0.527-0.149,0.938-0.224
	C291.087,95.533,291.526,95.496,291.993,95.496z M296.951,93.746l1.694-0.28v2.212h2.604v1.414h-2.604v2.982
	c0,0.588,0.093,1.008,0.28,1.26c0.188,0.252,0.504,0.378,0.952,0.378c0.308,0,0.579-0.033,0.812-0.098
	c0.243-0.065,0.434-0.126,0.574-0.182l0.28,1.344c-0.196,0.084-0.453,0.168-0.77,0.252c-0.317,0.093-0.691,0.14-1.12,0.14
	c-0.523,0-0.961-0.07-1.316-0.21c-0.345-0.14-0.621-0.341-0.826-0.602c-0.205-0.271-0.35-0.593-0.434-0.966
	c-0.084-0.383-0.126-0.817-0.126-1.302V93.746z M302.358,99.374c0-0.644,0.093-1.209,0.28-1.694
	c0.196-0.485,0.452-0.887,0.771-1.204c0.317-0.327,0.681-0.569,1.092-0.728c0.41-0.168,0.83-0.252,1.26-0.252
	c1.008,0,1.792,0.313,2.353,0.938c0.569,0.625,0.854,1.559,0.854,2.8c0,0.093-0.005,0.201-0.014,0.322
	c0,0.112-0.005,0.214-0.015,0.308h-4.83c0.046,0.588,0.252,1.045,0.616,1.372c0.373,0.317,0.91,0.476,1.61,0.476
	c0.41,0,0.784-0.037,1.12-0.112c0.345-0.075,0.616-0.154,0.812-0.238l0.224,1.386c-0.094,0.047-0.224,0.098-0.392,0.154
	c-0.159,0.047-0.346,0.089-0.56,0.126c-0.206,0.047-0.43,0.084-0.672,0.112c-0.243,0.028-0.49,0.042-0.742,0.042
	c-0.644,0-1.204-0.093-1.68-0.28c-0.476-0.196-0.868-0.462-1.176-0.798c-0.308-0.345-0.537-0.747-0.686-1.204
	C302.432,100.433,302.358,99.925,302.358,99.374z M307.272,98.618c0-0.233-0.033-0.453-0.098-0.658
	c-0.066-0.215-0.164-0.396-0.294-0.546c-0.122-0.159-0.276-0.28-0.462-0.364c-0.178-0.093-0.392-0.14-0.644-0.14
	c-0.262,0-0.49,0.051-0.686,0.154c-0.196,0.093-0.364,0.219-0.504,0.378c-0.131,0.159-0.234,0.341-0.308,0.546
	c-0.075,0.206-0.126,0.416-0.154,0.63H307.272z M312.596,101.782c0.448,0,0.774-0.051,0.98-0.154
	c0.205-0.112,0.308-0.299,0.308-0.56c0-0.243-0.112-0.443-0.336-0.602c-0.215-0.159-0.573-0.331-1.078-0.518
	c-0.308-0.112-0.593-0.229-0.854-0.35c-0.252-0.131-0.472-0.28-0.658-0.448s-0.336-0.369-0.448-0.602
	c-0.103-0.243-0.154-0.537-0.154-0.882c0-0.672,0.248-1.199,0.742-1.582c0.494-0.392,1.166-0.588,2.017-0.588
	c0.429,0,0.84,0.042,1.231,0.126c0.393,0.075,0.687,0.149,0.883,0.224l-0.309,1.372c-0.188-0.084-0.425-0.158-0.714-0.224
	c-0.29-0.075-0.626-0.112-1.008-0.112c-0.347,0-0.626,0.061-0.841,0.182c-0.215,0.112-0.321,0.29-0.321,0.532
	c0,0.121,0.018,0.229,0.056,0.322c0.046,0.093,0.121,0.182,0.225,0.266c0.102,0.075,0.237,0.154,0.405,0.238
	c0.169,0.075,0.373,0.154,0.616,0.238c0.401,0.149,0.742,0.298,1.021,0.448c0.281,0.14,0.509,0.303,0.687,0.49
	c0.187,0.177,0.322,0.382,0.406,0.616s0.126,0.513,0.126,0.84c0,0.7-0.262,1.232-0.784,1.596c-0.514,0.355-1.251,0.532-2.212,0.532
	c-0.645,0-1.162-0.056-1.554-0.168c-0.393-0.103-0.669-0.187-0.826-0.252l0.294-1.414c0.252,0.103,0.55,0.201,0.896,0.294
	C311.746,101.735,312.148,101.782,312.596,101.782z M317.076,93.746l1.693-0.28v2.212h2.604v1.414h-2.604v2.982
	c0,0.588,0.094,1.008,0.28,1.26c0.188,0.252,0.504,0.378,0.952,0.378c0.309,0,0.579-0.033,0.813-0.098
	c0.242-0.065,0.434-0.126,0.573-0.182l0.28,1.344c-0.196,0.084-0.453,0.168-0.77,0.252c-0.317,0.093-0.691,0.14-1.12,0.14
	c-0.523,0-0.962-0.07-1.316-0.21c-0.345-0.14-0.621-0.341-0.826-0.602c-0.204-0.271-0.35-0.593-0.434-0.966
	c-0.084-0.383-0.126-0.817-0.126-1.302V93.746z M332.803,103c-0.13-0.383-0.266-0.761-0.406-1.134
	c-0.14-0.373-0.274-0.756-0.405-1.148h-4.088c-0.13,0.392-0.267,0.779-0.406,1.162c-0.13,0.373-0.261,0.747-0.392,1.12h-1.834
	c0.363-1.036,0.709-1.993,1.035-2.87c0.327-0.877,0.645-1.708,0.952-2.492c0.318-0.784,0.63-1.531,0.938-2.24
	c0.308-0.709,0.626-1.409,0.951-2.1h1.666c0.328,0.691,0.645,1.391,0.953,2.1c0.308,0.709,0.615,1.456,0.924,2.24
	c0.317,0.784,0.64,1.615,0.966,2.492c0.336,0.877,0.686,1.834,1.05,2.87H332.803z M329.947,95.174
	c-0.215,0.495-0.463,1.097-0.742,1.806c-0.27,0.709-0.555,1.479-0.854,2.31h3.191c-0.298-0.831-0.588-1.605-0.868-2.324
	S330.153,95.65,329.947,95.174z M335.697,93.746l1.693-0.28v2.212h2.604v1.414h-2.604v2.982c0,0.588,0.094,1.008,0.28,1.26
	s0.504,0.378,0.952,0.378c0.309,0,0.579-0.033,0.813-0.098c0.242-0.065,0.434-0.126,0.573-0.182l0.28,1.344
	c-0.196,0.084-0.453,0.168-0.77,0.252c-0.317,0.093-0.691,0.14-1.121,0.14c-0.522,0-0.961-0.07-1.315-0.21
	c-0.345-0.14-0.621-0.341-0.826-0.602c-0.205-0.271-0.35-0.593-0.434-0.966c-0.084-0.383-0.126-0.817-0.126-1.302V93.746z
	 M341.549,93.746l1.694-0.28v2.212h2.604v1.414h-2.604v2.982c0,0.588,0.093,1.008,0.28,1.26c0.186,0.252,0.504,0.378,0.951,0.378
	c0.309,0,0.578-0.033,0.813-0.098c0.242-0.065,0.434-0.126,0.574-0.182l0.279,1.344c-0.195,0.084-0.453,0.168-0.77,0.252
	c-0.318,0.093-0.691,0.14-1.12,0.14c-0.522,0-0.962-0.07-1.315-0.21c-0.347-0.14-0.621-0.341-0.826-0.602
	c-0.206-0.271-0.351-0.593-0.435-0.966c-0.084-0.383-0.126-0.817-0.126-1.302V93.746z M346.955,99.374
	c0-0.644,0.094-1.209,0.279-1.694c0.197-0.485,0.453-0.887,0.771-1.204c0.318-0.327,0.683-0.569,1.092-0.728
	c0.411-0.168,0.831-0.252,1.261-0.252c1.008,0,1.791,0.313,2.352,0.938c0.57,0.625,0.854,1.559,0.854,2.8
	c0,0.093-0.004,0.201-0.014,0.322c0,0.112-0.004,0.214-0.014,0.308h-4.83c0.047,0.588,0.252,1.045,0.616,1.372
	c0.374,0.317,0.909,0.476,1.61,0.476c0.41,0,0.783-0.037,1.119-0.112c0.346-0.075,0.616-0.154,0.813-0.238l0.224,1.386
	c-0.093,0.047-0.224,0.098-0.392,0.154c-0.158,0.047-0.346,0.089-0.561,0.126c-0.205,0.047-0.429,0.084-0.672,0.112
	c-0.242,0.028-0.49,0.042-0.742,0.042c-0.644,0-1.203-0.093-1.68-0.28c-0.477-0.196-0.868-0.462-1.176-0.798
	c-0.309-0.345-0.536-0.747-0.687-1.204C347.03,100.433,346.955,99.925,346.955,99.374z M351.869,98.618
	c0-0.233-0.032-0.453-0.098-0.658c-0.065-0.215-0.164-0.396-0.295-0.546c-0.121-0.159-0.274-0.28-0.461-0.364
	c-0.178-0.093-0.393-0.14-0.645-0.14c-0.262,0-0.49,0.051-0.686,0.154c-0.196,0.093-0.364,0.219-0.504,0.378
	c-0.131,0.159-0.233,0.341-0.309,0.546c-0.074,0.206-0.126,0.416-0.154,0.63H351.869z M359.531,99.15
	c0-0.765-0.098-1.316-0.294-1.652c-0.187-0.345-0.541-0.518-1.064-0.518c-0.186,0-0.392,0.014-0.616,0.042
	c-0.224,0.028-0.392,0.051-0.504,0.07V103h-1.693v-7.084c0.326-0.093,0.752-0.182,1.273-0.266c0.532-0.084,1.092-0.126,1.68-0.126
	c0.504,0,0.916,0.065,1.232,0.196c0.327,0.131,0.598,0.304,0.813,0.518c0.103-0.075,0.233-0.154,0.392-0.238
	c0.159-0.084,0.336-0.159,0.532-0.224c0.195-0.075,0.402-0.135,0.615-0.182c0.225-0.046,0.448-0.07,0.672-0.07
	c0.57,0,1.037,0.084,1.4,0.252c0.374,0.159,0.663,0.387,0.868,0.686c0.215,0.29,0.36,0.644,0.435,1.064
	c0.084,0.411,0.125,0.863,0.125,1.358V103h-1.693v-3.85c0-0.765-0.094-1.316-0.28-1.652c-0.186-0.345-0.546-0.518-1.078-0.518
	c-0.27,0-0.526,0.047-0.77,0.14c-0.242,0.084-0.425,0.168-0.546,0.252c0.074,0.233,0.126,0.48,0.154,0.742
	c0.027,0.261,0.041,0.541,0.041,0.84V103h-1.693V99.15z M372.331,99.374c0-0.756-0.173-1.344-0.519-1.764
	c-0.336-0.42-0.881-0.63-1.638-0.63c-0.159,0-0.327,0.009-0.504,0.028c-0.168,0.01-0.336,0.038-0.504,0.084v4.186
	c0.149,0.103,0.345,0.201,0.588,0.294c0.252,0.084,0.519,0.126,0.798,0.126c0.616,0,1.064-0.21,1.344-0.63
	C372.186,100.648,372.331,100.083,372.331,99.374z M374.066,99.346c0,0.56-0.074,1.073-0.224,1.54
	c-0.14,0.467-0.346,0.868-0.616,1.204s-0.611,0.597-1.021,0.784c-0.402,0.187-0.859,0.28-1.372,0.28
	c-0.346,0-0.663-0.042-0.952-0.126c-0.29-0.084-0.527-0.177-0.714-0.28v2.842h-1.694v-9.674c0.346-0.093,0.771-0.182,1.274-0.266
	s1.036-0.126,1.596-0.126c0.578,0,1.097,0.089,1.554,0.266s0.845,0.434,1.162,0.77c0.326,0.327,0.574,0.728,0.742,1.204
	C373.979,98.23,374.066,98.758,374.066,99.346z M375.729,93.746l1.693-0.28v2.212h2.604v1.414h-2.604v2.982
	c0,0.588,0.094,1.008,0.28,1.26s0.504,0.378,0.952,0.378c0.308,0,0.578-0.033,0.812-0.098c0.243-0.065,0.435-0.126,0.574-0.182
	l0.28,1.344c-0.196,0.084-0.452,0.168-0.771,0.252c-0.317,0.093-0.69,0.14-1.12,0.14c-0.521,0-0.961-0.07-1.315-0.21
	c-0.345-0.14-0.62-0.341-0.826-0.602c-0.205-0.271-0.351-0.593-0.435-0.966c-0.084-0.383-0.125-0.817-0.125-1.302V93.746z"/>
<path opacity="0.4" fill="#000014" enable-background="new    " d="M115.709,333.138h-1.162v-7.686l-3.178,7.686h-0.476
	l-3.164-7.686v7.686h-1.162V323.8h1.666l2.898,7.028l2.912-7.028h1.666V333.138z M123.123,333.138h-1.05v-0.77
	c-0.569,0.626-1.316,0.938-2.24,0.938c-0.625,0-1.176-0.2-1.652-0.602s-0.714-0.947-0.714-1.638c0-0.709,0.233-1.256,0.7-1.639
	c0.476-0.392,1.031-0.588,1.666-0.588c0.961,0,1.708,0.309,2.24,0.924v-1.218c0-0.448-0.159-0.798-0.476-1.05
	s-0.728-0.378-1.232-0.378c-0.793,0-1.484,0.313-2.072,0.938l-0.49-0.728c0.719-0.746,1.619-1.12,2.702-1.12
	c0.775,0,1.405,0.187,1.89,0.56c0.485,0.374,0.728,0.948,0.728,1.723V333.138z M120.211,332.55c0.84,0,1.461-0.28,1.862-0.84v-1.274
	c-0.401-0.56-1.022-0.84-1.862-0.84c-0.485,0-0.887,0.141-1.204,0.42c-0.308,0.271-0.462,0.626-0.462,1.064
	c0,0.43,0.154,0.784,0.462,1.064C119.324,332.415,119.726,332.55,120.211,332.55z M126.936,333.306c-0.495,0-0.868-0.135-1.12-0.405
	s-0.378-0.662-0.378-1.177V327.3h-1.12v-0.924h1.12v-1.848h1.05v1.848h1.372v0.924h-1.372v4.2c0,0.262,0.056,0.472,0.168,0.63
	c0.121,0.159,0.294,0.238,0.518,0.238c0.308,0,0.546-0.093,0.714-0.28l0.308,0.784C127.888,333.162,127.468,333.306,126.936,333.306
	z M134.971,333.138h-1.05v-4.452c0-0.56-0.131-0.955-0.392-1.189c-0.261-0.233-0.639-0.35-1.134-0.35
	c-0.383,0-0.761,0.103-1.134,0.308c-0.364,0.206-0.653,0.453-0.868,0.742v4.941h-1.05V323.8h1.05v3.556
	c0.261-0.308,0.611-0.573,1.05-0.798c0.439-0.232,0.896-0.35,1.372-0.35c1.437,0,2.156,0.719,2.156,2.156V333.138z M139.21,333.306
	c-1.148,0-2.058-0.354-2.73-1.063l0.546-0.756c0.233,0.271,0.55,0.5,0.952,0.686c0.41,0.188,0.835,0.28,1.274,0.28
	c0.504,0,0.896-0.107,1.176-0.322c0.28-0.214,0.42-0.494,0.42-0.84c0-0.298-0.145-0.532-0.434-0.7
	c-0.29-0.177-0.64-0.308-1.05-0.392c-0.402-0.093-0.808-0.196-1.218-0.309c-0.411-0.12-0.761-0.321-1.05-0.602
	c-0.29-0.289-0.434-0.667-0.434-1.134c0-0.551,0.224-1.013,0.672-1.387c0.457-0.373,1.073-0.56,1.848-0.56
	c1.017,0,1.852,0.327,2.506,0.979l-0.49,0.729c-0.476-0.569-1.148-0.854-2.016-0.854c-0.458,0-0.822,0.103-1.092,0.308
	c-0.271,0.196-0.406,0.448-0.406,0.756c0,0.271,0.144,0.486,0.434,0.644c0.289,0.15,0.634,0.271,1.036,0.364
	c0.41,0.084,0.821,0.188,1.232,0.309c0.41,0.122,0.76,0.336,1.05,0.644c0.289,0.299,0.434,0.691,0.434,1.176
	c0,0.599-0.234,1.088-0.7,1.471C140.703,333.115,140.05,333.306,139.21,333.306z"/>
<path fill="#03A9F4" d="M104,262.88c0-2.21,1.791-4,4-4h12c2.209,0,4,1.79,4,4v43.683h-20V262.88z"/>
<path fill="#3F51B5" d="M124,235.486c0-2.208,1.791-4,4-4h12c2.209,0,4,1.791,4,4v71.076h-20V235.486z"/>
<path opacity="0.4" fill="#000014" enable-background="new    " d="M179.306,333.139h-1.162v-9.338h3.752
	c0.905,0,1.619,0.271,2.142,0.813c0.522,0.541,0.784,1.209,0.784,2.002s-0.266,1.461-0.798,2.002
	c-0.523,0.541-1.232,0.812-2.128,0.812h-2.59V333.139z M181.756,328.393c0.55,0,0.998-0.162,1.344-0.489
	c0.345-0.336,0.518-0.766,0.518-1.288c0-0.523-0.173-0.947-0.518-1.274c-0.346-0.336-0.794-0.504-1.344-0.504h-2.45v3.556H181.756z
	 M191.947,333.139h-1.05v-4.451c0-0.561-0.131-0.957-0.392-1.19c-0.262-0.233-0.64-0.351-1.134-0.351
	c-0.383,0-0.761,0.104-1.134,0.309c-0.364,0.205-0.654,0.453-0.868,0.742v4.941h-1.05v-9.338h1.05v3.557
	c0.261-0.309,0.611-0.574,1.05-0.799c0.438-0.232,0.896-0.35,1.372-0.35c1.437,0,2.156,0.719,2.156,2.156V333.139z M193.665,335.785
	l0.168-0.952c0.168,0.075,0.359,0.112,0.574,0.112c0.243,0,0.443-0.051,0.602-0.154c0.159-0.104,0.294-0.289,0.406-0.561
	l0.448-1.021l-2.828-6.832h1.134l2.254,5.544l2.24-5.544h1.148l-3.388,8.134c-0.373,0.896-1.036,1.354-1.988,1.372
	C194.155,335.883,193.898,335.85,193.665,335.785z M203.048,333.307c-1.148,0-2.058-0.354-2.73-1.063l0.546-0.756
	c0.234,0.271,0.551,0.499,0.952,0.686c0.411,0.188,0.836,0.28,1.274,0.28c0.504,0,0.896-0.107,1.176-0.322
	c0.28-0.215,0.42-0.495,0.42-0.84c0-0.299-0.144-0.532-0.434-0.7c-0.289-0.177-0.639-0.308-1.05-0.392
	c-0.401-0.094-0.807-0.196-1.218-0.309c-0.41-0.121-0.76-0.321-1.05-0.602c-0.289-0.289-0.434-0.667-0.434-1.134
	c0-0.552,0.224-1.014,0.672-1.386c0.458-0.373,1.074-0.561,1.848-0.561c1.018,0,1.853,0.327,2.506,0.98l-0.49,0.728
	c-0.476-0.569-1.148-0.854-2.016-0.854c-0.457,0-0.821,0.104-1.092,0.309c-0.27,0.196-0.406,0.448-0.406,0.756
	c0,0.271,0.145,0.485,0.434,0.645c0.29,0.148,0.635,0.271,1.036,0.363c0.411,0.084,0.822,0.188,1.232,0.309
	c0.411,0.121,0.761,0.336,1.05,0.644c0.29,0.299,0.434,0.691,0.434,1.176c0,0.598-0.233,1.087-0.7,1.471
	C204.542,333.116,203.888,333.307,203.048,333.307z M207.932,325.411c-0.186,0-0.35-0.065-0.49-0.196
	c-0.14-0.14-0.21-0.308-0.21-0.504s0.07-0.364,0.21-0.504s0.304-0.21,0.49-0.21c0.196,0,0.364,0.07,0.504,0.21
	s0.21,0.308,0.21,0.504s-0.07,0.364-0.21,0.504C208.296,325.346,208.128,325.411,207.932,325.411z M208.464,333.139h-1.05v-6.762
	h1.05V333.139z M213.541,333.307c-0.999,0-1.811-0.336-2.436-1.008c-0.626-0.681-0.938-1.531-0.938-2.548s0.312-1.862,0.938-2.534
	c0.625-0.672,1.437-1.008,2.436-1.008c1.045,0,1.871,0.392,2.478,1.176l-0.7,0.645c-0.43-0.588-1.004-0.883-1.722-0.883
	c-0.71,0-1.279,0.243-1.708,0.729c-0.42,0.485-0.63,1.111-0.63,1.876s0.21,1.396,0.63,1.89c0.429,0.485,0.998,0.729,1.708,0.729
	c0.709,0,1.283-0.294,1.722-0.882l0.7,0.644C215.412,332.915,214.586,333.307,213.541,333.307z M219.632,333.307
	c-1.148,0-2.058-0.354-2.73-1.063l0.546-0.756c0.234,0.271,0.551,0.499,0.952,0.686c0.411,0.188,0.836,0.28,1.274,0.28
	c0.504,0,0.896-0.107,1.176-0.322s0.42-0.495,0.42-0.84c0-0.299-0.144-0.532-0.434-0.7c-0.289-0.177-0.639-0.308-1.05-0.392
	c-0.401-0.094-0.807-0.196-1.218-0.309c-0.41-0.121-0.76-0.321-1.05-0.602c-0.289-0.289-0.434-0.667-0.434-1.134
	c0-0.552,0.224-1.014,0.672-1.386c0.458-0.373,1.074-0.561,1.848-0.561c1.018,0,1.853,0.327,2.506,0.98l-0.49,0.728
	c-0.476-0.569-1.148-0.854-2.016-0.854c-0.457,0-0.821,0.104-1.092,0.309c-0.27,0.196-0.406,0.448-0.406,0.756
	c0,0.271,0.145,0.485,0.434,0.645c0.29,0.148,0.635,0.271,1.036,0.363c0.411,0.084,0.822,0.188,1.232,0.309
	c0.411,0.121,0.761,0.336,1.05,0.644c0.29,0.299,0.434,0.691,0.434,1.176c0,0.598-0.233,1.087-0.7,1.471
	C221.126,333.116,220.472,333.307,219.632,333.307z"/>
<path fill="#03A9F4" d="M180,229.43c0-2.209,1.791-4,4-4h12c2.209,0,4,1.791,4,4v77.132h-20V229.43z"/>
<path fill="#3F51B5" d="M200,182.822c0-2.209,1.791-4,4-4h12c2.209,0,4,1.791,4,4v123.74h-20V182.822z"/>
<path opacity="0.4" fill="#000014" enable-background="new    " d="M360.338,333.138h-4.256V323.8h4.158
	c0.803,0,1.438,0.22,1.904,0.658c0.476,0.438,0.713,1.013,0.713,1.722c0,0.561-0.157,1.036-0.476,1.429
	c-0.317,0.383-0.704,0.62-1.162,0.714c0.495,0.074,0.921,0.336,1.274,0.783c0.363,0.448,0.546,0.952,0.546,1.513
	c0,0.756-0.242,1.368-0.728,1.834C361.836,332.91,361.178,333.138,360.338,333.138z M360.044,327.846c0.515,0,0.91-0.14,1.19-0.42
	c0.279-0.279,0.42-0.639,0.42-1.078c0-0.438-0.145-0.798-0.435-1.078c-0.28-0.289-0.672-0.434-1.176-0.434h-2.8v3.01H360.044z
	 M360.1,332.102c0.543,0,0.967-0.144,1.274-0.434c0.308-0.289,0.462-0.681,0.462-1.176c0-0.457-0.154-0.84-0.462-1.148
	c-0.298-0.308-0.724-0.462-1.274-0.462h-2.855v3.22H360.1z M365.363,325.41c-0.188,0-0.351-0.065-0.49-0.196
	c-0.141-0.14-0.21-0.308-0.21-0.504s0.069-0.364,0.21-0.504c0.14-0.14,0.303-0.21,0.49-0.21c0.195,0,0.363,0.07,0.504,0.21
	c0.14,0.14,0.21,0.308,0.21,0.504s-0.07,0.364-0.21,0.504C365.727,325.345,365.559,325.41,365.363,325.41z M365.895,333.138h-1.05
	v-6.762h1.05V333.138z M373.365,332.284c-0.606,0.682-1.414,1.021-2.422,1.021s-1.82-0.34-2.437-1.021
	c-0.606-0.681-0.91-1.526-0.91-2.534s0.304-1.848,0.91-2.52c0.616-0.682,1.429-1.022,2.437-1.022s1.815,0.341,2.422,1.022
	c0.615,0.672,0.924,1.512,0.924,2.52S373.98,331.604,373.365,332.284z M369.291,331.612c0.411,0.504,0.962,0.756,1.652,0.756
	s1.236-0.252,1.638-0.756c0.401-0.514,0.603-1.134,0.603-1.862s-0.201-1.344-0.603-1.848s-0.947-0.756-1.638-0.756
	s-1.241,0.257-1.652,0.77c-0.4,0.504-0.602,1.116-0.602,1.834C368.689,330.479,368.891,331.099,369.291,331.612z M377.051,333.138
	h-1.05V323.8h1.05V333.138z M384.521,332.284c-0.606,0.682-1.414,1.021-2.422,1.021s-1.819-0.34-2.436-1.021
	c-0.607-0.681-0.91-1.526-0.91-2.534s0.303-1.848,0.91-2.52c0.616-0.682,1.428-1.022,2.436-1.022s1.815,0.341,2.422,1.022
	c0.616,0.672,0.925,1.512,0.925,2.52S385.138,331.604,384.521,332.284z M380.448,331.612c0.409,0.504,0.961,0.756,1.651,0.756
	s1.236-0.252,1.639-0.756c0.4-0.514,0.602-1.134,0.602-1.862s-0.201-1.344-0.602-1.848c-0.402-0.504-0.948-0.756-1.639-0.756
	s-1.242,0.257-1.651,0.77c-0.402,0.504-0.603,1.116-0.603,1.834C379.846,330.479,380.046,331.099,380.448,331.612z M389.873,335.882
	c-0.598,0-1.105-0.074-1.526-0.224c-0.42-0.141-0.821-0.401-1.204-0.784l0.532-0.784c0.515,0.616,1.246,0.924,2.198,0.924
	c0.626,0,1.145-0.168,1.554-0.504c0.411-0.326,0.616-0.835,0.616-1.525v-0.967c-0.252,0.355-0.578,0.645-0.98,0.868
	c-0.4,0.225-0.83,0.336-1.287,0.336c-0.896,0-1.625-0.312-2.185-0.938c-0.55-0.634-0.825-1.488-0.825-2.563
	c0-1.072,0.275-1.927,0.825-2.562c0.56-0.634,1.288-0.952,2.185-0.952c0.924,0,1.68,0.397,2.268,1.19v-1.022h1.05v6.566
	c0,1.036-0.303,1.782-0.909,2.239C391.577,335.649,390.807,335.882,389.873,335.882z M390.027,332.298
	c0.401,0,0.789-0.106,1.162-0.322c0.383-0.214,0.668-0.476,0.854-0.783v-2.954c-0.186-0.309-0.466-0.564-0.84-0.771
	c-0.373-0.214-0.766-0.321-1.176-0.321c-0.672,0-1.204,0.237-1.596,0.714c-0.383,0.476-0.574,1.097-0.574,1.861
	c0,0.757,0.195,1.377,0.588,1.862C388.837,332.06,389.365,332.298,390.027,332.298z M394.818,335.784l0.168-0.952
	c0.168,0.075,0.359,0.112,0.574,0.112c0.242,0,0.443-0.052,0.602-0.154c0.159-0.103,0.294-0.289,0.406-0.56l0.447-1.022
	l-2.828-6.832h1.135l2.254,5.544l2.24-5.544h1.147l-3.388,8.134c-0.373,0.896-1.036,1.354-1.988,1.372
	C395.309,335.882,395.052,335.85,394.818,335.784z"/>
<path fill="#03A9F4" d="M358,240.816c0-2.209,1.791-4,4-4h12c2.209,0,4,1.791,4,4v65.746h-20V240.816z"/>
<path fill="#3F51B5" d="M378,200.75c0-2.209,1.791-4,4-4h12c2.209,0,4,1.791,4,4v105.813h-20V200.75z"/>
<path opacity="0.4" fill="#000014" enable-background="new    " d="M445.261,333.139h-1.162v-4.283h-5.46v4.283h-1.162v-9.338h1.162
	v4.019h5.46v-4.019h1.162V333.139z M447.92,325.411c-0.187,0-0.35-0.066-0.49-0.196c-0.14-0.14-0.21-0.308-0.21-0.504
	s0.07-0.364,0.21-0.504c0.141-0.14,0.304-0.21,0.49-0.21c0.196,0,0.364,0.07,0.504,0.21c0.141,0.14,0.21,0.308,0.21,0.504
	s-0.069,0.364-0.21,0.504C448.284,325.345,448.116,325.411,447.92,325.411z M448.452,333.139h-1.05v-6.762h1.05V333.139z
	 M452.688,333.307c-1.147,0-2.058-0.354-2.729-1.063l0.546-0.756c0.233,0.27,0.551,0.499,0.952,0.686
	c0.411,0.187,0.835,0.28,1.274,0.28c0.504,0,0.896-0.108,1.176-0.322c0.279-0.215,0.42-0.495,0.42-0.84
	c0-0.299-0.146-0.532-0.435-0.7c-0.288-0.178-0.639-0.308-1.05-0.392c-0.4-0.094-0.807-0.196-1.218-0.309
	c-0.411-0.121-0.761-0.321-1.05-0.602c-0.289-0.29-0.435-0.668-0.435-1.134c0-0.552,0.225-1.014,0.673-1.386
	c0.457-0.375,1.072-0.561,1.848-0.561c1.017,0,1.853,0.326,2.506,0.98l-0.49,0.728c-0.476-0.57-1.147-0.854-2.016-0.854
	c-0.457,0-0.821,0.103-1.092,0.309c-0.271,0.196-0.406,0.448-0.406,0.756c0,0.27,0.145,0.485,0.434,0.645
	c0.289,0.148,0.635,0.27,1.036,0.363c0.411,0.084,0.821,0.187,1.232,0.309c0.411,0.121,0.761,0.336,1.05,0.644
	c0.289,0.298,0.434,0.69,0.434,1.176c0,0.598-0.232,1.087-0.699,1.471C454.181,333.115,453.528,333.307,452.688,333.307z
	 M458.762,333.307c-0.495,0-0.867-0.136-1.12-0.405c-0.252-0.271-0.378-0.663-0.378-1.177v-4.424h-1.119v-0.924h1.119v-1.848h1.051
	v1.848h1.371v0.924h-1.371v4.2c0,0.261,0.056,0.471,0.168,0.63c0.121,0.158,0.294,0.238,0.518,0.238c0.308,0,0.546-0.094,0.714-0.28
	l0.308,0.784C459.714,333.162,459.294,333.307,458.762,333.307z M466.545,332.285c-0.607,0.681-1.414,1.021-2.422,1.021
	s-1.82-0.341-2.436-1.021c-0.607-0.682-0.91-1.526-0.91-2.534s0.303-1.848,0.91-2.521c0.615-0.682,1.428-1.021,2.436-1.021
	s1.814,0.34,2.422,1.021c0.616,0.673,0.924,1.513,0.924,2.521S467.161,331.604,466.545,332.285z M462.471,331.613
	c0.411,0.504,0.961,0.756,1.652,0.756s1.237-0.252,1.638-0.756c0.401-0.515,0.603-1.135,0.603-1.862s-0.201-1.344-0.603-1.848
	c-0.4-0.504-0.946-0.757-1.638-0.757s-1.241,0.257-1.652,0.771c-0.4,0.504-0.602,1.115-0.602,1.834
	C461.869,330.479,462.07,331.099,462.471,331.613z M470.23,333.139h-1.05v-6.762h1.05v1.092c0.625-0.822,1.378-1.231,2.255-1.231
	v1.078c-0.132-0.028-0.271-0.042-0.421-0.042c-0.316,0-0.662,0.111-1.035,0.336c-0.373,0.224-0.64,0.471-0.799,0.741V333.139z
	 M473.424,335.785l0.168-0.952c0.168,0.074,0.359,0.112,0.574,0.112c0.243,0,0.443-0.053,0.602-0.154
	c0.159-0.104,0.295-0.29,0.406-0.561l0.448-1.021l-2.828-6.832h1.134l2.254,5.544l2.24-5.544h1.148l-3.389,8.134
	c-0.373,0.896-1.035,1.354-1.987,1.372C473.914,335.883,473.657,335.85,473.424,335.785z"/>
<path fill="#03A9F4" d="M438,240.816c0-2.209,1.791-4,4-4h12c2.209,0,4,1.791,4,4v65.746h-20V240.816z"/>
<path fill="#3F51B5" d="M458,200.75c0-2.209,1.791-4,4-4h12c2.209,0,4,1.791,4,4v105.813h-20V200.75z"/>
<path opacity="0.4" fill="#000014" enable-background="new    " d="M263.2,333.306c-1.363,0-2.506-0.447-3.43-1.344
	c-0.915-0.905-1.372-2.067-1.372-3.486s0.457-2.575,1.372-3.472c0.924-0.905,2.067-1.357,3.43-1.357
	c1.493,0,2.674,0.615,3.542,1.848l-0.98,0.546c-0.271-0.401-0.635-0.728-1.092-0.98c-0.458-0.252-0.948-0.378-1.47-0.378
	c-1.027,0-1.886,0.359-2.576,1.078c-0.682,0.709-1.022,1.615-1.022,2.716c0,1.102,0.34,2.012,1.022,2.73
	c0.69,0.709,1.549,1.063,2.576,1.063c0.521,0,1.012-0.12,1.47-0.363c0.457-0.252,0.821-0.583,1.092-0.994l0.994,0.546
	C265.85,332.69,264.665,333.306,263.2,333.306z M273.823,333.138h-1.05v-4.452c0-0.56-0.131-0.957-0.392-1.189
	c-0.262-0.233-0.64-0.35-1.134-0.35c-0.383,0-0.761,0.103-1.134,0.308c-0.364,0.205-0.654,0.453-0.868,0.742v4.941h-1.05V323.8h1.05
	v3.556c0.261-0.308,0.611-0.573,1.05-0.798c0.438-0.232,0.896-0.35,1.372-0.35c1.437,0,2.156,0.719,2.156,2.156V333.138z
	 M278.971,333.306c-1.008,0-1.834-0.327-2.478-0.979c-0.644-0.663-0.966-1.521-0.966-2.576c0-0.989,0.317-1.825,0.952-2.506
	c0.635-0.691,1.428-1.036,2.38-1.036c0.999,0,1.787,0.345,2.366,1.036c0.588,0.681,0.882,1.545,0.882,2.59v0.266h-5.474
	c0.047,0.663,0.289,1.219,0.728,1.666c0.439,0.448,1.008,0.672,1.708,0.672c0.84,0,1.535-0.284,2.086-0.854l0.504,0.686
	C280.968,332.961,280.072,333.306,278.971,333.306z M281.071,329.33c-0.009-0.579-0.205-1.097-0.588-1.554
	c-0.383-0.468-0.929-0.7-1.638-0.7c-0.672,0-1.204,0.229-1.596,0.686c-0.383,0.457-0.588,0.98-0.616,1.568H281.071z M293.02,333.138
	h-1.05v-4.592c0-0.933-0.416-1.399-1.246-1.399c-0.336,0-0.672,0.103-1.008,0.308s-0.598,0.448-0.784,0.728v4.956h-1.05v-4.592
	c0-0.933-0.416-1.399-1.246-1.399c-0.327,0-0.658,0.103-0.994,0.308c-0.327,0.205-0.588,0.453-0.784,0.742v4.941h-1.05v-6.762h1.05
	v0.979c0.168-0.261,0.462-0.518,0.882-0.77s0.854-0.378,1.302-0.378c0.494,0,0.896,0.117,1.204,0.35
	c0.308,0.233,0.513,0.537,0.616,0.91c0.205-0.336,0.518-0.63,0.938-0.882s0.863-0.378,1.33-0.378c1.26,0,1.89,0.681,1.89,2.044
	V333.138z M295.632,325.41c-0.186,0-0.35-0.065-0.49-0.196c-0.14-0.14-0.21-0.308-0.21-0.504s0.07-0.364,0.21-0.504
	s0.304-0.21,0.49-0.21c0.196,0,0.364,0.07,0.504,0.21c0.14,0.14,0.21,0.308,0.21,0.504s-0.07,0.364-0.21,0.504
	C295.996,325.345,295.828,325.41,295.632,325.41z M296.164,333.138h-1.05v-6.762h1.05V333.138z M300.401,333.306
	c-1.148,0-2.058-0.354-2.73-1.063l0.546-0.756c0.233,0.271,0.551,0.499,0.952,0.686c0.411,0.188,0.835,0.28,1.274,0.28
	c0.504,0,0.896-0.107,1.176-0.322c0.28-0.215,0.42-0.495,0.42-0.84c0-0.299-0.145-0.532-0.434-0.7
	c-0.289-0.177-0.639-0.308-1.05-0.392c-0.4-0.093-0.807-0.196-1.218-0.309c-0.411-0.12-0.761-0.321-1.05-0.602
	c-0.289-0.289-0.434-0.667-0.434-1.134c0-0.551,0.224-1.014,0.672-1.387c0.457-0.373,1.073-0.56,1.848-0.56
	c1.017,0,1.853,0.327,2.506,0.979l-0.49,0.729c-0.476-0.569-1.148-0.854-2.016-0.854c-0.457,0-0.821,0.103-1.092,0.308
	c-0.271,0.196-0.406,0.448-0.406,0.756c0,0.271,0.145,0.485,0.434,0.644c0.289,0.149,0.635,0.271,1.036,0.364
	c0.411,0.084,0.821,0.188,1.232,0.309c0.411,0.12,0.761,0.336,1.05,0.644c0.289,0.299,0.434,0.691,0.434,1.176
	c0,0.598-0.233,1.087-0.7,1.471C301.894,333.115,301.241,333.306,300.401,333.306z M306.475,333.306
	c-0.495,0-0.868-0.135-1.12-0.405c-0.252-0.271-0.378-0.663-0.378-1.177V327.3h-1.12v-0.924h1.12v-1.848h1.05v1.848h1.372v0.924
	h-1.372v4.2c0,0.261,0.056,0.471,0.168,0.63c0.121,0.159,0.294,0.238,0.518,0.238c0.308,0,0.546-0.093,0.714-0.28l0.308,0.784
	C307.427,333.161,307.007,333.306,306.475,333.306z M309.932,333.138h-1.05v-6.762h1.05v1.092c0.625-0.821,1.377-1.231,2.254-1.231
	v1.078c-0.131-0.028-0.271-0.043-0.42-0.043c-0.316,0-0.662,0.112-1.035,0.337c-0.373,0.224-0.64,0.471-0.799,0.741V333.138z
	 M313.125,335.784l0.168-0.952c0.168,0.075,0.359,0.112,0.574,0.112c0.242,0,0.443-0.052,0.602-0.154
	c0.159-0.103,0.294-0.289,0.406-0.56l0.448-1.022l-2.828-6.832h1.134l2.254,5.544l2.24-5.544h1.148l-3.389,8.134
	c-0.373,0.896-1.036,1.354-1.988,1.372C313.615,335.882,313.357,335.849,313.125,335.784z"/>
<path fill="#03A9F4" d="M268,200.906c0-2.209,1.791-4,4-4h12c2.209,0,4,1.791,4,4V306.41h-20V200.906z"/>
<path fill="#3F51B5" d="M288,138c0-2.209,1.791-4,4-4h12c2.209,0,4,1.791,4,4v168.41h-20V138z"/>
</svg>
