<?xml version="1.0" encoding="utf-8"?>
<!-- Generator: Adobe Illustrator 16.0.0, SVG Export Plug-In . SVG Version: 6.00 Build 0)  -->
<!DOCTYPE svg PUBLIC "-//W3C//DTD SVG 1.1//EN" "http://www.w3.org/Graphics/SVG/1.1/DTD/svg11.dtd">
<svg version="1.1" id="Layer_1" xmlns="http://www.w3.org/2000/svg" xmlns:xlink="http://www.w3.org/1999/xlink" x="0px" y="0px"
	 width="431px" height="252px" viewBox="128.5 88 431 252" enable-background="new 128.5 88 431 252" xml:space="preserve">
<path fill="none" stroke="#8BC34A" stroke-width="2" stroke-linecap="round" stroke-linejoin="round" d="M136,185.289
	c7.288-5.556,14.585-13.162,26.335-8.1c31.343,13.503,24.493,46.956,76.143,39.301c18.092-2.682,30.344-30.235,37.917-41.778
	c4.834-7.37,5.708-13.778,13.129-5.859c7.613,8.124,26.904-17.241,37.66-19.228c11.595-2.143,32.787,0.316,41.166,7.589
	c6.742,5.853,7.338,18.609,20.067,17.301c13.445-1.382,20.755-11.578,29.327-18.52c5.632-4.561,15.291-5.579,21.976-9.378
	c6.871-3.904,9.485-3.468,14.032,1.494c13.993,15.271,17.977,29.998,27.806,46.182c12.475,20.538,37.553,8.459,50.479-3.696
	c5.972-5.616,11.976-10.148,19.964-13.801"/>
<linearGradient id="SVGID_1_" gradientUnits="userSpaceOnUse" x1="-460" y1="620" x2="-460" y2="487" gradientTransform="matrix(1 0 0 -1 804 764)">
	<stop  offset="0" style="stop-color:#8BC34A"/>
	<stop  offset="1" style="stop-color:#8BC34A;stop-opacity:0"/>
</linearGradient>
<path fill="url(#SVGID_1_)" fill-opacity="0.12" d="M162.335,177.189c-11.75-5.062-19.047,2.544-26.335,8.1V277h416V176.796
	c-7.988,3.653-13.992,8.185-19.964,13.801c-12.926,12.155-38.004,24.234-50.479,3.696c-9.829-16.184-13.813-30.911-27.806-46.182
	c-4.547-4.962-7.161-5.398-14.032-1.494c-6.685,3.799-16.344,4.817-21.976,9.378c-8.572,6.942-15.882,17.138-29.327,18.52
	c-12.729,1.308-13.325-11.448-20.067-17.301c-8.379-7.273-29.571-9.732-41.166-7.589c-10.756,1.987-30.047,27.352-37.66,19.228
	c-7.421-7.919-8.295-1.511-13.129,5.859c-7.573,11.543-19.825,39.096-37.917,41.778
	C186.828,224.145,193.678,190.692,162.335,177.189z"/>
<linearGradient id="SVGID_2_" gradientUnits="userSpaceOnUse" x1="-668" y1="553.5" x2="-603.423" y2="553.5" gradientTransform="matrix(1 0 0 -1 804 764)">
	<stop  offset="0" style="stop-color:#FFFFFF"/>
	<stop  offset="1" style="stop-color:#FFFFFF;stop-opacity:0"/>
</linearGradient>
<path fill="url(#SVGID_2_)" d="M162.335,177.189c-11.75-5.062-19.047,2.544-26.335,8.1V277h416V176.796
	c-7.988,3.653-13.992,8.185-19.964,13.801c-12.926,12.155-38.004,24.234-50.479,3.696c-9.829-16.184-13.813-30.911-27.806-46.182
	c-4.547-4.962-7.161-5.398-14.032-1.494c-6.685,3.799-16.344,4.817-21.976,9.378c-8.572,6.942-15.882,17.138-29.327,18.52
	c-12.729,1.308-13.325-11.448-20.067-17.301c-8.379-7.273-29.571-9.732-41.166-7.589c-10.756,1.987-30.047,27.352-37.66,19.228
	c-7.421-7.919-8.295-1.511-13.129,5.859c-7.573,11.543-19.825,39.096-37.917,41.778
	C186.828,224.145,193.678,190.692,162.335,177.189z"/>
<linearGradient id="SVGID_3_" gradientUnits="userSpaceOnUse" x1="-252.001" y1="553.501" x2="-303.275" y2="553.501" gradientTransform="matrix(1 0 0 -1 804 764)">
	<stop  offset="0" style="stop-color:#FFFFFF"/>
	<stop  offset="1" style="stop-color:#FFFFFF;stop-opacity:0"/>
</linearGradient>
<path fill="url(#SVGID_3_)" d="M162.335,177.189c-11.75-5.062-19.047,2.544-26.335,8.1V277h416V176.796
	c-7.988,3.653-13.992,8.185-19.964,13.801c-12.926,12.155-38.004,24.234-50.479,3.696c-9.829-16.184-13.813-30.911-27.806-46.182
	c-4.547-4.962-7.161-5.398-14.032-1.494c-6.685,3.799-16.344,4.817-21.976,9.378c-8.572,6.942-15.882,17.138-29.327,18.52
	c-12.729,1.308-13.325-11.448-20.067-17.301c-8.379-7.273-29.571-9.732-41.166-7.589c-10.756,1.987-30.047,27.352-37.66,19.228
	c-7.421-7.919-8.295-1.511-13.129,5.859c-7.573,11.543-19.825,39.096-37.917,41.778
	C186.828,224.145,193.678,190.692,162.335,177.189z"/>
<path opacity="0.24" fill="none" stroke="#8BC34A" stroke-linecap="round" stroke-linejoin="round" enable-background="new    " d="
	M552,162.928c-44.38,8.874-53.942,77.276-102.479,70.266c-18.092-2.612-30.344-29.461-37.916-40.71
	c-4.834-7.181-5.709-13.425-13.129-5.708c-7.613,7.916-26.904-16.8-37.66-18.737c-11.595-2.087-32.787,0.308-41.166,7.395
	c-6.743,5.704-7.339,18.134-20.068,16.859c-13.445-1.347-20.755-11.282-29.327-18.047c-5.632-4.444-15.291-5.436-21.976-9.138
	c-6.871-3.804-9.486-3.379-14.032,1.456c-13.993,14.881-17.976,29.231-27.806,45.002c-18.567,29.786-51.223,16.499-70.442,7.934"/>
<path fill="#000014" d="M340.031,307.168c-0.793,0-1.498-0.14-2.114-0.42c-0.606-0.28-1.078-0.645-1.414-1.092l0.882-1.078
	c0.299,0.345,0.682,0.621,1.148,0.826s0.947,0.308,1.441,0.308c0.607,0,1.084-0.126,1.429-0.378c0.345-0.261,0.518-0.611,0.518-1.05
	c0-0.877-0.69-1.316-2.071-1.316c-0.625,0-0.985,0.005-1.078,0.015v-1.471c0.111,0.01,0.471,0.014,1.078,0.014
	c0.578,0,1.041-0.103,1.385-0.308c0.355-0.204,0.533-0.513,0.533-0.924c0-0.42-0.178-0.742-0.533-0.966
	c-0.354-0.233-0.807-0.35-1.357-0.35c-0.915,0-1.717,0.345-2.408,1.035l-0.84-1.021c0.831-0.98,1.965-1.471,3.402-1.471
	c1.017,0,1.834,0.229,2.449,0.687c0.616,0.448,0.925,1.06,0.925,1.834c0,0.579-0.205,1.06-0.616,1.442
	c-0.401,0.373-0.873,0.606-1.414,0.699c0.532,0.047,1.027,0.271,1.484,0.672c0.457,0.401,0.686,0.934,0.686,1.597
	c0,0.803-0.322,1.456-0.966,1.96C341.943,306.916,341.095,307.168,340.031,307.168z M350.198,306.748
	c-0.495,0.28-1.056,0.42-1.681,0.42s-1.185-0.14-1.68-0.42s-0.887-0.653-1.176-1.12s-0.509-0.979-0.658-1.54
	c-0.148-0.561-0.224-1.143-0.224-1.75s0.075-1.189,0.224-1.75c0.149-0.561,0.369-1.068,0.658-1.525
	c0.289-0.468,0.681-0.84,1.176-1.121c0.495-0.279,1.055-0.42,1.68-0.42s1.186,0.141,1.681,0.42c0.495,0.281,0.887,0.653,1.176,1.121
	c0.289,0.457,0.509,0.965,0.658,1.525s0.224,1.143,0.224,1.75s-0.074,1.189-0.224,1.75s-0.369,1.073-0.658,1.54
	S350.693,306.468,350.198,306.748z M346.95,304.76c0.336,0.635,0.858,0.952,1.567,0.952s1.232-0.317,1.568-0.952
	s0.504-1.441,0.504-2.422c0-0.625-0.064-1.181-0.195-1.666c-0.121-0.484-0.346-0.887-0.673-1.204
	c-0.316-0.327-0.719-0.489-1.204-0.489c-0.484,0-0.891,0.162-1.218,0.489c-0.317,0.317-0.541,0.72-0.672,1.204
	c-0.121,0.485-0.182,1.041-0.182,1.666C346.446,303.318,346.614,304.125,346.95,304.76z M337.977,327h-1.639v-7.896h-2.828v-1.441
	h7.294v1.441h-2.827V327z M347.132,327h-1.47v-0.896c-0.635,0.709-1.434,1.064-2.395,1.064c-1.446,0-2.17-0.714-2.17-2.142v-4.788
	h1.471v4.256c0,0.495,0.115,0.849,0.35,1.063c0.232,0.205,0.569,0.309,1.008,0.309c0.354,0,0.687-0.084,0.994-0.252
	c0.309-0.168,0.555-0.378,0.742-0.63v-4.746h1.47V327z M352.163,327.168c-1.027,0-1.876-0.327-2.548-0.98
	c-0.663-0.662-0.994-1.521-0.994-2.575c0-0.989,0.322-1.825,0.966-2.507c0.653-0.69,1.476-1.035,2.464-1.035
	c0.999,0,1.801,0.345,2.408,1.035c0.616,0.691,0.924,1.573,0.924,2.646v0.35h-5.222c0.056,0.532,0.274,0.976,0.657,1.33
	c0.384,0.355,0.883,0.532,1.498,0.532c0.346,0,0.691-0.064,1.037-0.196c0.354-0.131,0.648-0.313,0.881-0.546l0.673,0.966
	C354.227,326.841,353.311,327.168,352.163,327.168z M353.955,323.066c-0.02-0.468-0.191-0.883-0.518-1.246
	c-0.317-0.364-0.779-0.546-1.387-0.546c-0.579,0-1.031,0.182-1.357,0.546c-0.327,0.354-0.51,0.77-0.547,1.246H353.955z"/>
<path opacity="0.4" fill="#000014" enable-background="new    " d="M244.917,307h-6.412v-0.924c0.971-0.766,1.722-1.372,2.254-1.82
	c0.541-0.457,1.059-0.938,1.554-1.441c0.504-0.514,0.859-0.967,1.064-1.358c0.205-0.401,0.308-0.798,0.308-1.19
	c0-0.56-0.191-0.984-0.574-1.273c-0.383-0.289-0.84-0.434-1.372-0.434c-1.073,0-1.918,0.392-2.534,1.176l-0.714-0.742
	c0.354-0.467,0.817-0.826,1.386-1.078c0.579-0.262,1.199-0.393,1.862-0.393c0.849,0,1.582,0.238,2.198,0.715
	c0.625,0.476,0.938,1.152,0.938,2.029c0,0.868-0.373,1.736-1.12,2.604c-0.747,0.858-1.885,1.89-3.416,3.094h4.578V307z
	 M249.745,307.154c-1.073,0-1.936-0.373-2.59-1.12l0.588-0.868c0.542,0.635,1.209,0.952,2.002,0.952c0.598,0,1.102-0.187,1.512-0.56
	c0.411-0.373,0.7-0.826,0.868-1.358s0.252-1.111,0.252-1.736c0-0.168-0.004-0.294-0.014-0.378c-0.233,0.373-0.592,0.709-1.078,1.008
	c-0.485,0.299-1.003,0.448-1.554,0.448c-0.886,0-1.619-0.257-2.198-0.771c-0.578-0.522-0.868-1.26-0.868-2.211
	c0-0.841,0.299-1.56,0.896-2.156c0.598-0.598,1.386-0.896,2.366-0.896c0.635,0,1.19,0.131,1.666,0.393
	c0.476,0.261,0.85,0.621,1.12,1.078c0.28,0.457,0.486,0.965,0.616,1.525c0.14,0.561,0.21,1.171,0.21,1.834
	c0,0.877-0.13,1.671-0.392,2.38c-0.261,0.7-0.686,1.283-1.274,1.75C251.295,306.925,250.585,307.154,249.745,307.154z
	 M249.997,302.534c0.458,0,0.896-0.126,1.316-0.378c0.43-0.252,0.766-0.588,1.008-1.008c-0.056-0.691-0.275-1.297-0.658-1.82
	c-0.382-0.523-0.942-0.784-1.68-0.784c-0.662,0-1.185,0.205-1.568,0.616c-0.382,0.411-0.574,0.863-0.574,1.357
	c0,0.653,0.201,1.153,0.602,1.498C248.845,302.361,249.363,302.534,249.997,302.534z M242.713,327h-1.162v-7.686L238.373,327h-0.476
	l-3.164-7.686V327h-1.162v-9.338h1.666l2.897,7.028l2.912-7.028h1.666V327z M250.225,326.146c-0.607,0.681-1.414,1.021-2.422,1.021
	c-1.008,0-1.82-0.341-2.436-1.021c-0.607-0.682-0.91-1.526-0.91-2.534c0-1.009,0.303-1.849,0.91-2.521
	c0.616-0.681,1.428-1.021,2.436-1.021c1.008,0,1.815,0.341,2.422,1.021c0.616,0.672,0.924,1.512,0.924,2.521
	C251.149,324.62,250.841,325.465,250.225,326.146z M246.151,325.474c0.41,0.505,0.961,0.757,1.652,0.757s1.236-0.252,1.638-0.757
	c0.401-0.513,0.602-1.134,0.602-1.861c0-0.729-0.201-1.345-0.602-1.849c-0.402-0.504-0.948-0.756-1.638-0.756
	s-1.242,0.257-1.652,0.771c-0.402,0.504-0.602,1.114-0.602,1.834C245.549,324.34,245.749,324.961,246.151,325.474z M258.475,327
	h-1.05v-4.424c0-0.569-0.131-0.971-0.392-1.204c-0.262-0.243-0.635-0.364-1.12-0.364c-0.392,0-0.775,0.104-1.148,0.309
	c-0.364,0.205-0.649,0.453-0.854,0.741V327h-1.05v-6.762h1.05v0.979c0.261-0.308,0.611-0.573,1.05-0.798
	c0.438-0.232,0.891-0.35,1.358-0.35c1.437,0,2.156,0.728,2.156,2.184V327z"/>
<path opacity="0.4" fill="#000014" enable-background="new    " d="M536.883,307.168c-0.615,0-1.162-0.14-1.638-0.42
	c-0.467-0.289-0.84-0.672-1.12-1.148c-0.271-0.476-0.477-0.988-0.616-1.539c-0.131-0.552-0.196-1.125-0.196-1.723
	c0-0.597,0.065-1.171,0.196-1.722c0.14-0.552,0.345-1.06,0.616-1.526c0.28-0.476,0.653-0.854,1.12-1.134
	c0.476-0.289,1.022-0.435,1.638-0.435c0.606,0,1.148,0.146,1.624,0.435c0.476,0.28,0.849,0.658,1.12,1.134
	c0.28,0.467,0.485,0.975,0.616,1.526c0.14,0.551,0.21,1.125,0.21,1.722c0,0.598-0.07,1.171-0.21,1.723
	c-0.131,0.551-0.336,1.063-0.616,1.539c-0.271,0.477-0.645,0.859-1.12,1.148C538.031,307.028,537.489,307.168,536.883,307.168z
	 M535.482,305.559c0.373,0.383,0.841,0.573,1.4,0.573c0.561,0,1.026-0.19,1.4-0.573c0.373-0.393,0.63-0.859,0.77-1.4
	c0.141-0.541,0.21-1.148,0.21-1.82s-0.069-1.279-0.21-1.82c-0.14-0.541-0.396-1.002-0.77-1.386c-0.374-0.383-0.84-0.573-1.4-0.573
	c-0.56,0-1.027,0.19-1.4,0.573c-0.373,0.384-0.629,0.845-0.77,1.386c-0.14,0.541-0.21,1.148-0.21,1.82s0.07,1.279,0.21,1.82
	C534.854,304.699,535.109,305.166,535.482,305.559z M548.339,307h-6.412v-0.924c0.972-0.766,1.722-1.372,2.254-1.82
	c0.541-0.457,1.06-0.938,1.555-1.441c0.504-0.514,0.858-0.967,1.063-1.358c0.205-0.401,0.309-0.798,0.309-1.19
	c0-0.56-0.191-0.984-0.574-1.273s-0.84-0.434-1.372-0.434c-1.073,0-1.918,0.392-2.534,1.176l-0.714-0.742
	c0.354-0.467,0.817-0.826,1.386-1.078c0.579-0.262,1.199-0.393,1.862-0.393c0.849,0,1.582,0.238,2.198,0.715
	c0.625,0.476,0.938,1.152,0.938,2.029c0,0.868-0.373,1.736-1.12,2.604c-0.747,0.858-1.885,1.89-3.416,3.094h4.578V307z M533.854,327
	h-1.161v-8.302h-2.954v-1.036h7.084v1.036h-2.969V327z M543.952,327h-1.05v-4.452c0-0.56-0.131-0.957-0.393-1.189
	c-0.261-0.233-0.639-0.351-1.134-0.351c-0.382,0-0.76,0.104-1.134,0.309c-0.364,0.205-0.653,0.453-0.868,0.741V327h-1.05v-9.338
	h1.05v3.556c0.262-0.308,0.612-0.573,1.05-0.798c0.439-0.232,0.896-0.35,1.372-0.35c1.438,0,2.156,0.719,2.156,2.155V327z
	 M551.663,327h-1.05v-0.952c-0.28,0.317-0.635,0.583-1.064,0.798c-0.42,0.215-0.868,0.322-1.344,0.322
	c-1.438,0-2.156-0.719-2.156-2.156v-4.773h1.05v4.452c0,0.56,0.126,0.956,0.378,1.189c0.262,0.233,0.64,0.351,1.135,0.351
	c0.392,0,0.77-0.099,1.134-0.295c0.373-0.195,0.663-0.438,0.868-0.728v-4.97h1.05V327z"/>
<path opacity="0.4" fill="#000014" enable-background="new    " d="M146.985,307h-6.412v-0.924c0.971-0.766,1.722-1.372,2.254-1.82
	c0.542-0.457,1.06-0.938,1.554-1.441c0.504-0.514,0.859-0.967,1.064-1.358c0.206-0.401,0.308-0.798,0.308-1.19
	c0-0.56-0.191-0.984-0.574-1.273c-0.382-0.289-0.84-0.434-1.372-0.434c-1.073,0-1.918,0.392-2.534,1.176l-0.714-0.742
	c0.355-0.467,0.817-0.826,1.386-1.078c0.579-0.262,1.2-0.393,1.862-0.393c0.85,0,1.582,0.238,2.198,0.715
	c0.626,0.476,0.938,1.152,0.938,2.029c0,0.868-0.373,1.736-1.12,2.604c-0.746,0.858-1.885,1.89-3.416,3.094h4.578V307z
	 M154.502,306.482c-0.635,0.457-1.428,0.686-2.38,0.686s-1.75-0.229-2.394-0.686c-0.635-0.457-0.952-1.073-0.952-1.849
	c0-0.588,0.21-1.097,0.63-1.526c0.429-0.429,0.961-0.736,1.596-0.924c-0.597-0.168-1.092-0.438-1.484-0.812
	c-0.392-0.383-0.588-0.858-0.588-1.429c0-0.783,0.317-1.381,0.952-1.791c0.635-0.42,1.381-0.631,2.24-0.631s1.605,0.211,2.24,0.631
	c0.644,0.41,0.966,1.008,0.966,1.791c0,0.57-0.196,1.046-0.588,1.429c-0.392,0.373-0.891,0.644-1.498,0.812
	c0.635,0.188,1.162,0.495,1.582,0.924c0.429,0.43,0.644,0.938,0.644,1.526C155.468,305.398,155.146,306.015,154.502,306.482z
	 M152.122,301.708c0.187-0.028,0.373-0.075,0.56-0.14c0.196-0.065,0.415-0.154,0.658-0.267c0.243-0.12,0.439-0.284,0.588-0.489
	c0.149-0.215,0.224-0.453,0.224-0.715c0-0.467-0.196-0.84-0.588-1.119c-0.383-0.28-0.863-0.42-1.442-0.42
	c-0.588,0-1.073,0.14-1.456,0.42c-0.383,0.279-0.574,0.652-0.574,1.119c0,0.262,0.075,0.5,0.224,0.715
	c0.149,0.205,0.345,0.369,0.588,0.489c0.243,0.112,0.457,0.201,0.644,0.267C151.744,301.624,151.935,301.671,152.122,301.708z
	 M152.122,306.132c0.597,0,1.106-0.149,1.526-0.448c0.429-0.299,0.644-0.69,0.644-1.176c0-0.373-0.149-0.699-0.448-0.98
	c-0.289-0.288-0.588-0.489-0.896-0.602c-0.299-0.121-0.574-0.195-0.826-0.224c-0.252,0.028-0.532,0.103-0.84,0.224
	c-0.299,0.112-0.597,0.313-0.896,0.602c-0.299,0.281-0.448,0.607-0.448,0.98c0,0.485,0.21,0.877,0.63,1.176
	C150.997,305.982,151.515,306.132,152.122,306.132z M140.303,327.168c-1.512,0-2.706-0.495-3.583-1.484l0.687-0.882
	c0.793,0.888,1.773,1.33,2.94,1.33c0.756,0,1.311-0.159,1.666-0.476c0.354-0.327,0.532-0.705,0.532-1.135
	c0-0.326-0.103-0.602-0.308-0.825c-0.206-0.225-0.472-0.397-0.798-0.519c-0.318-0.131-0.677-0.247-1.078-0.35
	c-0.392-0.104-0.784-0.215-1.176-0.336c-0.392-0.131-0.752-0.285-1.078-0.462c-0.318-0.177-0.579-0.43-0.784-0.756
	c-0.206-0.327-0.308-0.715-0.308-1.162c0-0.766,0.303-1.387,0.91-1.862c0.606-0.485,1.372-0.729,2.296-0.729
	c1.39,0,2.496,0.435,3.318,1.303l-0.7,0.854c-0.682-0.747-1.582-1.12-2.702-1.12c-0.56,0-1.021,0.141-1.386,0.421
	c-0.355,0.271-0.532,0.625-0.532,1.063c0,0.327,0.135,0.597,0.406,0.812c0.28,0.216,0.62,0.373,1.022,0.477
	c0.41,0.103,0.854,0.232,1.33,0.392c0.485,0.149,0.928,0.313,1.33,0.49c0.41,0.168,0.751,0.443,1.022,0.826
	c0.28,0.383,0.42,0.845,0.42,1.386c0,0.766-0.285,1.414-0.854,1.946C142.334,326.902,141.47,327.168,140.303,327.168z M151.055,327
	h-1.05v-0.952c-0.28,0.317-0.635,0.583-1.064,0.798c-0.42,0.215-0.868,0.322-1.344,0.322c-1.438,0-2.156-0.719-2.156-2.156v-4.773
	h1.05v4.452c0,0.56,0.126,0.956,0.378,1.189c0.261,0.233,0.639,0.351,1.134,0.351c0.392,0,0.77-0.099,1.134-0.295
	c0.373-0.195,0.662-0.438,0.868-0.728v-4.97h1.05V327z M158.766,327h-1.05v-4.424c0-0.569-0.131-0.971-0.392-1.204
	c-0.262-0.243-0.635-0.364-1.12-0.364c-0.392,0-0.775,0.104-1.148,0.309c-0.364,0.205-0.649,0.453-0.854,0.741V327h-1.05v-6.762
	h1.05v0.979c0.261-0.308,0.611-0.573,1.05-0.798c0.438-0.232,0.891-0.35,1.358-0.35c1.437,0,2.156,0.728,2.156,2.184V327z"/>
<path opacity="0.4" fill="#000014" enable-background="new    " d="M440.626,307.168c-0.616,0-1.162-0.14-1.638-0.42
	c-0.467-0.289-0.84-0.672-1.12-1.148c-0.271-0.476-0.477-0.988-0.616-1.539c-0.131-0.552-0.196-1.125-0.196-1.723
	c0-0.597,0.065-1.171,0.196-1.722c0.14-0.552,0.345-1.06,0.616-1.526c0.28-0.476,0.653-0.854,1.12-1.134
	c0.476-0.289,1.021-0.435,1.638-0.435c0.606,0,1.147,0.146,1.624,0.435c0.477,0.28,0.849,0.658,1.12,1.134
	c0.28,0.467,0.485,0.975,0.616,1.526c0.14,0.551,0.21,1.125,0.21,1.722c0,0.598-0.07,1.171-0.21,1.723
	c-0.131,0.551-0.336,1.063-0.616,1.539c-0.271,0.477-0.644,0.859-1.12,1.148C441.773,307.028,441.232,307.168,440.626,307.168z
	 M439.227,305.559c0.372,0.383,0.84,0.573,1.399,0.573s1.026-0.19,1.4-0.573c0.372-0.393,0.63-0.859,0.77-1.4s0.21-1.148,0.21-1.82
	s-0.07-1.279-0.21-1.82s-0.397-1.002-0.77-1.386c-0.374-0.383-0.841-0.573-1.4-0.573s-1.027,0.19-1.399,0.573
	c-0.375,0.384-0.631,0.845-0.771,1.386s-0.21,1.148-0.21,1.82s0.07,1.279,0.21,1.82S438.852,305.166,439.227,305.559z M448.568,307
	h-1.162v-7.798l-1.498,1.582l-0.7-0.714l2.338-2.408h1.022V307z M438.622,327h-1.26l-2.059-7.532L433.246,327h-1.26l-2.66-9.338
	h1.288l2.071,7.784l2.143-7.784h0.966l2.142,7.784l2.059-7.784h1.288L438.622,327z M445.031,327.168
	c-1.008,0-1.834-0.327-2.479-0.98c-0.644-0.662-0.966-1.521-0.966-2.575c0-0.989,0.317-1.825,0.952-2.507
	c0.634-0.69,1.428-1.035,2.38-1.035c0.998,0,1.787,0.345,2.366,1.035c0.588,0.682,0.882,1.546,0.882,2.591v0.266h-5.474
	c0.046,0.663,0.289,1.218,0.728,1.666s1.008,0.672,1.708,0.672c0.84,0,1.535-0.285,2.086-0.854l0.504,0.686
	C447.028,326.823,446.132,327.168,445.031,327.168z M447.131,323.192c-0.01-0.579-0.206-1.098-0.588-1.555
	c-0.383-0.467-0.929-0.7-1.638-0.7c-0.672,0-1.204,0.229-1.597,0.687c-0.383,0.457-0.588,0.979-0.615,1.568H447.131z M455.817,327
	h-1.051v-1.008c-0.577,0.784-1.339,1.176-2.281,1.176c-0.896,0-1.624-0.317-2.185-0.952c-0.55-0.644-0.826-1.507-0.826-2.59
	c0-1.073,0.276-1.932,0.826-2.576c0.561-0.653,1.288-0.979,2.185-0.979c0.934,0,1.693,0.396,2.281,1.189v-3.598h1.051V327z
	 M452.737,326.23c0.411,0,0.803-0.104,1.176-0.309c0.374-0.205,0.658-0.457,0.854-0.756V322.1c-0.195-0.308-0.484-0.564-0.868-0.77
	c-0.372-0.215-0.76-0.322-1.161-0.322c-0.662,0-1.19,0.247-1.582,0.742c-0.393,0.485-0.588,1.111-0.588,1.876
	s0.195,1.391,0.588,1.876C451.547,325.987,452.075,326.23,452.737,326.23z"/>
<path opacity="0.08" fill="none" stroke="#000014" enable-background="new    " d="M136,277h416"/>
<linearGradient id="SVGID_4_" gradientUnits="userSpaceOnUse" x1="-454.0005" y1="612" x2="-454.0005" y2="471" gradientTransform="matrix(1 0 0 -1 804 764)">
	<stop  offset="0" style="stop-color:#8BC34A"/>
	<stop  offset="1" style="stop-color:#8BC34A;stop-opacity:0"/>
</linearGradient>
<path fill="none" stroke="url(#SVGID_4_)" stroke-width="2" d="M350,293V152"/>
<circle fill="#FFFFFF" stroke="#8BC34A" stroke-width="4" cx="350" cy="152" r="6"/>
<g>
	<path fill="#FFFFFF" d="M283,108c0-11.046,8.954-20,20-20h94c11.046,0,20,8.954,20,20s-8.954,20-20,20h-28.53
		c-5.793,0-11.399,2.046-15.831,5.778c-1.524,1.284-3.753,1.284-5.277,0C342.93,130.046,337.323,128,331.53,128H303
		C291.954,128,283,119.046,283,108z"/>
</g>
<path fill="#000014" d="M302.805,111.684c0.635,0,1.097-0.107,1.386-0.322c0.289-0.215,0.434-0.518,0.434-0.91
	c0-0.233-0.051-0.434-0.154-0.602c-0.093-0.168-0.232-0.317-0.42-0.448c-0.177-0.14-0.396-0.266-0.658-0.378
	c-0.261-0.121-0.56-0.238-0.896-0.35c-0.336-0.121-0.663-0.252-0.98-0.392c-0.308-0.149-0.583-0.331-0.826-0.546
	c-0.233-0.215-0.425-0.471-0.574-0.77c-0.14-0.299-0.21-0.658-0.21-1.078c0-0.877,0.303-1.563,0.91-2.058
	c0.607-0.504,1.433-0.756,2.478-0.756c0.607,0,1.143,0.07,1.61,0.21c0.476,0.131,0.849,0.275,1.12,0.434l-0.546,1.428
	c-0.317-0.177-0.667-0.313-1.05-0.406c-0.373-0.093-0.761-0.14-1.162-0.14c-0.476,0-0.849,0.098-1.12,0.294
	c-0.261,0.196-0.392,0.471-0.392,0.826c0,0.215,0.042,0.401,0.126,0.561c0.093,0.149,0.219,0.285,0.378,0.406
	c0.168,0.121,0.359,0.233,0.574,0.336c0.224,0.103,0.467,0.201,0.728,0.294c0.457,0.168,0.863,0.341,1.218,0.518
	c0.364,0.168,0.667,0.373,0.91,0.616c0.252,0.233,0.443,0.513,0.574,0.84c0.131,0.317,0.196,0.705,0.196,1.162
	c0,0.877-0.313,1.559-0.938,2.044c-0.616,0.476-1.521,0.714-2.716,0.714c-0.4,0-0.77-0.028-1.105-0.084
	c-0.327-0.047-0.621-0.107-0.882-0.182c-0.252-0.075-0.471-0.149-0.658-0.224c-0.188-0.084-0.336-0.159-0.448-0.224l0.518-1.442
	c0.252,0.14,0.593,0.28,1.022,0.42S302.198,111.684,302.805,111.684z M307.524,109.346c0-0.541,0.084-1.045,0.252-1.512
	c0.168-0.476,0.406-0.887,0.714-1.232c0.317-0.345,0.7-0.616,1.147-0.812c0.448-0.196,0.952-0.294,1.512-0.294
	c0.69,0,1.344,0.126,1.96,0.378l-0.364,1.386c-0.196-0.084-0.42-0.154-0.672-0.21c-0.243-0.056-0.504-0.084-0.784-0.084
	c-0.663,0-1.167,0.21-1.512,0.63c-0.346,0.411-0.519,0.994-0.519,1.75c0,0.728,0.163,1.307,0.49,1.736
	c0.326,0.42,0.877,0.63,1.652,0.63c0.289,0,0.574-0.028,0.854-0.084c0.28-0.056,0.522-0.126,0.728-0.21l0.238,1.4
	c-0.187,0.093-0.472,0.177-0.854,0.252c-0.374,0.075-0.761,0.112-1.162,0.112c-0.626,0-1.172-0.093-1.638-0.28
	c-0.458-0.196-0.84-0.462-1.148-0.798c-0.299-0.345-0.523-0.751-0.672-1.218C307.598,110.41,307.524,109.897,307.524,109.346z
	 M316.241,113h-1.694v-7.322h1.694V113z M316.423,103.536c0,0.317-0.103,0.569-0.308,0.756s-0.448,0.28-0.729,0.28
	c-0.289,0-0.537-0.093-0.742-0.28s-0.308-0.439-0.308-0.756c0-0.327,0.103-0.583,0.308-0.77s0.453-0.28,0.742-0.28
	c0.28,0,0.523,0.093,0.729,0.28S316.423,103.209,316.423,103.536z M317.996,109.374c0-0.644,0.094-1.209,0.28-1.694
	c0.196-0.485,0.453-0.887,0.77-1.204c0.318-0.327,0.682-0.569,1.092-0.728c0.411-0.168,0.831-0.252,1.261-0.252
	c1.008,0,1.791,0.313,2.352,0.938c0.57,0.625,0.854,1.559,0.854,2.8c0,0.093-0.004,0.201-0.014,0.322
	c0,0.112-0.004,0.215-0.014,0.308h-4.83c0.047,0.588,0.252,1.045,0.616,1.372c0.374,0.317,0.909,0.476,1.609,0.476
	c0.411,0,0.784-0.037,1.12-0.112c0.346-0.075,0.616-0.154,0.813-0.238l0.224,1.386c-0.093,0.047-0.224,0.098-0.392,0.154
	c-0.158,0.047-0.346,0.089-0.561,0.126c-0.205,0.047-0.429,0.084-0.672,0.112c-0.242,0.028-0.49,0.042-0.742,0.042
	c-0.644,0-1.203-0.093-1.68-0.28c-0.476-0.196-0.868-0.462-1.176-0.798c-0.308-0.345-0.536-0.747-0.687-1.204
	C318.071,110.433,317.996,109.925,317.996,109.374z M322.91,108.618c0-0.233-0.032-0.453-0.098-0.658
	c-0.065-0.215-0.164-0.397-0.295-0.546c-0.121-0.159-0.274-0.28-0.461-0.364c-0.178-0.093-0.393-0.14-0.645-0.14
	c-0.262,0-0.49,0.051-0.686,0.154c-0.196,0.093-0.364,0.219-0.505,0.378c-0.13,0.159-0.232,0.341-0.308,0.546
	c-0.074,0.205-0.126,0.415-0.154,0.63H322.91z M326.4,105.916c0.326-0.093,0.752-0.182,1.273-0.266
	c0.523-0.084,1.102-0.126,1.736-0.126c0.598,0,1.097,0.084,1.498,0.252c0.402,0.159,0.719,0.387,0.951,0.686
	c0.244,0.289,0.412,0.644,0.505,1.064c0.103,0.411,0.153,0.863,0.153,1.358V113h-1.693v-3.85c0-0.392-0.028-0.723-0.084-0.994
	c-0.047-0.28-0.131-0.504-0.252-0.672c-0.112-0.177-0.271-0.303-0.477-0.378c-0.195-0.084-0.438-0.126-0.728-0.126
	c-0.214,0-0.438,0.014-0.672,0.042s-0.406,0.051-0.519,0.07V113H326.4V105.916z M334.184,109.346c0-0.541,0.084-1.045,0.252-1.512
	c0.168-0.476,0.406-0.887,0.715-1.232c0.316-0.345,0.699-0.616,1.147-0.812c0.448-0.196,0.952-0.294,1.513-0.294
	c0.689,0,1.344,0.126,1.959,0.378l-0.363,1.386c-0.196-0.084-0.42-0.154-0.672-0.21c-0.243-0.056-0.504-0.084-0.784-0.084
	c-0.663,0-1.167,0.21-1.513,0.63c-0.346,0.411-0.518,0.994-0.518,1.75c0,0.728,0.163,1.307,0.49,1.736
	c0.326,0.42,0.877,0.63,1.652,0.63c0.289,0,0.573-0.028,0.854-0.084c0.28-0.056,0.521-0.126,0.729-0.21l0.237,1.4
	c-0.187,0.093-0.472,0.177-0.854,0.252c-0.374,0.075-0.761,0.112-1.162,0.112c-0.626,0-1.173-0.093-1.638-0.28
	c-0.459-0.196-0.841-0.462-1.148-0.798c-0.299-0.345-0.523-0.751-0.672-1.218C334.258,110.41,334.184,109.897,334.184,109.346z
	 M340.787,109.374c0-0.644,0.094-1.209,0.279-1.694c0.196-0.485,0.453-0.887,0.771-1.204c0.318-0.327,0.683-0.569,1.092-0.728
	c0.411-0.168,0.831-0.252,1.261-0.252c1.008,0,1.791,0.313,2.352,0.938c0.57,0.625,0.854,1.559,0.854,2.8
	c0,0.093-0.004,0.201-0.014,0.322c0,0.112-0.004,0.215-0.014,0.308h-4.83c0.047,0.588,0.252,1.045,0.616,1.372
	c0.374,0.317,0.909,0.476,1.609,0.476c0.411,0,0.784-0.037,1.12-0.112c0.346-0.075,0.616-0.154,0.813-0.238l0.224,1.386
	c-0.093,0.047-0.224,0.098-0.392,0.154c-0.158,0.047-0.346,0.089-0.561,0.126c-0.205,0.047-0.429,0.084-0.672,0.112
	c-0.242,0.028-0.49,0.042-0.742,0.042c-0.644,0-1.203-0.093-1.68-0.28c-0.477-0.196-0.868-0.462-1.176-0.798
	c-0.309-0.345-0.536-0.747-0.687-1.204C340.862,110.433,340.787,109.925,340.787,109.374z M345.701,108.618
	c0-0.233-0.032-0.453-0.098-0.658c-0.065-0.215-0.164-0.397-0.295-0.546c-0.121-0.159-0.274-0.28-0.462-0.364
	c-0.177-0.093-0.392-0.14-0.644-0.14c-0.262,0-0.49,0.051-0.686,0.154c-0.196,0.093-0.364,0.219-0.505,0.378
	c-0.13,0.159-0.232,0.341-0.308,0.546c-0.074,0.205-0.126,0.415-0.154,0.63H345.701z M351.095,106.84
	c0,0.327-0.112,0.593-0.336,0.798c-0.214,0.205-0.476,0.308-0.784,0.308c-0.316,0-0.582-0.103-0.798-0.308
	c-0.214-0.205-0.321-0.471-0.321-0.798c0-0.327,0.107-0.593,0.321-0.798c0.216-0.215,0.481-0.322,0.798-0.322
	c0.309,0,0.57,0.107,0.784,0.322C350.982,106.247,351.095,106.513,351.095,106.84z M351.095,112.076
	c0,0.327-0.112,0.593-0.336,0.798c-0.214,0.205-0.476,0.308-0.784,0.308c-0.316,0-0.582-0.103-0.798-0.308
	c-0.214-0.205-0.321-0.471-0.321-0.798c0-0.327,0.107-0.593,0.321-0.798c0.216-0.215,0.481-0.322,0.798-0.322
	c0.309,0,0.57,0.107,0.784,0.322C350.982,111.483,351.095,111.749,351.095,112.076z M360.462,110.228
	c0-0.308-0.062-0.583-0.182-0.826c-0.122-0.243-0.337-0.448-0.645-0.616c-0.299-0.168-0.704-0.294-1.218-0.378
	c-0.504-0.084-1.145-0.126-1.918-0.126c0.102-0.896,0.182-1.745,0.238-2.548c0.056-0.812,0.102-1.624,0.14-2.436h4.956v1.428h-3.514
	c-0.01,0.159-0.024,0.341-0.042,0.546c-0.011,0.196-0.024,0.397-0.042,0.602c-0.01,0.205-0.024,0.401-0.043,0.588
	s-0.037,0.345-0.056,0.476c1.382,0.075,2.398,0.392,3.052,0.952c0.662,0.551,0.994,1.307,0.994,2.268
	c0,0.439-0.074,0.845-0.224,1.218s-0.378,0.695-0.687,0.966c-0.308,0.271-0.695,0.485-1.161,0.644
	c-0.468,0.149-1.013,0.224-1.638,0.224c-0.253,0-0.51-0.019-0.771-0.056c-0.263-0.037-0.515-0.084-0.756-0.14
	c-0.234-0.047-0.444-0.098-0.63-0.154c-0.188-0.056-0.327-0.107-0.42-0.154l0.321-1.428c0.196,0.093,0.477,0.196,0.841,0.308
	c0.373,0.103,0.825,0.154,1.357,0.154c0.364,0,0.676-0.037,0.938-0.112c0.262-0.084,0.472-0.196,0.631-0.336
	c0.168-0.14,0.289-0.299,0.363-0.476C360.424,110.629,360.462,110.433,360.462,110.228z M370.407,108.142
	c0,1.633-0.3,2.889-0.896,3.766c-0.598,0.868-1.424,1.302-2.478,1.302c-1.055,0-1.881-0.434-2.479-1.302
	c-0.598-0.877-0.896-2.133-0.896-3.766c0-0.812,0.073-1.531,0.224-2.156c0.158-0.635,0.383-1.167,0.672-1.596
	c0.299-0.429,0.653-0.756,1.064-0.98c0.42-0.224,0.891-0.336,1.414-0.336c1.054,0,1.88,0.439,2.478,1.316
	C370.107,105.258,370.407,106.509,370.407,108.142z M368.657,108.142c0-0.504-0.028-0.975-0.084-1.414s-0.15-0.817-0.28-1.134
	c-0.122-0.327-0.285-0.583-0.49-0.77c-0.206-0.187-0.462-0.28-0.77-0.28c-0.309,0-0.57,0.093-0.784,0.28
	c-0.206,0.187-0.374,0.443-0.504,0.77c-0.122,0.317-0.21,0.695-0.267,1.134c-0.047,0.439-0.069,0.91-0.069,1.414
	s0.022,0.975,0.069,1.414c0.057,0.439,0.145,0.821,0.267,1.148c0.13,0.317,0.298,0.569,0.504,0.756
	c0.214,0.187,0.476,0.28,0.784,0.28c0.308,0,0.563-0.093,0.77-0.28c0.205-0.187,0.368-0.439,0.49-0.756
	c0.13-0.327,0.225-0.709,0.28-1.148S368.657,108.646,368.657,108.142z M372.372,115.59h-1.736l4.732-13.552h1.708L372.372,115.59z
	 M378.098,105.314c0.541-0.215,1.084-0.49,1.624-0.826c0.552-0.336,1.036-0.733,1.456-1.19h1.19V113h-1.694v-7.434
	c-0.252,0.196-0.568,0.387-0.952,0.574c-0.383,0.187-0.751,0.341-1.105,0.462L378.098,105.314z M392.145,108.142
	c0,1.633-0.299,2.889-0.896,3.766c-0.597,0.868-1.423,1.302-2.478,1.302c-1.056,0-1.881-0.434-2.479-1.302
	c-0.597-0.877-0.896-2.133-0.896-3.766c0-0.812,0.075-1.531,0.225-2.156c0.159-0.635,0.383-1.167,0.672-1.596
	c0.299-0.429,0.653-0.756,1.064-0.98c0.42-0.224,0.891-0.336,1.414-0.336c1.055,0,1.881,0.439,2.478,1.316
	C391.846,105.258,392.145,106.509,392.145,108.142z M390.395,108.142c0-0.504-0.027-0.975-0.084-1.414
	c-0.056-0.439-0.148-0.817-0.279-1.134c-0.121-0.327-0.285-0.583-0.49-0.77c-0.205-0.187-0.462-0.28-0.77-0.28
	c-0.309,0-0.569,0.093-0.784,0.28c-0.205,0.187-0.373,0.443-0.505,0.77c-0.12,0.317-0.209,0.695-0.266,1.134
	c-0.047,0.439-0.07,0.91-0.07,1.414s0.023,0.975,0.07,1.414c0.057,0.439,0.146,0.821,0.266,1.148c0.132,0.317,0.3,0.569,0.505,0.756
	c0.215,0.187,0.476,0.28,0.784,0.28c0.308,0,0.564-0.093,0.77-0.28s0.369-0.439,0.49-0.756c0.131-0.327,0.224-0.709,0.279-1.148
	C390.367,109.117,390.395,108.646,390.395,108.142z M400.102,108.142c0,1.633-0.299,2.889-0.896,3.766
	c-0.597,0.868-1.423,1.302-2.478,1.302c-1.056,0-1.882-0.434-2.479-1.302c-0.597-0.877-0.896-2.133-0.896-3.766
	c0-0.812,0.075-1.531,0.225-2.156c0.159-0.635,0.383-1.167,0.672-1.596c0.299-0.429,0.653-0.756,1.064-0.98
	c0.42-0.224,0.891-0.336,1.414-0.336c1.055,0,1.881,0.439,2.478,1.316C399.803,105.258,400.102,106.509,400.102,108.142z
	 M398.352,108.142c0-0.504-0.027-0.975-0.084-1.414c-0.056-0.439-0.148-0.817-0.279-1.134c-0.121-0.327-0.285-0.583-0.49-0.77
	c-0.205-0.187-0.462-0.28-0.77-0.28c-0.309,0-0.569,0.093-0.785,0.28c-0.204,0.187-0.372,0.443-0.504,0.77
	c-0.121,0.317-0.209,0.695-0.266,1.134c-0.047,0.439-0.07,0.91-0.07,1.414s0.023,0.975,0.07,1.414
	c0.057,0.439,0.145,0.821,0.266,1.148c0.132,0.317,0.3,0.569,0.504,0.756c0.216,0.187,0.477,0.28,0.785,0.28
	c0.308,0,0.564-0.093,0.77-0.28s0.369-0.439,0.49-0.756c0.131-0.327,0.224-0.709,0.279-1.148
	C398.324,109.117,398.352,108.646,398.352,108.142z"/>
</svg>
