<svg width="1067" height="723" viewBox="0 0 1067 723" fill="none" xmlns="http://www.w3.org/2000/svg">
<path d="M0 333H1003C1038.35 333 1067 361.654 1067 397V1005H0V333Z" fill="#F25A29"/>
<path fill-rule="evenodd" clip-rule="evenodd" d="M802.78 168.277C832.227 231.425 807.884 375.693 656.733 460.947C505.581 546.202 347.708 513.885 330.061 419.047C312.415 324.208 395.19 168.277 543.863 119.875C692.537 71.4731 773.332 105.128 802.78 168.277Z" fill="#F25A29"/>
<path d="M299.945 549.881C304.886 580.305 317.176 605.604 336.815 625.776" stroke="#000014" stroke-linecap="round" stroke-linejoin="round"/>
<path d="M298.059 555.555C304.722 555.555 310.123 550.154 310.123 543.491C310.123 536.829 304.722 531.427 298.059 531.427C291.397 531.427 285.995 536.829 285.995 543.491C285.995 550.154 291.397 555.555 298.059 555.555Z" fill="#F25A29"/>
<path d="M296.336 540.045C300.143 540.045 303.23 536.958 303.23 533.151C303.23 529.344 300.143 526.257 296.336 526.257C292.529 526.257 289.442 529.344 289.442 533.151C289.442 536.958 292.529 540.045 296.336 540.045Z" fill="#000014" stroke="#000014" stroke-linecap="round" stroke-linejoin="round"/>
<path fill-rule="evenodd" clip-rule="evenodd" d="M310.044 584.684C309.15 577.234 311.929 571.608 318.379 567.807C318.995 577.161 316.216 582.787 310.044 584.684Z" fill="#000014" stroke="#000014" stroke-linecap="round" stroke-linejoin="round"/>
<path fill-rule="evenodd" clip-rule="evenodd" d="M402.768 666.875C384.872 666.875 354.559 666.875 311.829 666.875C307.514 642.804 310.356 626.58 320.354 618.203C335.351 605.636 340.887 593.328 334.224 567.675C327.561 542.022 333.769 531.981 357.092 520.203C380.416 508.426 364.967 483.218 388.361 474.147C411.756 465.077 421.441 505.163 404.901 524.727C388.361 544.291 402.768 550.106 402.768 570.318C402.768 590.531 388.361 594.303 388.361 609.173C388.361 624.044 407.686 638.736 402.768 666.875Z" fill="white" stroke="#000014" stroke-linecap="round"/>
<path d="M388.51 503.536C361.549 562.13 350.312 616.576 354.797 666.875" stroke="#000014" stroke-linecap="round" stroke-linejoin="round"/>
<path d="M329.654 609.327C340.692 621.613 348.773 631.268 353.898 638.292" stroke="#000014" stroke-linecap="round" stroke-linejoin="round"/>
<path d="M321.918 617.173C340.611 635.206 351.271 646.679 353.898 651.593" stroke="#000014" stroke-linecap="round" stroke-linejoin="round"/>
<path d="M361.525 581.173C374.394 573.305 387.775 566.639 401.669 561.175" stroke="#000014" stroke-linecap="round" stroke-linejoin="round"/>
<path d="M359.164 592.798C374.893 582.779 389.465 575.13 402.88 569.853" stroke="#000014" stroke-linecap="round" stroke-linejoin="round"/>
<path fill-rule="evenodd" clip-rule="evenodd" d="M329.089 666.875H281.404C267.626 657.755 261.732 645.884 263.72 631.261C266.703 609.327 268.794 613.486 256.486 601.691C250.757 596.201 247.86 580 259.893 571.174C273.526 561.175 289.757 573.115 290.928 585.206C293.264 609.327 293.264 603.086 313.998 617.173C327.821 626.565 332.851 643.132 329.089 666.875Z" fill="white" stroke="#000014" stroke-linecap="round"/>
<path d="M268.678 585.206C286.064 614.372 298.12 641.595 304.844 666.875" stroke="#000014" stroke-linecap="round" stroke-linejoin="round"/>
<path d="M264.252 627.382L295.223 638.292" stroke="#000014" stroke-linecap="round" stroke-linejoin="round"/>
<path d="M263.354 636.142L298.637 647.34" stroke="#000014" stroke-linecap="round" stroke-linejoin="round"/>
<path d="M282.052 609.327L291.923 594.764" stroke="#000014" stroke-linecap="round" stroke-linejoin="round"/>
<path d="M366.996 148.829H385.954V167.786H366.996V148.829Z" fill="white" stroke="#000014" stroke-linecap="round"/>
<path d="M313.571 191.914H348.039V226.383H313.571V191.914Z" fill="#F25A29"/>
<path d="M620.339 534.875H641.02V555.556H620.339V534.875Z" fill="#F25A29"/>
<path d="M304.092 464.214C298.857 464.214 294.613 459.971 294.613 454.736C294.613 449.501 298.857 445.257 304.092 445.257C309.327 445.257 313.57 449.501 313.57 454.736C313.57 459.971 309.327 464.214 304.092 464.214Z" fill="#F25A29"/>
<path d="M577.253 43.7005C569.639 43.7005 563.466 37.5277 563.466 29.9132C563.466 22.2987 569.639 16.1259 577.253 16.1259C584.868 16.1259 591.04 22.2987 591.04 29.9132C591.04 37.5277 584.868 43.7005 577.253 43.7005Z" fill="#F25A29"/>
<path d="M840.074 331.511C834.839 331.511 830.596 327.267 830.596 322.032C830.596 316.797 834.839 312.553 840.074 312.553C845.309 312.553 849.553 316.797 849.553 322.032C849.553 327.267 845.309 331.511 840.074 331.511Z" fill="white" stroke="#000014" stroke-linecap="round"/>
<path fill-rule="evenodd" clip-rule="evenodd" d="M840.936 386.66L830.596 403.895H851.277L840.936 386.66Z" fill="#F25A29"/>
<path d="M726.329 48.8707C722.998 48.8707 720.297 46.1701 720.297 42.8387C720.297 39.5074 722.998 36.8068 726.329 36.8068C729.66 36.8068 732.361 39.5074 732.361 42.8387C732.361 46.1701 729.66 48.8707 726.329 48.8707Z" fill="#F25A29"/>
<path d="M441.965 59.2113C438.634 59.2113 435.933 56.5107 435.933 53.1793C435.933 49.8479 438.634 47.1473 441.965 47.1473C445.297 47.1473 447.997 49.8479 447.997 53.1793C447.997 56.5107 445.297 59.2113 441.965 59.2113Z" fill="white" stroke="#000014" stroke-linecap="round"/>
<path d="M637.228 76.4454H822.53C829.84 76.4454 835.766 82.3713 835.766 89.6813V222.04C835.766 229.35 829.84 235.276 822.53 235.276H637.228C629.919 235.276 623.993 229.35 623.993 222.04V89.6813C623.993 82.3713 629.919 76.4454 637.228 76.4454Z" fill="white" stroke="#000014" stroke-linecap="round" stroke-linejoin="round"/>
<path d="M766.277 162.479H805.984C809.639 162.479 812.602 165.441 812.602 169.096V205.495C812.602 209.15 809.639 212.113 805.984 212.113H766.277C762.622 212.113 759.659 209.15 759.659 205.495V169.096C759.659 165.441 762.622 162.479 766.277 162.479Z" fill="#000014" stroke="#000014" stroke-linecap="round" stroke-linejoin="round"/>
<path d="M676.935 99.6082H809.293C811.121 99.6082 812.602 101.09 812.602 102.917V109.535C812.602 111.363 811.121 112.844 809.293 112.844H676.935C675.107 112.844 673.626 111.363 673.626 109.535V102.917C673.626 101.09 675.107 99.6082 676.935 99.6082Z" fill="#000014" stroke="#000014" stroke-linecap="round" stroke-linejoin="round"/>
<path d="M676.935 129.389H809.293C811.121 129.389 812.602 130.87 812.602 132.698V139.316C812.602 141.143 811.121 142.625 809.293 142.625H676.935C675.107 142.625 673.626 141.143 673.626 139.316V132.698C673.626 130.87 675.107 129.389 676.935 129.389Z" fill="#000014" stroke="#000014" stroke-linecap="round" stroke-linejoin="round"/>
<path fill-rule="evenodd" clip-rule="evenodd" d="M643.847 9.1613L629.575 31.2837L642.257 57.2058L669.212 61.0055L683.485 38.8832L670.802 12.9611L643.847 9.1613Z" fill="white" stroke="#000014" stroke-linecap="round" stroke-linejoin="round"/>
<path fill-rule="evenodd" clip-rule="evenodd" d="M656.962 34.4036L669.48 60.0746L683.567 38.1666L671.049 12.4956L656.962 34.4036Z" fill="#000014" stroke="#000014" stroke-linecap="round" stroke-linejoin="round"/>
<path fill-rule="evenodd" clip-rule="evenodd" d="M668.183 61.0943L655.665 35.4234L629.059 31.6604L641.578 57.3314L668.183 61.0943Z" fill="white" stroke="#000014" stroke-linecap="round" stroke-linejoin="round"/>
<path fill-rule="evenodd" clip-rule="evenodd" d="M646.147 121.078L612.254 108.189L585.209 130.812L592.057 166.324L625.949 179.213L652.995 156.59L646.147 121.078Z" fill="white" stroke="#000014" stroke-linecap="round" stroke-linejoin="round"/>
<path fill-rule="evenodd" clip-rule="evenodd" d="M618.779 143.532L591.641 166.237L625.649 179.172L652.787 156.468L618.779 143.532Z" fill="#000014" stroke="#000014" stroke-linecap="round" stroke-linejoin="round"/>
<path fill-rule="evenodd" clip-rule="evenodd" d="M592.125 166.743L619.263 144.039L612.392 108.399L585.254 131.103L592.125 166.743Z" fill="white" stroke="#000014" stroke-linecap="round" stroke-linejoin="round"/>
<path d="M422.688 584.854H541.604V596.917H422.688V584.854Z" fill="white" stroke="#000014" stroke-linecap="round" stroke-linejoin="round"/>
<path d="M431.305 653.79H532.987V665.854H431.305V653.79Z" fill="white" stroke="#000014" stroke-linecap="round" stroke-linejoin="round"/>
<path fill-rule="evenodd" clip-rule="evenodd" d="M468.436 412.23C438.152 406.76 415.791 395.82 401.353 379.41C379.697 354.796 380.719 314.277 412.783 314.277C434.158 314.277 460.034 314.277 490.409 314.277C505.264 316.199 513.903 327.535 516.327 348.285C519.963 379.41 544.347 376.945 549.894 388.829C553.593 396.751 526.44 404.552 468.436 412.23Z" fill="white" stroke="#000014" stroke-linecap="round" stroke-linejoin="round"/>
<path fill-rule="evenodd" clip-rule="evenodd" d="M574.47 283.112C576.921 289.133 579.057 293.284 580.878 295.563C583.61 298.983 602.578 298.017 616.605 301.958C630.633 305.9 661.564 311.698 671.465 311.698C678.065 311.698 678.564 318.302 672.962 331.511H572.376C564.745 331.511 557.565 327.902 553.012 321.778L536.067 298.983L574.47 283.112Z" fill="white" stroke="#000014" stroke-linecap="round" stroke-linejoin="round"/>
<path fill-rule="evenodd" clip-rule="evenodd" d="M541.881 538.382C538.192 546.213 536.027 552.237 535.384 556.454C534.42 562.779 543.933 572.876 547.53 585.248C551.127 597.621 543.784 605.025 540.272 605.842C511.032 581.068 494.575 566.791 490.898 563.01L513.303 524.534L541.881 538.382Z" fill="#000014" stroke="#000014" stroke-linecap="round" stroke-linejoin="round"/>
<path fill-rule="evenodd" clip-rule="evenodd" d="M533.052 570.333C524.753 567.12 518.954 567.951 515.655 572.828L515.418 573.192L546.708 599.602C548.439 596.12 549.282 591.273 547.53 585.248C547.011 583.461 546.368 581.721 545.651 580.034C542.371 575.548 538.172 572.315 533.052 570.333Z" fill="white" stroke="#000014" stroke-linecap="round" stroke-linejoin="round"/>
<path fill-rule="evenodd" clip-rule="evenodd" d="M513.303 524.534L504.484 539.681L535.36 556.69L535.385 556.454C536.003 552.4 538.028 546.674 541.462 539.277L541.881 538.382L513.303 524.534Z" fill="white" stroke="#000014" stroke-linecap="round" stroke-linejoin="round"/>
<path fill-rule="evenodd" clip-rule="evenodd" d="M513.303 524.534L506.436 536.329L538.552 545.981C539.372 543.924 540.342 541.69 541.462 539.277L541.881 538.382L513.303 524.534Z" fill="#000014" stroke="#000014" stroke-linecap="round" stroke-linejoin="round"/>
<path d="M534.767 566.629C531.777 565.108 528.052 564.347 523.595 564.347C516.908 564.347 514.17 564.479 514.794 561.931C515.418 559.383 522.856 558.409 527.914 560.411C532.973 562.413 532.578 560.055 530.285 557.682C527.993 555.309 522.646 551.773 514.794 550.657C506.943 549.54 506.419 552.962 510.607 554.037C514.794 555.112 522.182 554.037 523.182 556.19C524.182 558.343 515.319 555.768 510.607 559.226C507.465 561.531 505.659 563.744 505.188 565.864" stroke="white" stroke-linecap="round"/>
<path fill-rule="evenodd" clip-rule="evenodd" d="M496.148 617.291C494.774 630.094 495.421 637.906 498.091 640.728C502.095 644.961 514.671 653.781 521.037 659.06C527.403 664.339 527.968 671.866 527.968 678.52C521.754 678.52 497.667 678.52 455.709 678.52L460.335 616.14L496.148 617.291Z" fill="#000014" stroke="#000014" stroke-linecap="round" stroke-linejoin="round"/>
<path fill-rule="evenodd" clip-rule="evenodd" d="M503.711 655.347C492.92 655.347 486.297 660.321 483.842 670.269L483.707 670.837L527.454 670.837C526.73 666.541 525.018 662.361 521.037 659.06L519.859 658.099C519.036 657.437 518.139 656.732 517.193 655.998L516.37 655.891C513.395 655.53 509.378 655.347 503.711 655.347Z" fill="white" stroke="#000014" stroke-linecap="round" stroke-linejoin="round"/>
<path fill-rule="evenodd" clip-rule="evenodd" d="M460.336 616.14L458.918 635.263L495.909 635.265C495.246 631.307 495.298 625.586 496.064 618.101L496.149 617.291L460.336 616.14Z" fill="white" stroke="#000014" stroke-linecap="round" stroke-linejoin="round"/>
<path fill-rule="evenodd" clip-rule="evenodd" d="M460.336 616.14L459.33 629.738L495.609 623.614C495.712 621.897 495.863 620.059 496.064 618.101L496.149 617.291L460.336 616.14Z" fill="#000014" stroke="#000014" stroke-linecap="round" stroke-linejoin="round"/>
<path fill-rule="evenodd" clip-rule="evenodd" d="M530.701 345.957C554.864 378.809 571.472 405.502 580.525 426.036C594.104 456.837 584.306 472.415 572.205 493.079C564.138 506.855 554.691 522.699 543.865 540.612L514.672 522.615C527.246 481.247 533.534 459.408 533.534 457.1C533.534 454.791 523.055 442.109 502.096 419.052C505.644 464.26 507.419 494.384 507.419 509.426C507.419 524.467 504.233 557.946 497.86 609.862H461.481C458.159 556.017 455.613 522.538 453.844 509.426C451.192 489.758 444.987 462.998 432.556 429.33C420.125 395.663 417.301 368.497 417.301 347.865C417.301 334.11 455.101 333.475 530.701 345.957Z" fill="white" stroke="#000014" stroke-linecap="round" stroke-linejoin="round"/>
<path fill-rule="evenodd" clip-rule="evenodd" d="M494.251 605.425L460.336 591.634L461.189 605.145L461.481 609.862H497.86L498.091 607.977L494.251 605.425Z" fill="#000014" stroke="#000014" stroke-linecap="round" stroke-linejoin="round"/>
<path fill-rule="evenodd" clip-rule="evenodd" d="M542.419 531.825L519.242 507.518L515.21 520.841L514.671 522.616L541.961 536.451L543.864 533.721L542.419 531.825Z" fill="#000014" stroke="#000014" stroke-linecap="round" stroke-linejoin="round"/>
<path fill-rule="evenodd" clip-rule="evenodd" d="M508.433 154.492C504.747 163.968 506.554 170.455 513.854 173.954C524.804 179.202 543.373 197.307 553.763 223.539C560.69 241.027 568.468 262.037 577.097 286.569C565.358 299.741 550.527 307.071 532.603 308.559C529.324 303.317 526.147 298.015 523.073 292.652L521.361 303.189C530.227 324.555 535.398 337.752 536.875 342.779C539.091 350.319 527.266 362.696 510.68 369.04C494.094 375.385 465.956 370.062 447.207 363.04C428.458 356.017 422.428 353.828 416.767 353.828C411.106 353.828 412.344 341.18 413.437 334.614C414.165 330.236 413.701 325.202 412.043 319.512C394.911 318.495 384.562 317.379 380.995 316.164C375.646 314.341 375.671 311.384 376.883 300.96C378.095 290.536 391.748 248.686 399.8 226.625C407.851 204.563 418.645 184.091 436.391 173.954C454.137 163.817 467.933 166.996 474.258 156.929C480.584 146.861 481.315 127.297 481.315 116.385C481.315 109.111 488.388 117.934 502.534 142.855L508.433 154.492Z" fill="#000014" stroke="#000014" stroke-linecap="round" stroke-linejoin="round"/>
<path d="M465.773 198.808H489.901C490.853 198.808 491.624 199.58 491.624 200.531V245.34C491.624 246.292 490.853 247.064 489.901 247.064H465.773C464.821 247.064 464.05 246.292 464.05 245.34V200.531C464.05 199.58 464.821 198.808 465.773 198.808Z" fill="white" stroke="#000014" stroke-width="0.9025" stroke-linecap="round" stroke-linejoin="round"/>
<path fill-rule="evenodd" clip-rule="evenodd" d="M491.626 226.296L491.029 225.956L487.921 226.816C477.132 229.776 469.175 231.68 464.049 232.528L464.051 245.34C464.051 246.292 464.823 247.064 465.774 247.064H489.902C490.854 247.064 491.626 246.292 491.626 245.34L491.626 226.296Z" fill="#000014" stroke="#000014" stroke-linecap="round" stroke-linejoin="round"/>
<path d="M477.837 212.595C476.885 212.595 476.114 211.824 476.114 210.872C476.114 209.92 476.885 209.148 477.837 209.148C478.789 209.148 479.561 209.92 479.561 210.872C479.561 211.824 478.789 212.595 477.837 212.595Z" fill="#000014"/>
<path fill-rule="evenodd" clip-rule="evenodd" d="M508.433 154.492L502.534 142.855L500.871 139.942C487.97 117.49 481.452 109.567 481.318 116.172L481.305 118.626C481.196 129.809 480.171 147.518 474.258 156.929C472.518 159.698 470.212 161.465 467.415 162.783C473.214 171.619 483.978 182.21 496.135 182.21C504.17 182.21 509.355 179.047 511.691 172.721C506.35 169.106 505.194 163.216 508.22 155.052L508.433 154.492Z" fill="white" stroke="#000014" stroke-linecap="round" stroke-linejoin="round"/>
<path fill-rule="evenodd" clip-rule="evenodd" d="M493.42 127.452L487.377 136.709C483.755 155.409 490.533 165.931 507.709 168.276C506.047 164.865 506.217 160.457 508.22 155.052L508.433 154.492L502.535 142.855L500.871 139.942L499.698 137.91C497.387 133.928 495.295 130.442 493.42 127.452Z" fill="#000014" stroke="#000014" stroke-width="0.9025" stroke-linecap="round" stroke-linejoin="round"/>
<path fill-rule="evenodd" clip-rule="evenodd" d="M480.437 116.737C482.672 133.012 485.651 144.146 489.375 150.139C494.961 159.127 509.841 161.285 515.559 147.288C519.371 137.957 522.884 118.893 526.099 90.0952C526.582 88.0935 527.002 86.8309 527.357 86.3075C533.052 77.9256 535.376 74.5762 533.445 73.5892C532.477 73.0948 515.828 64.8226 514.959 64.3007C513.499 63.424 522.877 80.9461 507.733 80.2771C500.07 75.1499 494.497 75.3103 491.014 80.7581C492.286 83.8868 492.379 86.0825 491.293 87.3451C490.207 88.6078 488.136 88.843 485.081 88.0509C486.352 96.8888 485.731 101.912 483.218 103.121C479.449 104.935 479.472 99.1219 474.247 96.8894C469.023 94.6569 463.719 100.751 466.904 108.893C469.027 114.32 473.538 116.935 480.437 116.737Z" fill="white" stroke="#000014" stroke-linecap="round" stroke-linejoin="round"/>
<path fill-rule="evenodd" clip-rule="evenodd" d="M504.582 57.3875C517.819 58.0235 526.412 71.1682 539.674 67.0306C542.222 72.3679 542.407 77.7579 540.628 82C543.12 80.145 545.386 78.0246 547.427 75.6414L547.056 76.4986C542.644 89.2554 531.006 90.2766 527.135 90.2545L526.523 90.2417C524.18 89.5078 521.998 88.7287 519.979 87.9045C523.439 86.7186 526.352 84.1013 528.721 80.0543L529.098 79.379L528.548 79.8893C523.538 84.3978 518.844 85.6813 514.467 83.74C518.133 81.0054 520.225 77.8379 520.745 74.2373L520.274 75.0663L519.886 75.7168L519.485 76.345C517.611 79.1618 514.748 81.7821 508.312 81.5511L507.997 81.3408C500.292 76.1844 494.708 76.0212 491.246 80.8512C492.525 83.9978 492.618 86.2061 491.526 87.4759C490.435 88.7458 488.353 88.9824 485.28 88.1857C486.559 97.0742 485.934 102.126 483.407 103.342C479.617 105.166 479.64 99.3201 474.387 97.0748C473.679 96.7723 472.97 96.6218 472.28 96.6079C471.379 90.1354 471.337 83.9588 472.155 78.0802C473.186 70.6699 476.544 67.5378 482.227 68.6838C488.306 60.729 495.757 56.9636 504.582 57.3875Z" fill="#000014"/>
<path d="M496.483 105.057C497.842 105.018 498.872 103.308 498.784 101.238C498.696 99.1681 497.524 97.5218 496.166 97.5609C494.807 97.6 493.777 99.3098 493.865 101.38C493.953 103.45 495.125 105.096 496.483 105.057Z" fill="#000014" stroke="#000014" stroke-linecap="round"/>
<path d="M518.373 106.706C519.752 106.882 521.062 105.372 521.299 103.334C521.536 101.295 520.61 99.4997 519.231 99.3237C517.852 99.1478 516.542 100.658 516.305 102.696C516.068 104.735 516.994 106.53 518.373 106.706Z" fill="#000014" stroke="#000014" stroke-linecap="round"/>
<path d="M496.859 115.042C500.949 114.924 504.122 111.465 503.946 107.316C503.77 103.168 500.312 99.8995 496.222 100.017C492.132 100.135 488.96 103.593 489.136 107.742C489.312 111.891 492.77 115.159 496.859 115.042Z" stroke="#000014" stroke-linecap="round"/>
<path d="M521.826 116.661C525.915 116.543 529.088 113.085 528.912 108.936C528.736 104.787 525.278 101.519 521.188 101.636C517.099 101.754 513.926 105.213 514.102 109.362C514.278 113.51 517.736 116.778 521.826 116.661Z" stroke="#000014" stroke-linecap="round"/>
<path d="M509.802 127.586L515.662 125.53L510.249 112.304" stroke="#000014" stroke-linecap="round" stroke-linejoin="round"/>
<path d="M481.428 101.786L489.024 106.347" stroke="#000014" stroke-linecap="round"/>
<path d="M504.013 107.235C508.221 105.551 511.55 105.872 514 108.197" stroke="#000014" stroke-linecap="round"/>
<path d="M491.193 94.0328C493.435 91.2773 496.947 89.8304 501.728 89.6922" stroke="#000014" stroke-linecap="round"/>
<path d="M515.344 91.1553C518.887 91.5395 521.47 93.3829 523.092 96.6855" stroke="#000014" stroke-linecap="round"/>
<path fill-rule="evenodd" clip-rule="evenodd" d="M509.964 136.611C503.673 135.88 498.431 133.019 494.237 128.026C491.939 134.752 494.427 141.688 500.321 142.526C504.25 143.084 507.464 141.113 509.964 136.611Z" fill="#000014" stroke="#000014" stroke-linecap="round" stroke-linejoin="round"/>
<path d="M568.123 277.078C556.561 287.463 544.087 293.625 530.701 295.563" stroke="white" stroke-linecap="round"/>
<path d="M523.432 286.321C528.413 260.569 531.692 244.806 533.27 239.033" stroke="white" stroke-linecap="round"/>
<path d="M518.618 311.69C516.337 325.858 514.775 336.22 513.933 342.777" stroke="white" stroke-linecap="round"/>
<path d="M426.188 282.495C430.919 257.598 433.806 239.418 434.847 227.956" stroke="white" stroke-linecap="round"/>
<path d="M423.684 269.201C405.835 275.867 392.49 282.275 383.647 288.426" stroke="white" stroke-linecap="round"/>
<path fill-rule="evenodd" clip-rule="evenodd" d="M455.869 272.304L449.912 279.778C433.441 300.367 422.605 313.207 417.404 318.298C408.275 327.233 396.235 324.239 390.903 320.938C385.571 317.636 382.389 307.767 395.935 296.152C409.481 284.537 438.761 267.554 445.465 255.225C452.049 243.117 450.148 240.256 452.373 235.64L452.781 234.834C455.439 229.68 462.208 217.514 463.655 218.392C465.118 219.28 464.785 224.111 462.01 230.746L461.274 232.477C458.846 238.302 459.29 239.224 463.655 239.224C467.964 239.224 477.198 233.431 483.957 229.556L485.507 228.678C492.328 224.876 493.999 220.265 496.71 220.265C499.421 220.265 497.445 226.32 493.313 231.273L494.253 232.577C495.405 234.199 495.789 234.995 495.279 236.569C494.859 237.864 493.798 239.39 492.098 241.146C493.671 243.63 493.671 245.727 492.098 247.44C489.739 250.008 489.902 250.729 487.705 254.263C485.572 257.693 478.18 261.734 471.694 263.971L471.107 264.17C468.968 264.878 466.901 265.59 464.909 266.305L463.428 266.843C460.454 267.934 457.839 269.824 455.869 272.304Z" fill="white" stroke="#000014" stroke-linecap="round" stroke-linejoin="round"/>
<path d="M493.313 231.273C488.357 236.308 482.806 240.017 476.66 242.398" stroke="#000014" stroke-linecap="round" stroke-linejoin="round"/>
<path d="M492.097 241.146C486.373 245.06 481.227 247.822 476.66 249.434" stroke="#000014" stroke-linecap="round" stroke-linejoin="round"/>
<path d="M486.437 252.006L477.464 256.396" stroke="#000014" stroke-linecap="round" stroke-linejoin="round"/>
<path fill-rule="evenodd" clip-rule="evenodd" d="M501.092 607.006C500.735 614.066 500.159 618.249 499.362 619.556C497.996 621.798 465.76 622.75 459.757 620.786C453.754 618.822 455.805 605.932 457.263 602.307C458.198 599.983 471.793 600.35 498.048 603.408C499.852 603.619 501.183 605.192 501.092 607.006Z" fill="white" stroke="#000014" stroke-linecap="round" stroke-linejoin="round"/>
<path d="M502.095 412.231L507.687 374.788" stroke="#000014" stroke-linecap="round" stroke-linejoin="round"/>
<path d="M497.956 398.49L493.227 374.788" stroke="#000014" stroke-linecap="round" stroke-linejoin="round"/>
<path fill-rule="evenodd" clip-rule="evenodd" d="M549.394 535.625C546.767 541.127 544.263 544.579 541.882 545.981C537.695 548.446 511.772 529.504 510.552 525.712C509.333 521.92 512.766 517.168 514.898 515.968C516.258 515.203 527.255 520.243 547.887 531.089V531.089C549.526 531.95 550.191 533.953 549.394 535.625Z" fill="white" stroke="#000014" stroke-linecap="round" stroke-linejoin="round"/>
<path d="M503.248 650.746C496.084 651.25 490.363 652.784 486.085 655.348C479.668 659.193 476.991 657.82 476.991 655.955C476.991 654.091 479.494 650.671 486.891 648.603C494.288 646.534 497.382 646.953 498.33 644.609C499.278 642.266 482.101 640.549 473.139 642.192C464.178 643.836 461.394 648.224 462.858 650.746C464.321 653.269 469.357 650.746 474.028 647.885C478.7 645.024 482.064 642.948 484.781 643.779C487.498 644.609 474.997 647.126 468.154 658.345" stroke="white" stroke-linecap="round"/>
<path d="M517.452 182.21C513.31 189.36 505.673 192.934 494.538 192.934C477.837 192.934 463.324 177.475 460.891 171.853" stroke="white" stroke-linecap="round"/>
<path fill-rule="evenodd" clip-rule="evenodd" d="M786.33 331.511H546.776V340.84H786.33V331.511Z" fill="white" stroke="#000014" stroke-linecap="round" stroke-linejoin="round"/>
<path d="M598.479 322.894H755.309V331.511H598.479V322.894Z" fill="white" stroke="#000014" stroke-linecap="round" stroke-linejoin="round"/>
<path d="M636.394 322.894H755.309V331.511H636.394V322.894Z" fill="white" stroke="#000014" stroke-linecap="round" stroke-linejoin="round"/>
<path fill-rule="evenodd" clip-rule="evenodd" d="M783.078 256.759H672.055C668.152 256.759 664.582 258.957 662.823 262.442L632.321 322.894H755.308L786.155 261.759C787.013 260.059 786.33 257.986 784.631 257.129C784.149 256.886 783.617 256.759 783.078 256.759Z" fill="white" stroke="#000014" stroke-linecap="round" stroke-linejoin="round"/>
<path fill-rule="evenodd" clip-rule="evenodd" d="M672.055 256.759C668.152 256.759 664.582 258.957 662.823 262.442L632.321 322.894H635.844L665.264 264.587C666.668 261.804 669.459 260.006 672.552 259.861L672.957 259.852H785.041C785.472 259.852 785.899 259.933 786.299 260.089L786.526 260.189C786.518 258.936 785.826 257.732 784.631 257.129C784.149 256.886 783.617 256.759 783.078 256.759H672.055Z" fill="white" stroke="#000014" stroke-linecap="round" stroke-linejoin="round"/>
<path fill-rule="evenodd" clip-rule="evenodd" d="M560.248 340.84V354.628H602.651C620.992 354.628 636.907 367.204 641.187 384.981L641.333 385.611L697.527 636.753C697.721 637.618 697.818 638.501 697.818 639.387C697.818 645.911 692.64 651.225 686.169 651.444L685.755 651.451H587.097V665.238H827.149C841.426 665.238 853 653.664 853 639.387C853 637.759 852.846 636.136 852.541 634.539L852.376 633.742L796.182 382.6C790.775 358.437 769.488 341.188 744.794 340.846L744.045 340.84H560.248Z" fill="#000014" stroke="#000014" stroke-linecap="round" stroke-linejoin="round"/>
<path fill-rule="evenodd" clip-rule="evenodd" d="M560.248 340.84V354.628H602.651C620.992 354.628 636.907 367.204 641.186 384.981L641.333 385.611L697.527 636.753C697.721 637.618 697.818 638.501 697.818 639.387C697.818 645.911 692.64 651.225 686.169 651.444L685.754 651.451H587.097V665.238H685.754C700.032 665.238 711.606 653.664 711.606 639.387C711.606 637.759 711.452 636.136 711.147 634.539L710.982 633.742L654.787 382.6C649.381 358.437 628.094 341.188 603.4 340.846L602.651 340.84H560.248Z" fill="white" stroke="#000014" stroke-linecap="round" stroke-linejoin="round"/>
<mask id="mask0" mask-type="alpha" maskUnits="userSpaceOnUse" x="0" y="333" width="1067" height="672">
<path d="M0 333H1003C1038.35 333 1067 361.654 1067 397V1005H0V333Z" fill="#F25A29"/>
</mask>
<g mask="url(#mask0)">
<path fill-rule="evenodd" clip-rule="evenodd" d="M802.78 168.277C832.227 231.425 807.884 375.693 656.733 460.947C505.581 546.202 347.708 513.885 330.061 419.047C312.415 324.208 395.19 168.277 543.863 119.875C692.537 71.4731 773.332 105.128 802.78 168.277Z" fill="#FFC107"/>
<path d="M299.945 549.881C304.886 580.305 317.176 605.604 336.815 625.776" stroke="#000014" stroke-linecap="round" stroke-linejoin="round"/>
<path d="M298.059 555.555C304.722 555.555 310.123 550.154 310.123 543.491C310.123 536.829 304.722 531.427 298.059 531.427C291.397 531.427 285.995 536.829 285.995 543.491C285.995 550.154 291.397 555.555 298.059 555.555Z" fill="#FFC107"/>
<path d="M296.336 540.045C300.143 540.045 303.23 536.958 303.23 533.151C303.23 529.344 300.143 526.257 296.336 526.257C292.529 526.257 289.442 529.344 289.442 533.151C289.442 536.958 292.529 540.045 296.336 540.045Z" fill="#000014" stroke="#000014" stroke-linecap="round" stroke-linejoin="round"/>
<path fill-rule="evenodd" clip-rule="evenodd" d="M310.044 584.684C309.15 577.234 311.929 571.608 318.379 567.807C318.995 577.161 316.216 582.787 310.044 584.684Z" fill="#000014" stroke="#000014" stroke-linecap="round" stroke-linejoin="round"/>
<path fill-rule="evenodd" clip-rule="evenodd" d="M402.768 666.875C384.872 666.875 354.559 666.875 311.829 666.875C307.514 642.804 310.356 626.58 320.354 618.203C335.351 605.636 340.887 593.328 334.224 567.675C327.561 542.022 333.769 531.981 357.092 520.203C380.416 508.426 364.967 483.218 388.361 474.147C411.756 465.077 421.441 505.163 404.901 524.727C388.361 544.291 402.768 550.106 402.768 570.318C402.768 590.531 388.361 594.303 388.361 609.173C388.361 624.044 407.686 638.736 402.768 666.875Z" fill="white" stroke="#000014" stroke-linecap="round"/>
<path d="M388.51 503.536C361.549 562.13 350.312 616.576 354.797 666.875" stroke="#000014" stroke-linecap="round" stroke-linejoin="round"/>
<path d="M329.654 609.327C340.692 621.613 348.773 631.268 353.898 638.292" stroke="#000014" stroke-linecap="round" stroke-linejoin="round"/>
<path d="M321.918 617.173C340.611 635.206 351.271 646.679 353.898 651.593" stroke="#000014" stroke-linecap="round" stroke-linejoin="round"/>
<path d="M361.525 581.173C374.394 573.305 387.775 566.639 401.669 561.175" stroke="#000014" stroke-linecap="round" stroke-linejoin="round"/>
<path d="M359.164 592.798C374.893 582.779 389.465 575.13 402.88 569.853" stroke="#000014" stroke-linecap="round" stroke-linejoin="round"/>
<path fill-rule="evenodd" clip-rule="evenodd" d="M329.089 666.875H281.404C267.626 657.755 261.732 645.884 263.72 631.261C266.703 609.327 268.794 613.486 256.486 601.691C250.757 596.201 247.86 580 259.893 571.174C273.526 561.175 289.757 573.115 290.928 585.206C293.264 609.327 293.264 603.086 313.998 617.173C327.821 626.565 332.851 643.132 329.089 666.875Z" fill="white" stroke="#000014" stroke-linecap="round"/>
<path d="M268.678 585.206C286.064 614.372 298.12 641.595 304.844 666.875" stroke="#000014" stroke-linecap="round" stroke-linejoin="round"/>
<path d="M264.252 627.382L295.223 638.292" stroke="#000014" stroke-linecap="round" stroke-linejoin="round"/>
<path d="M263.354 636.142L298.637 647.34" stroke="#000014" stroke-linecap="round" stroke-linejoin="round"/>
<path d="M282.052 609.327L291.923 594.764" stroke="#000014" stroke-linecap="round" stroke-linejoin="round"/>
<path d="M620.339 534.875H641.02V555.556H620.339V534.875Z" fill="#FFC107"/>
<path d="M304.092 464.214C298.857 464.214 294.613 459.971 294.613 454.736C294.613 449.501 298.857 445.257 304.092 445.257C309.327 445.257 313.57 449.501 313.57 454.736C313.57 459.971 309.327 464.214 304.092 464.214Z" fill="#FFC107"/>
<path fill-rule="evenodd" clip-rule="evenodd" d="M840.936 386.66L830.596 403.895H851.277L840.936 386.66Z" fill="#FFC107"/>
<path d="M422.688 584.854H541.604V596.917H422.688V584.854Z" fill="white" stroke="#000014" stroke-linecap="round" stroke-linejoin="round"/>
<path d="M431.305 653.79H532.987V665.854H431.305V653.79Z" fill="white" stroke="#000014" stroke-linecap="round" stroke-linejoin="round"/>
<path fill-rule="evenodd" clip-rule="evenodd" d="M468.436 412.23C438.152 406.76 415.791 395.82 401.353 379.41C379.697 354.796 380.719 314.277 412.783 314.277C434.158 314.277 460.034 314.277 490.409 314.277C505.264 316.199 513.903 327.535 516.327 348.285C519.963 379.41 544.347 376.945 549.894 388.829C553.593 396.751 526.44 404.552 468.436 412.23Z" fill="white" stroke="#000014" stroke-linecap="round" stroke-linejoin="round"/>
<path fill-rule="evenodd" clip-rule="evenodd" d="M541.881 538.382C538.192 546.213 536.027 552.237 535.384 556.454C534.42 562.779 543.933 572.876 547.53 585.248C551.127 597.621 543.784 605.025 540.272 605.842C511.032 581.068 494.575 566.791 490.898 563.01L513.303 524.534L541.881 538.382Z" fill="#000014" stroke="#000014" stroke-linecap="round" stroke-linejoin="round"/>
<path fill-rule="evenodd" clip-rule="evenodd" d="M533.052 570.333C524.753 567.12 518.954 567.951 515.655 572.828L515.418 573.192L546.708 599.602C548.439 596.12 549.282 591.273 547.53 585.248C547.011 583.461 546.368 581.721 545.651 580.034C542.371 575.548 538.172 572.315 533.052 570.333Z" fill="white" stroke="#000014" stroke-linecap="round" stroke-linejoin="round"/>
<path fill-rule="evenodd" clip-rule="evenodd" d="M513.303 524.534L504.484 539.681L535.36 556.69L535.385 556.454C536.003 552.4 538.028 546.674 541.462 539.277L541.881 538.382L513.303 524.534Z" fill="white" stroke="#000014" stroke-linecap="round" stroke-linejoin="round"/>
<path fill-rule="evenodd" clip-rule="evenodd" d="M513.303 524.534L506.436 536.329L538.552 545.981C539.372 543.924 540.342 541.69 541.462 539.277L541.881 538.382L513.303 524.534Z" fill="#000014" stroke="#000014" stroke-linecap="round" stroke-linejoin="round"/>
<path d="M534.767 566.629C531.777 565.108 528.052 564.347 523.595 564.347C516.908 564.347 514.17 564.479 514.794 561.931C515.418 559.383 522.856 558.409 527.914 560.411C532.973 562.413 532.578 560.055 530.285 557.682C527.993 555.309 522.646 551.773 514.794 550.657C506.943 549.54 506.419 552.962 510.607 554.037C514.794 555.112 522.182 554.037 523.182 556.19C524.182 558.343 515.319 555.768 510.607 559.226C507.465 561.531 505.659 563.744 505.188 565.864" stroke="white" stroke-linecap="round"/>
<path fill-rule="evenodd" clip-rule="evenodd" d="M496.148 617.291C494.774 630.094 495.421 637.906 498.091 640.728C502.095 644.961 514.671 653.781 521.037 659.06C527.403 664.339 527.968 671.866 527.968 678.52C521.754 678.52 497.667 678.52 455.709 678.52L460.335 616.14L496.148 617.291Z" fill="#000014" stroke="#000014" stroke-linecap="round" stroke-linejoin="round"/>
<path fill-rule="evenodd" clip-rule="evenodd" d="M503.711 655.347C492.92 655.347 486.297 660.321 483.842 670.269L483.707 670.837L527.454 670.837C526.73 666.541 525.018 662.361 521.037 659.06L519.859 658.099C519.036 657.437 518.139 656.732 517.193 655.998L516.37 655.891C513.395 655.53 509.378 655.347 503.711 655.347Z" fill="white" stroke="#000014" stroke-linecap="round" stroke-linejoin="round"/>
<path fill-rule="evenodd" clip-rule="evenodd" d="M460.336 616.14L458.918 635.263L495.909 635.265C495.246 631.307 495.298 625.586 496.064 618.101L496.149 617.291L460.336 616.14Z" fill="white" stroke="#000014" stroke-linecap="round" stroke-linejoin="round"/>
<path fill-rule="evenodd" clip-rule="evenodd" d="M460.336 616.14L459.33 629.738L495.609 623.614C495.712 621.897 495.863 620.059 496.064 618.101L496.149 617.291L460.336 616.14Z" fill="#000014" stroke="#000014" stroke-linecap="round" stroke-linejoin="round"/>
<path fill-rule="evenodd" clip-rule="evenodd" d="M530.701 345.957C554.864 378.809 571.472 405.502 580.525 426.036C594.104 456.837 584.306 472.415 572.205 493.079C564.138 506.855 554.691 522.699 543.865 540.612L514.672 522.615C527.246 481.247 533.534 459.408 533.534 457.1C533.534 454.791 523.055 442.109 502.096 419.052C505.644 464.26 507.419 494.384 507.419 509.426C507.419 524.467 504.233 557.946 497.86 609.862H461.481C458.159 556.017 455.613 522.538 453.844 509.426C451.192 489.758 444.987 462.998 432.556 429.33C420.125 395.663 417.301 368.497 417.301 347.865C417.301 334.11 455.101 333.475 530.701 345.957Z" fill="white" stroke="#000014" stroke-linecap="round" stroke-linejoin="round"/>
<path fill-rule="evenodd" clip-rule="evenodd" d="M494.251 605.425L460.336 591.634L461.189 605.145L461.481 609.862H497.86L498.091 607.977L494.251 605.425Z" fill="#000014" stroke="#000014" stroke-linecap="round" stroke-linejoin="round"/>
<path fill-rule="evenodd" clip-rule="evenodd" d="M542.419 531.825L519.242 507.518L515.21 520.841L514.671 522.616L541.961 536.451L543.864 533.721L542.419 531.825Z" fill="#000014" stroke="#000014" stroke-linecap="round" stroke-linejoin="round"/>
<path fill-rule="evenodd" clip-rule="evenodd" d="M508.433 154.492C504.747 163.968 506.554 170.455 513.854 173.954C524.804 179.202 543.373 197.307 553.763 223.539C560.69 241.027 568.468 262.037 577.097 286.569C565.358 299.741 550.527 307.071 532.603 308.559C529.324 303.317 526.147 298.015 523.073 292.652L521.361 303.189C530.227 324.555 535.398 337.752 536.875 342.779C539.091 350.319 527.266 362.696 510.68 369.04C494.094 375.385 465.956 370.062 447.207 363.04C428.458 356.017 422.428 353.828 416.767 353.828C411.106 353.828 412.344 341.18 413.437 334.614C414.165 330.236 413.701 325.202 412.043 319.512C394.911 318.495 384.562 317.379 380.995 316.164C375.646 314.341 375.671 311.384 376.883 300.96C378.095 290.536 391.748 248.686 399.8 226.625C407.851 204.563 418.645 184.091 436.391 173.954C454.137 163.817 467.933 166.996 474.258 156.929C480.584 146.861 481.315 127.297 481.315 116.385C481.315 109.111 488.388 117.934 502.534 142.855L508.433 154.492Z" fill="#000014" stroke="#000014" stroke-linecap="round" stroke-linejoin="round"/>
<path d="M518.618 311.69C516.337 325.858 514.775 336.22 513.933 342.777" stroke="white" stroke-linecap="round"/>
<path fill-rule="evenodd" clip-rule="evenodd" d="M501.092 607.006C500.735 614.066 500.159 618.249 499.362 619.556C497.996 621.798 465.76 622.75 459.757 620.786C453.754 618.822 455.805 605.932 457.263 602.307C458.198 599.983 471.793 600.35 498.048 603.408C499.852 603.619 501.183 605.192 501.092 607.006Z" fill="white" stroke="#000014" stroke-linecap="round" stroke-linejoin="round"/>
<path d="M502.095 412.231L507.687 374.788" stroke="#000014" stroke-linecap="round" stroke-linejoin="round"/>
<path d="M497.956 398.49L493.227 374.788" stroke="#000014" stroke-linecap="round" stroke-linejoin="round"/>
<path fill-rule="evenodd" clip-rule="evenodd" d="M549.394 535.625C546.767 541.127 544.263 544.579 541.882 545.981C537.695 548.446 511.772 529.504 510.552 525.712C509.333 521.92 512.766 517.168 514.898 515.968C516.258 515.203 527.255 520.243 547.887 531.089V531.089C549.526 531.95 550.191 533.953 549.394 535.625Z" fill="white" stroke="#000014" stroke-linecap="round" stroke-linejoin="round"/>
<path d="M503.248 650.746C496.084 651.25 490.363 652.784 486.085 655.348C479.668 659.193 476.991 657.82 476.991 655.955C476.991 654.091 479.494 650.671 486.891 648.603C494.288 646.534 497.382 646.953 498.33 644.609C499.278 642.266 482.101 640.549 473.139 642.192C464.178 643.836 461.394 648.224 462.858 650.746C464.321 653.269 469.357 650.746 474.028 647.885C478.7 645.024 482.064 642.948 484.781 643.779C487.498 644.609 474.997 647.126 468.154 658.345" stroke="white" stroke-linecap="round"/>
<path fill-rule="evenodd" clip-rule="evenodd" d="M786.33 331.511H546.776V340.84H786.33V331.511Z" fill="white" stroke="#000014" stroke-linecap="round" stroke-linejoin="round"/>
<path fill-rule="evenodd" clip-rule="evenodd" d="M560.248 340.84V354.628H602.651C620.992 354.628 636.907 367.204 641.187 384.981L641.333 385.611L697.527 636.753C697.721 637.618 697.818 638.501 697.818 639.387C697.818 645.911 692.64 651.225 686.169 651.444L685.755 651.451H587.097V665.238H827.149C841.426 665.238 853 653.664 853 639.387C853 637.759 852.846 636.136 852.541 634.539L852.376 633.742L796.182 382.6C790.775 358.437 769.488 341.188 744.794 340.846L744.045 340.84H560.248Z" fill="#000014" stroke="#000014" stroke-linecap="round" stroke-linejoin="round"/>
<path fill-rule="evenodd" clip-rule="evenodd" d="M560.248 340.84V354.628H602.651C620.992 354.628 636.907 367.204 641.186 384.981L641.333 385.611L697.527 636.753C697.721 637.618 697.818 638.501 697.818 639.387C697.818 645.911 692.64 651.225 686.169 651.444L685.754 651.451H587.097V665.238H685.754C700.032 665.238 711.606 653.664 711.606 639.387C711.606 637.759 711.452 636.136 711.147 634.539L710.982 633.742L654.787 382.6C649.381 358.437 628.094 341.188 603.4 340.846L602.651 340.84H560.248Z" fill="white" stroke="#000014" stroke-linecap="round" stroke-linejoin="round"/>
</g>
</svg>
