<?xml version="1.0" encoding="utf-8"?>
<!-- Generator: Adobe Illustrator 16.0.0, SVG Export Plug-In . SVG Version: 6.00 Build 0)  -->
<!DOCTYPE svg PUBLIC "-//W3C//DTD SVG 1.1//EN" "http://www.w3.org/Graphics/SVG/1.1/DTD/svg11.dtd">
<svg version="1.1" id="Layer_1" xmlns="http://www.w3.org/2000/svg" xmlns:xlink="http://www.w3.org/1999/xlink" x="0px" y="0px"
	 width="195px" height="150px" viewBox="0 0 195 150" enable-background="new 0 0 195 150" xml:space="preserve">
<path fill="#F15B2B" d="M62.456,90.87c-2.163-0.034-3.915-0.268-5.261-0.7c-1.347-0.432-2.412-1.038-3.192-1.819
	c-0.782-0.781-1.313-1.729-1.596-2.843c-0.283-1.112-0.425-2.367-0.425-3.765V52.864l7.431-1.198v28.58
	c0,0.664,0.051,1.264,0.149,1.796c0.101,0.531,0.291,0.98,0.574,1.346c0.282,0.368,0.689,0.665,1.222,0.898
	c0.532,0.233,1.248,0.383,2.146,0.448L62.456,90.87z M45.698,56.555c0,1.363-0.441,2.437-1.322,3.216
	c-0.881,0.782-1.92,1.173-3.118,1.173c-1.198,0-2.236-0.391-3.117-1.173c-0.881-0.78-1.323-1.853-1.323-3.216
	c0-1.364,0.441-2.436,1.323-3.216c0.881-0.78,1.919-1.171,3.117-1.171c1.197,0,2.237,0.391,3.118,1.171
	C45.259,54.119,45.698,55.191,45.698,56.555z M45,90.371h-7.43V64.135H45V90.371z M69.185,78.698
	c1.75,4.457,3.479,8.347,5.181,11.673h6.166c1.7-3.326,3.427-7.216,5.177-11.673c1.751-4.455,3.41-9.31,4.979-14.563h-7.686
	c-0.333,1.296-0.727,2.702-1.177,4.215c-0.451,1.514-0.918,3.043-1.402,4.589c-0.484,1.547-0.976,3.053-1.477,4.514
	c-0.499,1.465-0.966,2.794-1.401,3.992c-0.467-1.198-0.944-2.527-1.428-3.992c-0.484-1.463-0.969-2.969-1.453-4.514
	c-0.484-1.545-0.952-3.075-1.403-4.589c-0.45-1.513-0.844-2.918-1.177-4.215h-7.879C65.772,69.389,67.432,74.244,69.185,78.698z
	 M92.681,77.452c0-2.328,0.358-4.363,1.073-6.11c0.715-1.745,1.654-3.2,2.817-4.363c1.165-1.165,2.501-2.045,4.015-2.643
	s3.067-0.898,4.663-0.898c3.724,0,6.666,1.14,8.828,3.417c2.161,2.278,3.242,5.628,3.242,10.051c0,0.431-0.018,0.905-0.05,1.42
	c-0.033,0.517-0.067,0.973-0.102,1.37h-16.856c0.164,1.528,0.879,2.743,2.143,3.641c1.263,0.898,2.96,1.347,5.089,1.347
	c1.361,0,2.699-0.124,4.014-0.374c1.313-0.249,2.386-0.557,3.218-0.922l0.998,6.034c-0.398,0.2-0.932,0.399-1.597,0.599
	c-0.664,0.199-1.404,0.374-2.221,0.522c-0.813,0.148-1.688,0.273-2.617,0.374c-0.933,0.102-1.862,0.148-2.795,0.148
	c-2.361,0-4.412-0.347-6.157-1.045s-3.193-1.654-4.34-2.87c-1.147-1.213-1.995-2.649-2.544-4.314
	C92.955,81.178,92.681,79.382,92.681,77.452z M110.139,74.608c-0.034-0.631-0.143-1.246-0.326-1.845
	c-0.183-0.598-0.465-1.13-0.848-1.596c-0.383-0.465-0.864-0.847-1.446-1.147c-0.581-0.3-1.305-0.449-2.169-0.449
	c-0.833,0-1.546,0.141-2.146,0.424c-0.599,0.284-1.098,0.658-1.496,1.124c-0.397,0.465-0.707,1.005-0.921,1.62
	c-0.217,0.616-0.374,1.238-0.474,1.869H110.139z M128.267,90.17c1.347,0.433,3.1,0.666,5.262,0.7l1.047-6.136
	c-0.898-0.065-1.612-0.215-2.146-0.448s-0.94-0.53-1.223-0.898c-0.282-0.365-0.472-0.814-0.573-1.346
	c-0.098-0.532-0.148-1.132-0.148-1.796v-28.58l-7.431,1.198v28.879c0,1.397,0.142,2.652,0.424,3.765
	c0.283,1.114,0.813,2.062,1.598,2.843C125.854,89.132,126.921,89.738,128.267,90.17z M163.354,77.203
	c0,2.062-0.299,3.947-0.897,5.661s-1.464,3.176-2.593,4.391c-1.131,1.213-2.486,2.152-4.065,2.817
	c-1.58,0.664-3.351,0.998-5.311,0.998c-1.928,0-3.684-0.334-5.263-0.998c-1.578-0.665-2.935-1.604-4.063-2.817
	c-1.13-1.215-2.012-2.677-2.642-4.391c-0.633-1.711-0.948-3.6-0.948-5.661s0.324-3.941,0.972-5.636
	c0.647-1.694,1.545-3.142,2.692-4.339c1.148-1.198,2.512-2.127,4.089-2.794c1.58-0.665,3.302-0.998,5.163-0.998
	c1.896,0,3.633,0.333,5.213,0.998c1.58,0.665,2.935,1.596,4.063,2.794c1.13,1.197,2.013,2.645,2.646,4.339
	C163.038,73.262,163.354,75.142,163.354,77.203z M155.775,77.203c0-2.295-0.459-4.097-1.371-5.412
	c-0.916-1.313-2.22-1.97-3.916-1.97s-3.011,0.657-3.939,1.97c-0.933,1.313-1.397,3.117-1.397,5.412s0.465,4.114,1.397,5.463
	c0.93,1.345,2.243,2.02,3.939,2.02s3-0.675,3.916-2.02C155.316,81.317,155.775,79.498,155.775,77.203z M192.73,82.79
	c0.498-1.663,0.748-3.508,0.748-5.536c0-2.096-0.306-3.992-0.922-5.687c-0.618-1.697-1.507-3.134-2.669-4.315
	c-1.165-1.181-2.595-2.095-4.29-2.743c-1.692-0.647-3.623-0.972-5.784-0.972c-0.898,0-1.838,0.043-2.82,0.125
	c-0.979,0.084-1.943,0.192-2.891,0.325c-0.95,0.132-1.856,0.29-2.72,0.473c-0.867,0.182-1.63,0.374-2.294,0.573V99.6h7.431v-9.876
	c0.833,0.365,1.697,0.647,2.594,0.848c0.897,0.199,1.863,0.299,2.894,0.299c1.861,0,3.508-0.333,4.937-0.998
	c1.429-0.664,2.628-1.596,3.592-2.793C191.497,85.883,192.23,84.454,192.73,82.79z M184.354,71.942
	c1.027,1.38,1.545,3.216,1.545,5.51c0,4.756-1.765,7.132-5.288,7.136c-0.766,0-1.521-0.102-2.269-0.301
	c-0.747-0.199-1.354-0.448-1.821-0.748V70.123c0.368-0.067,0.832-0.125,1.397-0.175c0.564-0.05,1.181-0.074,1.845-0.074
	C181.791,69.873,183.321,70.562,184.354,71.942z M6.716,85.678l5.717,4.089V53.11H4.325C2.488,53.11,1,54.598,1,56.434v33.333
	L6.716,85.678z M35.383,53.108l-6.85,11.377H14.461V53.108H35.383z M14.461,68.211V79.19h4.702l7.043-10.979H14.461z M12.433,91.475
	l-5.717,8.858L1,91.475H12.433z"/>
</svg>
