<?xml version="1.0" encoding="utf-8"?>
<!-- Generator: Adobe Illustrator 16.0.0, SVG Export Plug-In . SVG Version: 6.00 Build 0)  -->
<!DOCTYPE svg PUBLIC "-//W3C//DTD SVG 1.1//EN" "http://www.w3.org/Graphics/SVG/1.1/DTD/svg11.dtd">
<svg version="1.1" id="Layer_1" xmlns="http://www.w3.org/2000/svg" xmlns:xlink="http://www.w3.org/1999/xlink" x="0px" y="0px"
	 width="432px" height="251px" viewBox="128.5 87 432 251" enable-background="new 128.5 87 432 251" xml:space="preserve">
<path d="M237.788,100.142c0,0.532,0.065,1.017,0.196,1.456c0.13,0.429,0.317,0.798,0.56,1.106c0.252,0.299,0.555,0.532,0.91,0.7
	c0.354,0.168,0.756,0.252,1.204,0.252c0.438,0,0.835-0.084,1.19-0.252c0.354-0.168,0.653-0.401,0.896-0.7
	c0.252-0.308,0.443-0.677,0.574-1.106c0.13-0.439,0.196-0.924,0.196-1.456c0-0.532-0.066-1.013-0.196-1.442
	c-0.131-0.439-0.322-0.808-0.574-1.106c-0.243-0.308-0.542-0.546-0.896-0.714c-0.355-0.168-0.752-0.252-1.19-0.252
	c-0.448,0-0.85,0.084-1.204,0.252c-0.355,0.168-0.658,0.406-0.91,0.714c-0.243,0.308-0.43,0.677-0.56,1.106
	C237.853,99.129,237.788,99.61,237.788,100.142z M245.362,100.142c0,0.831-0.126,1.563-0.378,2.198
	c-0.243,0.635-0.579,1.167-1.008,1.596c-0.42,0.42-0.915,0.737-1.484,0.952c-0.57,0.215-1.176,0.322-1.82,0.322
	s-1.256-0.107-1.834-0.322c-0.57-0.215-1.069-0.532-1.498-0.952c-0.42-0.429-0.756-0.961-1.008-1.596
	c-0.252-0.635-0.378-1.367-0.378-2.198c0-0.831,0.126-1.559,0.378-2.184c0.252-0.635,0.592-1.167,1.022-1.596
	c0.438-0.429,0.942-0.751,1.512-0.966c0.569-0.215,1.171-0.322,1.806-0.322c0.634,0,1.236,0.107,1.806,0.322
	c0.569,0.215,1.064,0.537,1.484,0.966c0.429,0.43,0.77,0.961,1.022,1.596C245.236,98.583,245.362,99.312,245.362,100.142z
	 M249.089,105c-0.467-0.961-0.948-2.063-1.442-3.304c-0.486-1.251-0.929-2.59-1.33-4.018h1.806c0.102,0.411,0.219,0.854,0.35,1.33
	c0.14,0.467,0.284,0.938,0.434,1.414c0.158,0.467,0.317,0.924,0.476,1.372c0.168,0.439,0.322,0.835,0.462,1.19
	c0.14-0.355,0.289-0.751,0.448-1.19c0.158-0.448,0.312-0.905,0.462-1.372c0.158-0.476,0.308-0.947,0.448-1.414
	c0.14-0.476,0.261-0.919,0.364-1.33h1.75c-0.402,1.428-0.85,2.767-1.344,4.018c-0.486,1.241-0.962,2.343-1.428,3.304H249.089z
	 M254.012,101.374c0-0.644,0.093-1.209,0.28-1.694c0.196-0.485,0.453-0.887,0.77-1.204c0.317-0.327,0.681-0.569,1.092-0.728
	c0.411-0.168,0.831-0.252,1.26-0.252c1.008,0,1.792,0.313,2.352,0.938c0.569,0.625,0.854,1.559,0.854,2.8
	c0,0.093-0.005,0.201-0.014,0.322c0,0.112-0.005,0.215-0.014,0.308h-4.83c0.047,0.588,0.252,1.045,0.616,1.372
	c0.373,0.317,0.91,0.476,1.61,0.476c0.411,0,0.784-0.037,1.12-0.112c0.345-0.075,0.616-0.154,0.812-0.238l0.224,1.386
	c-0.093,0.047-0.224,0.098-0.392,0.154c-0.159,0.047-0.345,0.089-0.56,0.126c-0.205,0.047-0.429,0.084-0.672,0.112
	c-0.243,0.028-0.49,0.042-0.742,0.042c-0.645,0-1.204-0.093-1.68-0.28c-0.476-0.196-0.868-0.462-1.176-0.798
	c-0.308-0.345-0.537-0.747-0.686-1.204C254.087,102.433,254.012,101.925,254.012,101.374z M258.926,100.618
	c0-0.233-0.033-0.453-0.098-0.658c-0.065-0.215-0.163-0.396-0.294-0.546c-0.121-0.159-0.275-0.28-0.462-0.364
	c-0.177-0.093-0.393-0.14-0.645-0.14c-0.261,0-0.49,0.051-0.686,0.154c-0.196,0.093-0.364,0.219-0.504,0.378
	c-0.131,0.159-0.233,0.341-0.309,0.546c-0.075,0.205-0.126,0.415-0.154,0.63H258.926z M266.588,99.204
	c-0.14-0.047-0.336-0.093-0.588-0.14c-0.243-0.056-0.527-0.084-0.854-0.084c-0.187,0-0.387,0.019-0.602,0.056
	c-0.205,0.037-0.35,0.07-0.434,0.098V105h-1.694v-6.972c0.327-0.121,0.733-0.233,1.218-0.336c0.495-0.112,1.041-0.168,1.638-0.168
	c0.112,0,0.243,0.009,0.392,0.028c0.149,0.01,0.299,0.028,0.448,0.056c0.148,0.019,0.294,0.047,0.434,0.084
	c0.14,0.028,0.252,0.056,0.336,0.084L266.588,99.204z M267.978,95.746l1.694-0.28v2.212h2.604v1.414h-2.604v2.982
	c0,0.588,0.094,1.008,0.28,1.26c0.187,0.252,0.504,0.378,0.952,0.378c0.308,0,0.579-0.033,0.812-0.098
	c0.243-0.065,0.434-0.126,0.574-0.182l0.28,1.344c-0.196,0.084-0.452,0.168-0.771,0.252c-0.317,0.093-0.69,0.14-1.12,0.14
	c-0.521,0-0.961-0.07-1.315-0.21c-0.345-0.14-0.62-0.341-0.826-0.602c-0.205-0.271-0.35-0.593-0.434-0.966
	c-0.084-0.383-0.126-0.817-0.126-1.302V95.746z M275.622,105h-1.694v-7.322h1.694V105z M275.804,95.536
	c0,0.317-0.103,0.569-0.308,0.756s-0.448,0.28-0.728,0.28c-0.289,0-0.537-0.094-0.742-0.28c-0.205-0.187-0.308-0.438-0.308-0.756
	c0-0.327,0.104-0.583,0.308-0.77c0.205-0.187,0.453-0.28,0.742-0.28c0.28,0,0.523,0.093,0.728,0.28
	C275.701,94.953,275.804,95.209,275.804,95.536z M281.955,101.15c0-0.765-0.098-1.316-0.294-1.652
	c-0.187-0.345-0.541-0.518-1.064-0.518c-0.187,0-0.392,0.014-0.616,0.042s-0.392,0.051-0.504,0.07V105h-1.694v-7.084
	c0.327-0.093,0.751-0.182,1.274-0.266c0.532-0.084,1.092-0.126,1.68-0.126c0.504,0,0.915,0.065,1.231,0.196
	c0.327,0.131,0.597,0.304,0.813,0.518c0.103-0.075,0.233-0.154,0.392-0.238c0.159-0.084,0.336-0.159,0.532-0.224
	c0.196-0.075,0.401-0.135,0.616-0.182c0.224-0.046,0.448-0.07,0.672-0.07c0.569,0,1.036,0.084,1.4,0.252
	c0.373,0.159,0.663,0.387,0.868,0.686c0.215,0.29,0.359,0.644,0.435,1.064c0.084,0.411,0.126,0.863,0.126,1.358V105h-1.694v-3.85
	c0-0.765-0.093-1.316-0.28-1.652c-0.187-0.345-0.546-0.518-1.078-0.518c-0.271,0-0.527,0.047-0.77,0.14
	c-0.243,0.084-0.425,0.168-0.546,0.252c0.075,0.233,0.126,0.48,0.154,0.742c0.028,0.261,0.042,0.541,0.042,0.84V105h-1.694V101.15z
	 M289.49,101.374c0-0.644,0.094-1.209,0.28-1.694c0.196-0.485,0.453-0.887,0.77-1.204c0.318-0.327,0.682-0.569,1.092-0.728
	c0.411-0.168,0.831-0.252,1.26-0.252c1.008,0,1.792,0.313,2.352,0.938c0.57,0.625,0.854,1.559,0.854,2.8
	c0,0.093-0.004,0.201-0.014,0.322c0,0.112-0.004,0.215-0.014,0.308h-4.83c0.047,0.588,0.252,1.045,0.616,1.372
	c0.374,0.317,0.91,0.476,1.61,0.476c0.411,0,0.784-0.037,1.12-0.112c0.346-0.075,0.616-0.154,0.812-0.238l0.224,1.386
	c-0.093,0.047-0.224,0.098-0.392,0.154c-0.158,0.047-0.345,0.089-0.56,0.126c-0.205,0.047-0.429,0.084-0.672,0.112
	c-0.242,0.028-0.49,0.042-0.742,0.042c-0.644,0-1.204-0.093-1.68-0.28c-0.476-0.196-0.868-0.462-1.176-0.798
	c-0.308-0.345-0.536-0.747-0.686-1.204C289.565,102.433,289.49,101.925,289.49,101.374z M294.404,100.618
	c0-0.233-0.032-0.453-0.098-0.658c-0.065-0.215-0.163-0.396-0.294-0.546c-0.121-0.159-0.274-0.28-0.462-0.364
	c-0.177-0.093-0.392-0.14-0.644-0.14c-0.261,0-0.49,0.051-0.687,0.154c-0.196,0.093-0.364,0.219-0.504,0.378
	c-0.13,0.159-0.233,0.341-0.308,0.546c-0.074,0.205-0.126,0.415-0.154,0.63H294.404z"/>
<path d="M418.983,95.298v1.526h-2.982V105h-1.778v-8.176h-2.981v-1.526H418.983z M426.1,101.332c0,0.579-0.084,1.106-0.252,1.582
	s-0.405,0.882-0.714,1.218c-0.308,0.336-0.681,0.597-1.12,0.784c-0.429,0.187-0.904,0.28-1.428,0.28
	c-0.521,0-0.998-0.093-1.428-0.28s-0.798-0.448-1.106-0.784c-0.308-0.336-0.55-0.742-0.728-1.218
	c-0.168-0.476-0.252-1.003-0.252-1.582s0.084-1.101,0.252-1.568c0.178-0.476,0.42-0.882,0.728-1.218
	c0.318-0.336,0.691-0.593,1.12-0.77c0.43-0.187,0.901-0.28,1.414-0.28c0.514,0,0.985,0.093,1.414,0.28
	c0.439,0.177,0.813,0.434,1.12,0.77s0.546,0.742,0.714,1.218C426.012,100.231,426.1,100.753,426.1,101.332z M424.364,101.332
	c0-0.728-0.158-1.302-0.477-1.722c-0.308-0.429-0.741-0.644-1.302-0.644c-0.56,0-0.998,0.215-1.316,0.644
	c-0.308,0.42-0.462,0.994-0.462,1.722c0,0.737,0.154,1.321,0.462,1.75c0.318,0.429,0.757,0.644,1.316,0.644
	c0.561,0,0.994-0.215,1.302-0.644C424.206,102.653,424.364,102.069,424.364,101.332z M434.468,101.332
	c0,0.579-0.084,1.106-0.252,1.582s-0.405,0.882-0.714,1.218c-0.308,0.336-0.682,0.597-1.12,0.784c-0.43,0.187-0.905,0.28-1.428,0.28
	c-0.523,0-0.999-0.093-1.428-0.28c-0.431-0.187-0.798-0.448-1.106-0.784c-0.308-0.336-0.551-0.742-0.728-1.218
	c-0.169-0.476-0.253-1.003-0.253-1.582s0.084-1.101,0.253-1.568c0.177-0.476,0.42-0.882,0.728-1.218
	c0.317-0.336,0.69-0.593,1.12-0.77c0.429-0.187,0.899-0.28,1.414-0.28c0.513,0,0.983,0.093,1.414,0.28
	c0.438,0.177,0.812,0.434,1.12,0.77c0.308,0.336,0.546,0.742,0.714,1.218C434.379,100.231,434.468,100.753,434.468,101.332z
	 M432.732,101.332c0-0.728-0.159-1.302-0.477-1.722c-0.308-0.429-0.742-0.644-1.302-0.644s-0.999,0.215-1.316,0.644
	c-0.308,0.42-0.462,0.994-0.462,1.722c0,0.737,0.154,1.321,0.462,1.75c0.317,0.429,0.757,0.644,1.316,0.644s0.994-0.215,1.302-0.644
	C432.573,102.653,432.732,102.069,432.732,101.332z M439.074,101.374c0-0.644,0.094-1.209,0.279-1.694
	c0.196-0.485,0.453-0.887,0.771-1.204c0.318-0.327,0.682-0.569,1.092-0.728c0.411-0.168,0.831-0.252,1.261-0.252
	c1.008,0,1.791,0.313,2.352,0.938c0.57,0.625,0.854,1.559,0.854,2.8c0,0.093-0.004,0.201-0.014,0.322
	c0,0.112-0.004,0.215-0.014,0.308h-4.83c0.047,0.588,0.252,1.045,0.615,1.372c0.375,0.317,0.91,0.476,1.61,0.476
	c0.411,0,0.784-0.037,1.12-0.112c0.346-0.075,0.616-0.154,0.813-0.238l0.224,1.386c-0.093,0.047-0.224,0.098-0.392,0.154
	c-0.158,0.047-0.346,0.089-0.561,0.126c-0.205,0.047-0.429,0.084-0.672,0.112c-0.242,0.028-0.49,0.042-0.742,0.042
	c-0.644,0-1.204-0.093-1.68-0.28c-0.477-0.196-0.868-0.462-1.176-0.798c-0.309-0.345-0.536-0.747-0.687-1.204
	C439.148,102.433,439.074,101.925,439.074,101.374z M443.988,100.618c0-0.233-0.032-0.453-0.099-0.658
	c-0.064-0.215-0.163-0.396-0.294-0.546c-0.121-0.159-0.274-0.28-0.462-0.364c-0.177-0.093-0.392-0.14-0.644-0.14
	c-0.262,0-0.49,0.051-0.687,0.154c-0.195,0.093-0.364,0.219-0.504,0.378c-0.13,0.159-0.232,0.341-0.308,0.546
	c-0.074,0.205-0.126,0.415-0.154,0.63H443.988z M450.054,103.81c0.523,0,0.92-0.028,1.19-0.084v-1.876
	c-0.093-0.028-0.229-0.056-0.406-0.084c-0.177-0.028-0.373-0.042-0.588-0.042c-0.186,0-0.378,0.014-0.574,0.042
	c-0.186,0.028-0.358,0.079-0.518,0.154c-0.149,0.075-0.271,0.182-0.364,0.322c-0.093,0.131-0.14,0.299-0.14,0.504
	c0,0.401,0.126,0.681,0.378,0.84C449.284,103.735,449.625,103.81,450.054,103.81z M449.914,97.496c0.56,0,1.032,0.07,1.414,0.21
	c0.383,0.14,0.686,0.336,0.91,0.588c0.233,0.252,0.396,0.56,0.49,0.924c0.103,0.355,0.153,0.747,0.153,1.176v4.438
	c-0.261,0.056-0.658,0.121-1.189,0.196c-0.522,0.084-1.115,0.126-1.778,0.126c-0.438,0-0.84-0.042-1.204-0.126
	s-0.676-0.219-0.938-0.406c-0.252-0.187-0.451-0.429-0.602-0.728c-0.14-0.299-0.21-0.667-0.21-1.106c0-0.42,0.08-0.775,0.238-1.064
	c0.168-0.289,0.392-0.523,0.672-0.7c0.28-0.187,0.602-0.317,0.966-0.392c0.374-0.084,0.761-0.126,1.162-0.126
	c0.188,0,0.383,0.014,0.588,0.042c0.206,0.019,0.425,0.056,0.658,0.112v-0.28c0-0.196-0.023-0.383-0.07-0.56
	c-0.046-0.177-0.13-0.331-0.252-0.462c-0.111-0.14-0.266-0.247-0.462-0.322c-0.187-0.075-0.424-0.112-0.714-0.112
	c-0.393,0-0.751,0.028-1.078,0.084c-0.326,0.056-0.592,0.122-0.798,0.196l-0.21-1.372c0.215-0.075,0.527-0.149,0.938-0.224
	C449.009,97.533,449.448,97.496,449.914,97.496z M459.129,99.204c-0.14-0.047-0.336-0.093-0.588-0.14
	c-0.243-0.056-0.527-0.084-0.854-0.084c-0.188,0-0.388,0.019-0.603,0.056c-0.205,0.037-0.35,0.07-0.434,0.098V105h-1.694v-6.972
	c0.327-0.121,0.732-0.233,1.218-0.336c0.495-0.112,1.041-0.168,1.638-0.168c0.112,0,0.243,0.009,0.393,0.028
	c0.148,0.01,0.299,0.028,0.448,0.056c0.148,0.019,0.294,0.047,0.434,0.084c0.14,0.028,0.252,0.056,0.336,0.084L459.129,99.204z
	 M463.151,105.14c-0.505-0.009-0.925-0.065-1.261-0.168c-0.326-0.103-0.588-0.247-0.783-0.434c-0.196-0.196-0.336-0.434-0.42-0.714
	c-0.074-0.289-0.112-0.616-0.112-0.98v-8.428l1.694-0.28v8.386c0,0.205,0.014,0.378,0.041,0.518c0.038,0.14,0.099,0.261,0.183,0.364
	c0.084,0.093,0.196,0.168,0.336,0.224c0.149,0.047,0.336,0.084,0.56,0.112L463.151,105.14z M470.738,97.678
	c-0.756,2.781-1.635,5.301-2.633,7.56c-0.187,0.42-0.377,0.779-0.573,1.078c-0.196,0.299-0.416,0.546-0.658,0.742
	c-0.243,0.196-0.514,0.336-0.812,0.42c-0.3,0.093-0.645,0.14-1.036,0.14c-0.263,0-0.523-0.028-0.784-0.084
	c-0.252-0.056-0.444-0.117-0.574-0.182l0.309-1.358c0.336,0.131,0.666,0.196,0.993,0.196c0.438,0,0.779-0.107,1.022-0.322
	c0.252-0.205,0.471-0.527,0.658-0.966c-0.532-1.027-1.047-2.147-1.54-3.36c-0.486-1.213-0.921-2.501-1.303-3.864h1.807
	c0.093,0.392,0.205,0.817,0.336,1.274c0.14,0.457,0.289,0.924,0.448,1.4c0.157,0.467,0.325,0.933,0.504,1.4
	c0.177,0.467,0.354,0.901,0.531,1.302c0.299-0.831,0.578-1.713,0.84-2.646c0.262-0.943,0.5-1.853,0.715-2.73H470.738z"/>
<path d="M339.632,95.298h1.765V105h-1.765V95.298z M344.966,101.318c0,0.747,0.177,1.335,0.532,1.764
	c0.354,0.42,0.844,0.63,1.47,0.63c0.271,0,0.499-0.009,0.687-0.028c0.195-0.028,0.354-0.056,0.476-0.084v-4.2
	c-0.149-0.103-0.35-0.196-0.602-0.28c-0.243-0.093-0.505-0.14-0.784-0.14c-0.616,0-1.069,0.21-1.358,0.63
	C345.105,100.03,344.966,100.599,344.966,101.318z M349.824,104.776c-0.336,0.103-0.762,0.196-1.274,0.28
	c-0.504,0.084-1.036,0.126-1.596,0.126c-0.579,0-1.097-0.089-1.554-0.266c-0.459-0.177-0.851-0.429-1.176-0.756
	c-0.318-0.336-0.565-0.737-0.742-1.204c-0.168-0.476-0.252-1.008-0.252-1.596c0-0.579,0.069-1.101,0.209-1.568
	c0.149-0.476,0.364-0.882,0.645-1.218c0.28-0.336,0.62-0.593,1.021-0.77c0.401-0.187,0.863-0.28,1.387-0.28
	c0.354,0,0.667,0.042,0.938,0.126s0.504,0.177,0.7,0.28v-3.514l1.694-0.28V104.776z M351.568,101.374
	c0-0.644,0.095-1.209,0.281-1.694c0.195-0.485,0.452-0.887,0.77-1.204c0.318-0.327,0.682-0.569,1.092-0.728
	c0.411-0.168,0.831-0.252,1.26-0.252c1.008,0,1.792,0.313,2.353,0.938c0.569,0.625,0.854,1.559,0.854,2.8
	c0,0.093-0.004,0.201-0.014,0.322c0,0.112-0.004,0.215-0.015,0.308h-4.83c0.048,0.588,0.253,1.045,0.617,1.372
	c0.373,0.317,0.909,0.476,1.609,0.476c0.411,0,0.784-0.037,1.12-0.112c0.346-0.075,0.616-0.154,0.812-0.238l0.225,1.386
	c-0.094,0.047-0.225,0.098-0.393,0.154c-0.158,0.047-0.345,0.089-0.56,0.126c-0.205,0.047-0.429,0.084-0.672,0.112
	c-0.242,0.028-0.49,0.042-0.742,0.042c-0.644,0-1.204-0.093-1.68-0.28c-0.477-0.196-0.868-0.462-1.177-0.798
	c-0.308-0.345-0.535-0.747-0.686-1.204C351.645,102.433,351.568,101.925,351.568,101.374z M356.482,100.618
	c0-0.233-0.031-0.453-0.098-0.658c-0.064-0.215-0.163-0.396-0.294-0.546c-0.121-0.159-0.274-0.28-0.462-0.364
	c-0.177-0.093-0.392-0.14-0.645-0.14c-0.26,0-0.489,0.051-0.686,0.154c-0.195,0.093-0.363,0.219-0.504,0.378
	c-0.13,0.159-0.232,0.341-0.308,0.546c-0.074,0.205-0.126,0.415-0.154,0.63H356.482z M362.55,103.81c0.522,0,0.919-0.028,1.19-0.084
	v-1.876c-0.094-0.028-0.229-0.056-0.406-0.084c-0.178-0.028-0.374-0.042-0.588-0.042c-0.188,0-0.378,0.014-0.574,0.042
	c-0.188,0.028-0.359,0.079-0.518,0.154c-0.15,0.075-0.271,0.182-0.364,0.322c-0.094,0.131-0.14,0.299-0.14,0.504
	c0,0.401,0.125,0.681,0.378,0.84C361.78,103.735,362.12,103.81,362.55,103.81z M362.41,97.496c0.56,0,1.031,0.07,1.414,0.21
	c0.382,0.14,0.686,0.336,0.91,0.588c0.232,0.252,0.396,0.56,0.49,0.924c0.102,0.355,0.153,0.747,0.153,1.176v4.438
	c-0.262,0.056-0.658,0.121-1.19,0.196c-0.522,0.084-1.115,0.126-1.777,0.126c-0.439,0-0.84-0.042-1.204-0.126
	s-0.677-0.219-0.938-0.406c-0.252-0.187-0.453-0.429-0.602-0.728c-0.141-0.299-0.21-0.667-0.21-1.106
	c0-0.42,0.079-0.775,0.237-1.064c0.169-0.289,0.393-0.523,0.673-0.7c0.28-0.187,0.602-0.317,0.966-0.392
	c0.373-0.084,0.76-0.126,1.162-0.126c0.186,0,0.382,0.014,0.588,0.042c0.205,0.019,0.424,0.056,0.658,0.112v-0.28
	c0-0.196-0.024-0.383-0.07-0.56c-0.047-0.177-0.131-0.331-0.252-0.462c-0.111-0.14-0.266-0.247-0.462-0.322
	c-0.187-0.075-0.425-0.112-0.714-0.112c-0.393,0-0.752,0.028-1.078,0.084c-0.327,0.056-0.593,0.122-0.798,0.196l-0.21-1.372
	c0.214-0.075,0.527-0.149,0.938-0.224S361.943,97.496,362.41,97.496z M370,105.14c-0.504-0.009-0.924-0.065-1.26-0.168
	c-0.327-0.103-0.588-0.247-0.784-0.434c-0.196-0.196-0.336-0.434-0.42-0.714c-0.075-0.289-0.112-0.616-0.112-0.98v-8.428l1.694-0.28
	v8.386c0,0.205,0.014,0.378,0.042,0.518c0.037,0.14,0.098,0.261,0.182,0.364c0.084,0.093,0.196,0.168,0.336,0.224
	c0.149,0.047,0.336,0.084,0.561,0.112L370,105.14z"/>
<path d="M519.326,95.298v1.526h-2.982V105h-1.777v-8.176h-2.982v-1.526H519.326z M526.444,101.332c0,0.579-0.084,1.106-0.252,1.582
	c-0.169,0.476-0.406,0.882-0.714,1.218c-0.309,0.336-0.682,0.597-1.121,0.784c-0.429,0.187-0.904,0.28-1.428,0.28
	c-0.522,0-0.999-0.093-1.428-0.28s-0.798-0.448-1.105-0.784c-0.309-0.336-0.552-0.742-0.729-1.218
	c-0.168-0.476-0.252-1.003-0.252-1.582s0.084-1.101,0.252-1.568c0.177-0.476,0.42-0.882,0.729-1.218
	c0.316-0.336,0.69-0.593,1.119-0.77c0.43-0.187,0.901-0.28,1.414-0.28c0.514,0,0.985,0.093,1.414,0.28
	c0.439,0.177,0.813,0.434,1.12,0.77s0.546,0.742,0.714,1.218C526.355,100.231,526.444,100.753,526.444,101.332z M524.708,101.332
	c0-0.728-0.159-1.302-0.476-1.722c-0.309-0.429-0.742-0.644-1.303-0.644c-0.56,0-0.999,0.215-1.315,0.644
	c-0.309,0.42-0.462,0.994-0.462,1.722c0,0.737,0.153,1.321,0.462,1.75c0.316,0.429,0.756,0.644,1.315,0.644
	c0.561,0,0.994-0.215,1.303-0.644C524.549,102.653,524.708,102.069,524.708,101.332z M528.105,95.746l1.693-0.28v2.212h2.604v1.414
	h-2.604v2.982c0,0.588,0.094,1.008,0.28,1.26s0.504,0.378,0.952,0.378c0.308,0,0.579-0.033,0.812-0.098
	c0.243-0.065,0.435-0.126,0.574-0.182l0.28,1.344c-0.196,0.084-0.452,0.168-0.771,0.252c-0.316,0.093-0.689,0.14-1.12,0.14
	c-0.521,0-0.961-0.07-1.315-0.21c-0.345-0.14-0.62-0.341-0.826-0.602c-0.205-0.271-0.351-0.593-0.435-0.966
	c-0.084-0.383-0.125-0.817-0.125-1.302V95.746z M536.617,103.81c0.522,0,0.919-0.028,1.189-0.084v-1.876
	c-0.093-0.028-0.229-0.056-0.405-0.084c-0.178-0.028-0.373-0.042-0.589-0.042c-0.187,0-0.377,0.014-0.573,0.042
	c-0.188,0.028-0.359,0.079-0.519,0.154c-0.148,0.075-0.271,0.182-0.363,0.322c-0.094,0.131-0.141,0.299-0.141,0.504
	c0,0.401,0.126,0.681,0.378,0.84C535.847,103.735,536.188,103.81,536.617,103.81z M536.477,97.496c0.561,0,1.031,0.07,1.414,0.21
	s0.687,0.336,0.91,0.588c0.233,0.252,0.397,0.56,0.49,0.924c0.104,0.355,0.154,0.747,0.154,1.176v4.438
	c-0.262,0.056-0.658,0.121-1.19,0.196c-0.522,0.084-1.115,0.126-1.778,0.126c-0.438,0-0.84-0.042-1.203-0.126
	c-0.364-0.084-0.678-0.219-0.938-0.406c-0.252-0.187-0.453-0.429-0.603-0.728c-0.14-0.299-0.209-0.667-0.209-1.106
	c0-0.42,0.078-0.775,0.237-1.064c0.168-0.289,0.393-0.523,0.672-0.7c0.28-0.187,0.603-0.317,0.966-0.392
	c0.373-0.084,0.762-0.126,1.162-0.126c0.188,0,0.384,0.014,0.588,0.042c0.205,0.019,0.426,0.056,0.658,0.112v-0.28
	c0-0.196-0.022-0.383-0.069-0.56c-0.048-0.177-0.132-0.331-0.252-0.462c-0.112-0.14-0.267-0.247-0.462-0.322
	c-0.188-0.075-0.426-0.112-0.715-0.112c-0.392,0-0.751,0.028-1.078,0.084c-0.326,0.056-0.593,0.122-0.798,0.196l-0.21-1.372
	c0.215-0.075,0.527-0.149,0.938-0.224S536.01,97.496,536.477,97.496z M544.067,105.14c-0.505-0.009-0.925-0.065-1.261-0.168
	c-0.326-0.103-0.588-0.247-0.783-0.434c-0.196-0.196-0.336-0.434-0.42-0.714c-0.074-0.289-0.112-0.616-0.112-0.98v-8.428l1.694-0.28
	v8.386c0,0.205,0.014,0.378,0.041,0.518c0.038,0.14,0.099,0.261,0.183,0.364c0.084,0.093,0.196,0.168,0.336,0.224
	c0.149,0.047,0.336,0.084,0.56,0.112L544.067,105.14z"/>
<path d="M139.276,141.298c0.205,0.355,0.434,0.789,0.686,1.302s0.509,1.055,0.77,1.624c0.261,0.56,0.518,1.134,0.77,1.722
	c0.261,0.579,0.499,1.115,0.714,1.61c0.215-0.495,0.448-1.031,0.7-1.61c0.252-0.588,0.509-1.162,0.77-1.722
	c0.261-0.569,0.518-1.111,0.77-1.624s0.481-0.947,0.686-1.302h1.596c0.084,0.709,0.163,1.465,0.238,2.268
	c0.075,0.793,0.14,1.61,0.196,2.45c0.065,0.831,0.121,1.671,0.168,2.52c0.056,0.84,0.103,1.661,0.14,2.464h-1.736
	c-0.037-1.129-0.084-2.291-0.14-3.486c-0.047-1.195-0.121-2.352-0.224-3.472c-0.103,0.215-0.224,0.471-0.364,0.77
	s-0.289,0.625-0.448,0.98c-0.159,0.345-0.322,0.705-0.49,1.078c-0.159,0.373-0.317,0.737-0.476,1.092
	c-0.149,0.345-0.289,0.672-0.42,0.98c-0.131,0.299-0.243,0.555-0.336,0.77h-1.316c-0.093-0.215-0.205-0.476-0.336-0.784
	c-0.131-0.308-0.275-0.635-0.434-0.979c-0.149-0.355-0.308-0.719-0.476-1.092c-0.159-0.373-0.317-0.733-0.476-1.078
	c-0.159-0.345-0.308-0.667-0.448-0.966c-0.14-0.308-0.261-0.565-0.364-0.77c-0.103,1.12-0.182,2.277-0.238,3.472
	c-0.047,1.195-0.089,2.357-0.126,3.486h-1.736c0.037-0.803,0.079-1.633,0.126-2.492c0.056-0.859,0.112-1.708,0.168-2.548
	c0.065-0.849,0.135-1.671,0.21-2.464c0.075-0.793,0.154-1.526,0.238-2.198H139.276z M152.027,149.81c0.523,0,0.919-0.028,1.19-0.084
	v-1.876c-0.093-0.028-0.229-0.056-0.406-0.084s-0.373-0.042-0.588-0.042c-0.187,0-0.378,0.014-0.574,0.042
	c-0.187,0.028-0.359,0.079-0.518,0.154c-0.149,0.075-0.271,0.182-0.364,0.322c-0.093,0.131-0.14,0.299-0.14,0.504
	c0,0.401,0.126,0.681,0.378,0.84C151.257,149.735,151.598,149.81,152.027,149.81z M151.887,143.496c0.561,0,1.031,0.07,1.414,0.21
	c0.383,0.14,0.686,0.336,0.91,0.588c0.233,0.252,0.397,0.56,0.49,0.924c0.103,0.355,0.154,0.747,0.154,1.176v4.438
	c-0.261,0.056-0.658,0.121-1.19,0.196c-0.523,0.084-1.115,0.126-1.778,0.126c-0.438,0-0.84-0.042-1.204-0.126
	c-0.364-0.084-0.677-0.219-0.938-0.406c-0.252-0.187-0.453-0.429-0.602-0.728c-0.14-0.299-0.21-0.667-0.21-1.106
	c0-0.42,0.079-0.775,0.238-1.064c0.168-0.289,0.392-0.523,0.672-0.7c0.28-0.187,0.602-0.317,0.966-0.392
	c0.373-0.084,0.761-0.126,1.162-0.126c0.187,0,0.383,0.014,0.588,0.042c0.205,0.019,0.425,0.056,0.658,0.112v-0.28
	c0-0.196-0.023-0.383-0.07-0.56c-0.047-0.177-0.131-0.331-0.252-0.462c-0.112-0.14-0.266-0.247-0.462-0.322
	c-0.187-0.075-0.425-0.112-0.714-0.112c-0.392,0-0.751,0.028-1.078,0.084c-0.327,0.056-0.593,0.121-0.798,0.196l-0.21-1.372
	c0.215-0.075,0.527-0.149,0.938-0.224C150.982,143.533,151.42,143.496,151.887,143.496z M156.846,141.746l1.694-0.28v2.212h2.604
	v1.414h-2.604v2.982c0,0.588,0.093,1.008,0.28,1.26c0.186,0.252,0.504,0.378,0.952,0.378c0.308,0,0.578-0.033,0.812-0.098
	c0.242-0.065,0.434-0.126,0.574-0.182l0.28,1.344c-0.196,0.084-0.453,0.168-0.77,0.252c-0.318,0.093-0.691,0.14-1.12,0.14
	c-0.523,0-0.962-0.07-1.316-0.21c-0.346-0.14-0.621-0.341-0.826-0.602c-0.206-0.271-0.35-0.593-0.434-0.966
	c-0.084-0.383-0.126-0.817-0.126-1.302V141.746z M162.781,151v-10.584l1.694-0.28v3.626c0.187-0.064,0.401-0.121,0.644-0.168
	c0.252-0.047,0.499-0.07,0.742-0.07c0.588,0,1.073,0.084,1.456,0.252c0.392,0.159,0.705,0.387,0.938,0.686
	c0.233,0.289,0.397,0.639,0.49,1.05c0.103,0.411,0.154,0.868,0.154,1.372V151h-1.694v-3.85c0-0.392-0.028-0.723-0.084-0.994
	c-0.047-0.28-0.131-0.504-0.252-0.672c-0.112-0.177-0.266-0.303-0.462-0.378c-0.196-0.084-0.439-0.126-0.728-0.126
	c-0.224,0-0.453,0.023-0.686,0.07c-0.233,0.047-0.406,0.089-0.518,0.126V151H162.781z M172.764,149.782
	c0.448,0,0.774-0.051,0.98-0.154c0.205-0.112,0.308-0.299,0.308-0.56c0-0.243-0.112-0.443-0.336-0.602
	c-0.215-0.159-0.574-0.331-1.078-0.518c-0.308-0.112-0.593-0.229-0.854-0.35c-0.252-0.131-0.472-0.28-0.658-0.448
	c-0.187-0.168-0.336-0.369-0.448-0.602c-0.103-0.243-0.154-0.537-0.154-0.882c0-0.672,0.247-1.199,0.742-1.582
	c0.494-0.392,1.166-0.588,2.016-0.588c0.429,0,0.84,0.042,1.232,0.126c0.392,0.075,0.686,0.149,0.882,0.224l-0.308,1.372
	c-0.187-0.084-0.425-0.159-0.714-0.224c-0.29-0.075-0.626-0.112-1.008-0.112c-0.346,0-0.626,0.061-0.84,0.182
	c-0.215,0.112-0.322,0.289-0.322,0.532c0,0.121,0.018,0.229,0.056,0.322c0.046,0.093,0.121,0.182,0.224,0.266
	c0.102,0.075,0.238,0.154,0.406,0.238c0.168,0.075,0.373,0.154,0.616,0.238c0.401,0.149,0.742,0.299,1.022,0.448
	c0.28,0.14,0.508,0.303,0.686,0.49c0.186,0.177,0.322,0.383,0.406,0.616c0.084,0.233,0.126,0.513,0.126,0.84
	c0,0.7-0.262,1.232-0.784,1.596c-0.514,0.355-1.251,0.532-2.212,0.532c-0.644,0-1.162-0.056-1.554-0.168
	c-0.392-0.103-0.668-0.187-0.826-0.252l0.294-1.414c0.252,0.103,0.55,0.201,0.896,0.294
	C171.914,149.735,172.316,149.782,172.764,149.782z"/>
<path opacity="0.12" fill="#F25A29" enable-background="new    " d="M247,128h38c3.313,0,6,2.687,6,6v24c0,3.313-2.687,6-6,6h-38
	c-3.313,0-6-2.687-6-6v-24C241,130.687,243.687,128,247,128z"/>
<path fill="#000014" d="M264.47,150h-1.638v-7.21l-1.526,1.582l-0.952-0.994l2.688-2.716h1.428V150z M269.718,150.168
	c-1.503,0-2.66-0.481-3.472-1.442l0.938-1.12c0.653,0.737,1.493,1.106,2.52,1.106c0.579,0,1.041-0.154,1.386-0.462
	c0.355-0.317,0.532-0.709,0.532-1.176c0-0.504-0.173-0.905-0.518-1.204c-0.336-0.308-0.789-0.462-1.358-0.462
	c-0.793,0-1.475,0.271-2.044,0.812l-1.162-0.336v-5.222h6.118v1.442h-4.48v2.702c0.541-0.541,1.246-0.812,2.114-0.812
	c0.821,0,1.521,0.275,2.1,0.826c0.588,0.541,0.882,1.269,0.882,2.184c0,0.961-0.331,1.731-0.994,2.31
	C271.627,149.883,270.773,150.168,269.718,150.168z"/>
<path fill="#F25A29" d="M241,134c0-3.314,2.686-6,6-6v36c-3.314,0-6-2.686-6-6V134z"/>
<path opacity="0.12" fill="#FFC107" enable-background="new    " d="M422,128h38c3.313,0,6,2.687,6,6v24c0,3.313-2.687,6-6,6h-38
	c-3.313,0-6-2.687-6-6v-24C416,130.687,418.687,128,422,128z"/>
<path fill="#000014" d="M439.354,150h-1.639v-7.21l-1.525,1.582l-0.952-0.994l2.688-2.716h1.429V150z M446.338,149.748
	c-0.495,0.28-1.055,0.42-1.68,0.42c-0.626,0-1.187-0.14-1.68-0.42c-0.495-0.28-0.888-0.653-1.177-1.12
	c-0.29-0.467-0.509-0.98-0.657-1.54c-0.15-0.56-0.225-1.143-0.225-1.75s0.074-1.19,0.225-1.75c0.148-0.56,0.367-1.069,0.657-1.526
	c0.289-0.467,0.682-0.84,1.177-1.12c0.493-0.28,1.054-0.42,1.68-0.42c0.625,0,1.185,0.14,1.68,0.42
	c0.494,0.28,0.886,0.653,1.176,1.12c0.289,0.457,0.508,0.966,0.658,1.526c0.149,0.56,0.225,1.143,0.225,1.75s-0.075,1.19-0.225,1.75
	c-0.15,0.56-0.369,1.073-0.658,1.54C447.224,149.095,446.832,149.468,446.338,149.748z M443.09,147.76
	c0.336,0.635,0.858,0.952,1.568,0.952c0.709,0,1.231-0.317,1.568-0.952c0.336-0.635,0.504-1.442,0.504-2.422
	c0-0.625-0.066-1.181-0.196-1.666c-0.122-0.485-0.347-0.887-0.672-1.204c-0.318-0.327-0.72-0.49-1.204-0.49
	c-0.486,0-0.893,0.163-1.219,0.49c-0.317,0.317-0.541,0.719-0.672,1.204c-0.121,0.485-0.182,1.041-0.182,1.666
	C442.586,146.318,442.754,147.125,443.09,147.76z"/>
<path fill="#FFC107" d="M416,134c0-3.314,2.686-6,6-6v36c-3.314,0-6-2.686-6-6V134z"/>
<path opacity="0.12" fill="#03A9F4" enable-background="new    " d="M335,128h38c3.313,0,6,2.687,6,6v24c0,3.313-2.687,6-6,6h-38
	c-3.313,0-6-2.687-6-6v-24C329,130.687,331.687,128,335,128z"/>
<path fill="#000014" d="M354.602,150h-6.762v-1.288c1.95-1.475,3.276-2.567,3.977-3.276c0.709-0.719,1.063-1.395,1.063-2.03
	c0-0.457-0.168-0.807-0.504-1.05c-0.327-0.252-0.724-0.378-1.19-0.378c-1.026,0-1.867,0.373-2.52,1.12l-0.952-1.078
	c0.401-0.485,0.905-0.854,1.513-1.106c0.615-0.261,1.26-0.392,1.932-0.392c0.951,0,1.754,0.257,2.408,0.77
	c0.652,0.513,0.979,1.218,0.979,2.114c0,0.803-0.336,1.601-1.008,2.394s-1.699,1.713-3.08,2.758h4.144V150z M359.722,150.168
	c-1.503,0-2.659-0.481-3.472-1.442l0.938-1.12c0.653,0.737,1.494,1.106,2.521,1.106c0.578,0,1.04-0.154,1.386-0.462
	c0.354-0.317,0.532-0.709,0.532-1.176c0-0.504-0.173-0.905-0.519-1.204c-0.336-0.308-0.789-0.462-1.357-0.462
	c-0.794,0-1.475,0.271-2.044,0.812l-1.162-0.336v-5.222h6.118v1.442h-4.48v2.702c0.541-0.541,1.246-0.812,2.114-0.812
	c0.821,0,1.521,0.275,2.101,0.826c0.588,0.541,0.882,1.269,0.882,2.184c0,0.961-0.332,1.731-0.994,2.31
	C361.63,149.883,360.775,150.168,359.722,150.168z"/>
<path fill="#03A9F4" d="M329,134c0-3.314,2.686-6,6-6v36c-3.314,0-6-2.686-6-6V134z"/>
<path opacity="0.12" fill="#FFC107" enable-background="new    " d="M509,128h38c3.313,0,6,2.687,6,6v24c0,3.313-2.687,6-6,6h-38
	c-3.313,0-6-2.687-6-6v-24C503,130.687,505.687,128,509,128z"/>
<path fill="#000014" d="M524.745,150.168c-1.502,0-2.66-0.481-3.472-1.442l0.938-1.12c0.654,0.737,1.494,1.106,2.52,1.106
	c0.58,0,1.041-0.154,1.387-0.462c0.354-0.317,0.531-0.709,0.531-1.176c0-0.504-0.172-0.905-0.518-1.204
	c-0.336-0.308-0.788-0.462-1.357-0.462c-0.793,0-1.475,0.271-2.045,0.812l-1.161-0.336v-5.222h6.118v1.442h-4.48v2.702
	c0.542-0.541,1.246-0.812,2.114-0.812c0.821,0,1.521,0.275,2.1,0.826c0.588,0.541,0.882,1.269,0.882,2.184
	c0,0.961-0.331,1.731-0.994,2.31C526.654,149.883,525.8,150.168,524.745,150.168z M534.876,149.748
	c-0.495,0.28-1.055,0.42-1.68,0.42c-0.626,0-1.187-0.14-1.681-0.42c-0.494-0.28-0.887-0.653-1.176-1.12
	c-0.29-0.467-0.509-0.98-0.658-1.54s-0.224-1.143-0.224-1.75s0.074-1.19,0.224-1.75s0.368-1.069,0.658-1.526
	c0.289-0.467,0.682-0.84,1.176-1.12c0.494-0.28,1.055-0.42,1.681-0.42c0.625,0,1.185,0.14,1.68,0.42
	c0.494,0.28,0.886,0.653,1.176,1.12c0.289,0.457,0.509,0.966,0.658,1.526s0.224,1.143,0.224,1.75s-0.074,1.19-0.224,1.75
	s-0.369,1.073-0.658,1.54C535.762,149.095,535.37,149.468,534.876,149.748z M531.628,147.76c0.336,0.635,0.858,0.952,1.568,0.952
	c0.709,0,1.231-0.317,1.567-0.952c0.336-0.635,0.504-1.442,0.504-2.422c0-0.625-0.065-1.181-0.195-1.666
	c-0.122-0.485-0.346-0.887-0.672-1.204c-0.318-0.327-0.72-0.49-1.204-0.49c-0.486,0-0.893,0.163-1.218,0.49
	c-0.318,0.317-0.543,0.719-0.673,1.204c-0.122,0.485-0.182,1.041-0.182,1.666C531.124,146.318,531.292,147.125,531.628,147.76z"/>
<path fill="#FFC107" d="M503,134c0-3.314,2.686-6,6-6v36c-3.314,0-6-2.686-6-6V134z"/>
<path d="M139.906,197.2c1.409,0,2.487,0.257,3.234,0.77c0.756,0.513,1.134,1.316,1.134,2.408c0,0.569-0.103,1.059-0.308,1.47
	c-0.196,0.401-0.485,0.733-0.868,0.994c-0.383,0.252-0.849,0.439-1.4,0.56c-0.551,0.121-1.181,0.182-1.89,0.182h-0.882V207h-1.764
	v-9.562c0.411-0.093,0.863-0.154,1.358-0.182C139.024,197.219,139.486,197.2,139.906,197.2z M140.032,198.726
	c-0.448,0-0.817,0.014-1.106,0.042v3.304h0.854c0.849,0,1.503-0.117,1.96-0.35c0.457-0.243,0.686-0.695,0.686-1.358
	c0-0.317-0.061-0.583-0.182-0.798c-0.121-0.215-0.289-0.383-0.504-0.504c-0.215-0.121-0.471-0.205-0.771-0.252
	C140.681,198.754,140.368,198.726,140.032,198.726z M145.801,207v-10.584l1.694-0.28v3.626c0.186-0.064,0.401-0.121,0.644-0.168
	c0.252-0.047,0.499-0.07,0.742-0.07c0.588,0,1.073,0.084,1.456,0.252c0.392,0.159,0.704,0.387,0.938,0.686
	c0.233,0.289,0.396,0.639,0.49,1.05c0.102,0.411,0.154,0.868,0.154,1.372V207h-1.694v-3.85c0-0.392-0.028-0.723-0.084-0.994
	c-0.047-0.28-0.131-0.504-0.252-0.672c-0.112-0.177-0.266-0.303-0.462-0.378c-0.196-0.084-0.438-0.126-0.728-0.126
	c-0.224,0-0.453,0.023-0.686,0.07c-0.234,0.047-0.406,0.089-0.518,0.126V207H145.801z M159.722,199.678
	c-0.756,2.781-1.633,5.301-2.632,7.561c-0.187,0.42-0.378,0.779-0.574,1.078c-0.196,0.299-0.415,0.546-0.658,0.742
	c-0.243,0.196-0.513,0.336-0.812,0.42c-0.299,0.093-0.644,0.14-1.036,0.14c-0.261,0-0.523-0.028-0.784-0.084
	c-0.252-0.056-0.443-0.117-0.574-0.182l0.308-1.358c0.336,0.131,0.667,0.196,0.994,0.196c0.439,0,0.779-0.107,1.022-0.322
	c0.252-0.205,0.471-0.527,0.658-0.966c-0.532-1.027-1.045-2.147-1.54-3.36c-0.485-1.213-0.919-2.501-1.302-3.864h1.806
	c0.093,0.392,0.205,0.817,0.336,1.274c0.14,0.457,0.289,0.924,0.448,1.4c0.159,0.467,0.327,0.933,0.504,1.4
	c0.177,0.467,0.355,0.901,0.532,1.302c0.299-0.831,0.579-1.713,0.84-2.646c0.261-0.943,0.499-1.853,0.714-2.73H159.722z
	 M162.838,205.782c0.448,0,0.774-0.051,0.98-0.154c0.205-0.112,0.308-0.299,0.308-0.56c0-0.243-0.112-0.443-0.336-0.602
	c-0.215-0.159-0.574-0.331-1.078-0.518c-0.308-0.112-0.593-0.229-0.854-0.35c-0.252-0.131-0.472-0.28-0.658-0.448
	c-0.187-0.168-0.336-0.369-0.448-0.602c-0.103-0.243-0.154-0.537-0.154-0.882c0-0.672,0.247-1.199,0.742-1.582
	c0.494-0.392,1.166-0.588,2.016-0.588c0.429,0,0.84,0.042,1.232,0.126c0.392,0.075,0.686,0.149,0.882,0.224l-0.308,1.372
	c-0.187-0.084-0.425-0.159-0.714-0.224c-0.29-0.075-0.626-0.112-1.008-0.112c-0.346,0-0.626,0.061-0.84,0.182
	c-0.215,0.112-0.322,0.289-0.322,0.532c0,0.121,0.018,0.229,0.056,0.322c0.046,0.093,0.121,0.182,0.224,0.266
	c0.102,0.075,0.238,0.154,0.406,0.238c0.168,0.075,0.373,0.154,0.616,0.238c0.401,0.149,0.742,0.299,1.022,0.448
	c0.28,0.14,0.508,0.303,0.686,0.49c0.186,0.177,0.322,0.383,0.406,0.616c0.084,0.233,0.126,0.513,0.126,0.84
	c0,0.7-0.262,1.232-0.784,1.596c-0.514,0.355-1.251,0.532-2.212,0.532c-0.644,0-1.162-0.056-1.554-0.168
	c-0.392-0.103-0.668-0.187-0.826-0.252l0.294-1.414c0.252,0.103,0.55,0.201,0.896,0.294
	C161.988,205.735,162.39,205.782,162.838,205.782z M169.11,207h-1.694v-7.322h1.694V207z M169.292,197.536
	c0,0.317-0.102,0.569-0.308,0.756c-0.205,0.187-0.448,0.28-0.728,0.28c-0.289,0-0.536-0.093-0.742-0.28
	c-0.205-0.187-0.308-0.439-0.308-0.756c0-0.327,0.103-0.583,0.308-0.77c0.206-0.187,0.453-0.28,0.742-0.28
	c0.28,0,0.523,0.093,0.728,0.28C169.19,196.953,169.292,197.209,169.292,197.536z M170.865,203.346c0-0.541,0.084-1.045,0.252-1.512
	c0.168-0.476,0.406-0.887,0.714-1.232c0.318-0.345,0.7-0.616,1.148-0.812c0.448-0.196,0.952-0.294,1.512-0.294
	c0.691,0,1.344,0.126,1.96,0.378l-0.364,1.386c-0.196-0.084-0.42-0.154-0.672-0.21c-0.242-0.056-0.504-0.084-0.784-0.084
	c-0.662,0-1.166,0.21-1.512,0.63c-0.345,0.411-0.518,0.994-0.518,1.75c0,0.728,0.164,1.307,0.49,1.736
	c0.327,0.42,0.878,0.63,1.652,0.63c0.29,0,0.574-0.028,0.854-0.084c0.28-0.056,0.523-0.126,0.728-0.21l0.238,1.4
	c-0.186,0.093-0.471,0.177-0.854,0.252c-0.373,0.075-0.76,0.112-1.162,0.112c-0.625,0-1.171-0.093-1.638-0.28
	c-0.457-0.196-0.84-0.462-1.148-0.798c-0.298-0.345-0.521-0.751-0.672-1.218C170.94,204.41,170.865,203.897,170.865,203.346z
	 M179.709,205.782c0.448,0,0.775-0.051,0.98-0.154c0.205-0.112,0.308-0.299,0.308-0.56c0-0.243-0.112-0.443-0.336-0.602
	c-0.215-0.159-0.574-0.331-1.078-0.518c-0.308-0.112-0.593-0.229-0.854-0.35c-0.252-0.131-0.471-0.28-0.658-0.448
	s-0.336-0.369-0.448-0.602c-0.103-0.243-0.154-0.537-0.154-0.882c0-0.672,0.247-1.199,0.742-1.582
	c0.495-0.392,1.167-0.588,2.016-0.588c0.429,0,0.84,0.042,1.232,0.126c0.392,0.075,0.686,0.149,0.882,0.224l-0.308,1.372
	c-0.187-0.084-0.425-0.159-0.714-0.224c-0.289-0.075-0.625-0.112-1.008-0.112c-0.345,0-0.625,0.061-0.84,0.182
	c-0.215,0.112-0.322,0.289-0.322,0.532c0,0.121,0.019,0.229,0.056,0.322c0.047,0.093,0.121,0.182,0.224,0.266
	c0.103,0.075,0.238,0.154,0.406,0.238c0.168,0.075,0.373,0.154,0.616,0.238c0.401,0.149,0.742,0.299,1.022,0.448
	c0.28,0.14,0.509,0.303,0.686,0.49c0.187,0.177,0.322,0.383,0.406,0.616c0.084,0.233,0.126,0.513,0.126,0.84
	c0,0.7-0.261,1.232-0.784,1.596c-0.513,0.355-1.251,0.532-2.212,0.532c-0.644,0-1.162-0.056-1.554-0.168
	c-0.392-0.103-0.667-0.187-0.826-0.252l0.294-1.414c0.252,0.103,0.551,0.201,0.896,0.294
	C178.86,205.735,179.261,205.782,179.709,205.782z"/>
<path opacity="0.12" fill="#F25A29" enable-background="new    " d="M247,184h38c3.313,0,6,2.687,6,6v24c0,3.313-2.687,6-6,6h-38
	c-3.313,0-6-2.687-6-6v-24C241,186.687,243.687,184,247,184z"/>
<path fill="#000014" d="M266.485,206h-6.762v-1.288c1.951-1.475,3.276-2.567,3.976-3.276c0.71-0.719,1.063-1.395,1.063-2.03
	c0-0.457-0.168-0.807-0.504-1.05c-0.326-0.252-0.723-0.378-1.19-0.378c-1.026,0-1.866,0.373-2.52,1.12l-0.952-1.078
	c0.402-0.485,0.906-0.854,1.512-1.106c0.616-0.261,1.26-0.392,1.932-0.392c0.952,0,1.755,0.257,2.408,0.77
	c0.654,0.513,0.979,1.218,0.979,2.114c0,0.803-0.336,1.601-1.008,2.394s-1.698,1.713-3.08,2.758h4.144V206z M273.342,205.748
	c-0.495,0.28-1.055,0.42-1.68,0.42c-0.626,0-1.186-0.14-1.68-0.42c-0.495-0.28-0.887-0.653-1.176-1.12
	c-0.29-0.467-0.509-0.98-0.658-1.54c-0.15-0.56-0.224-1.143-0.224-1.75s0.074-1.19,0.224-1.75c0.149-0.56,0.368-1.069,0.658-1.526
	c0.289-0.467,0.681-0.84,1.176-1.12c0.494-0.28,1.054-0.42,1.68-0.42c0.625,0,1.185,0.14,1.68,0.42
	c0.494,0.28,0.886,0.653,1.176,1.12c0.289,0.457,0.508,0.966,0.658,1.526c0.149,0.56,0.224,1.143,0.224,1.75s-0.075,1.19-0.224,1.75
	c-0.15,0.56-0.369,1.073-0.658,1.54C274.228,205.095,273.836,205.468,273.342,205.748z M270.094,203.76
	c0.336,0.635,0.858,0.952,1.568,0.952c0.709,0,1.232-0.317,1.568-0.952c0.336-0.635,0.504-1.442,0.504-2.422
	c0-0.625-0.066-1.181-0.196-1.666c-0.122-0.485-0.346-0.887-0.672-1.204c-0.318-0.327-0.719-0.49-1.204-0.49
	c-0.486,0-0.892,0.163-1.218,0.49c-0.318,0.317-0.542,0.719-0.672,1.204c-0.122,0.485-0.182,1.041-0.182,1.666
	C269.59,202.318,269.758,203.125,270.094,203.76z"/>
<path fill="#F25A29" d="M241,190c0-3.314,2.686-6,6-6v36c-3.314,0-6-2.686-6-6V190z"/>
<path opacity="0.12" fill="#03A9F4" enable-background="new    " d="M422,184h38c3.313,0,6,2.687,6,6v24c0,3.313-2.687,6-6,6h-38
	c-3.313,0-6-2.687-6-6v-24C416,186.687,418.687,184,422,184z"/>
<path fill="#000014" d="M439.354,206h-1.639v-7.21l-1.525,1.582l-0.952-0.994l2.688-2.716h1.429V206z M446.338,205.748
	c-0.495,0.28-1.055,0.42-1.68,0.42c-0.626,0-1.187-0.14-1.68-0.42c-0.495-0.28-0.888-0.653-1.177-1.12
	c-0.29-0.467-0.509-0.98-0.657-1.54c-0.15-0.56-0.225-1.143-0.225-1.75s0.074-1.19,0.225-1.75c0.148-0.56,0.367-1.069,0.657-1.526
	c0.289-0.467,0.682-0.84,1.177-1.12c0.493-0.28,1.054-0.42,1.68-0.42c0.625,0,1.185,0.14,1.68,0.42
	c0.494,0.28,0.886,0.653,1.176,1.12c0.289,0.457,0.508,0.966,0.658,1.526c0.149,0.56,0.225,1.143,0.225,1.75s-0.075,1.19-0.225,1.75
	c-0.15,0.56-0.369,1.073-0.658,1.54C447.224,205.095,446.832,205.468,446.338,205.748z M443.09,203.76
	c0.336,0.635,0.858,0.952,1.568,0.952c0.709,0,1.231-0.317,1.568-0.952c0.336-0.635,0.504-1.442,0.504-2.422
	c0-0.625-0.066-1.181-0.196-1.666c-0.122-0.485-0.347-0.887-0.672-1.204c-0.318-0.327-0.72-0.49-1.204-0.49
	c-0.486,0-0.893,0.163-1.219,0.49c-0.317,0.317-0.541,0.719-0.672,1.204c-0.121,0.485-0.182,1.041-0.182,1.666
	C442.586,202.318,442.754,203.125,443.09,203.76z"/>
<path fill="#03A9F4" d="M416,190c0-3.314,2.686-6,6-6v36c-3.314,0-6-2.686-6-6V190z"/>
<path opacity="0.12" fill="#FFC107" enable-background="new    " d="M335,184h38c3.313,0,6,2.687,6,6v24c0,3.313-2.687,6-6,6h-38
	c-3.313,0-6-2.687-6-6v-24C329,186.687,331.687,184,335,184z"/>
<path fill="#000014" d="M352.47,206h-1.638v-7.21l-1.525,1.582l-0.953-0.994l2.688-2.716h1.428V206z M357.718,206.168
	c-1.503,0-2.659-0.481-3.472-1.442l0.938-1.12c0.653,0.737,1.493,1.106,2.521,1.106c0.579,0,1.041-0.154,1.386-0.462
	c0.355-0.317,0.532-0.709,0.532-1.176c0-0.504-0.173-0.905-0.519-1.204c-0.336-0.308-0.789-0.462-1.357-0.462
	c-0.793,0-1.475,0.271-2.044,0.812l-1.162-0.336v-5.222h6.118v1.442h-4.48v2.702c0.541-0.541,1.246-0.812,2.114-0.812
	c0.821,0,1.521,0.275,2.101,0.826c0.588,0.541,0.881,1.269,0.881,2.184c0,0.961-0.33,1.731-0.993,2.31
	C359.627,205.883,358.773,206.168,357.718,206.168z"/>
<path fill="#FFC107" d="M329,190c0-3.314,2.686-6,6-6v36c-3.314,0-6-2.686-6-6V190z"/>
<path opacity="0.12" fill="#03A9F4" enable-background="new    " d="M509,184h38c3.313,0,6,2.687,6,6v24c0,3.313-2.687,6-6,6h-38
	c-3.313,0-6-2.687-6-6v-24C503,186.687,505.687,184,509,184z"/>
<path fill="#000014" d="M527.724,206h-1.638v-2.114h-4.452v-1.316l3.836-5.908h2.254v5.782h1.246v1.442h-1.246V206z
	 M526.086,202.444v-4.312l-2.842,4.312H526.086z M533.619,206.168c-1.502,0-2.66-0.481-3.473-1.442l0.938-1.12
	c0.654,0.737,1.494,1.106,2.521,1.106c0.578,0,1.041-0.154,1.386-0.462c0.354-0.317,0.532-0.709,0.532-1.176
	c0-0.504-0.172-0.905-0.519-1.204c-0.336-0.308-0.788-0.462-1.358-0.462c-0.793,0-1.474,0.271-2.043,0.812l-1.162-0.336v-5.222
	h6.117v1.442h-4.479v2.702c0.542-0.541,1.246-0.812,2.114-0.812c0.821,0,1.521,0.275,2.1,0.826c0.588,0.541,0.882,1.269,0.882,2.184
	c0,0.961-0.331,1.731-0.994,2.31C535.528,205.883,534.674,206.168,533.619,206.168z"/>
<path fill="#03A9F4" d="M503,190c0-3.314,2.686-6,6-6v36c-3.314,0-6-2.686-6-6V190z"/>
<path d="M140.088,263.111c-0.513,0-1.031-0.019-1.554-0.055c-0.523-0.029-0.98-0.094-1.372-0.197v-9.422
	c0.205-0.037,0.425-0.069,0.658-0.098c0.233-0.037,0.471-0.064,0.714-0.084c0.243-0.02,0.481-0.033,0.714-0.042
	c0.243-0.009,0.471-0.014,0.686-0.014c0.588,0,1.134,0.047,1.638,0.14c0.504,0.084,0.938,0.229,1.302,0.434
	c0.373,0.205,0.663,0.477,0.868,0.813s0.308,0.751,0.308,1.246c0,0.457-0.112,0.85-0.336,1.176c-0.215,0.327-0.518,0.588-0.91,0.784
	c0.588,0.196,1.022,0.485,1.302,0.868s0.42,0.867,0.42,1.456c0,0.999-0.364,1.75-1.092,2.254
	C142.706,262.865,141.591,263.111,140.088,263.111z M138.898,258.632v2.954c0.196,0.02,0.406,0.033,0.63,0.042
	c0.224,0.009,0.429,0.015,0.616,0.015c0.364,0,0.7-0.023,1.008-0.07c0.317-0.047,0.588-0.126,0.812-0.238
	c0.233-0.121,0.415-0.28,0.546-0.477c0.14-0.195,0.21-0.447,0.21-0.756c0-0.551-0.201-0.933-0.602-1.147
	c-0.401-0.215-0.957-0.322-1.666-0.322H138.898z M138.898,257.246h1.246c0.672,0,1.199-0.094,1.582-0.28
	c0.383-0.196,0.574-0.541,0.574-1.036c0-0.467-0.201-0.798-0.602-0.994c-0.392-0.195-0.905-0.293-1.54-0.293
	c-0.271,0-0.513,0.004-0.728,0.014c-0.205,0.009-0.383,0.023-0.532,0.042V257.246z M147.987,263h-1.694v-7.322h1.694V263z
	 M148.169,253.536c0,0.317-0.102,0.569-0.308,0.756c-0.205,0.187-0.448,0.28-0.728,0.28c-0.289,0-0.536-0.094-0.742-0.28
	c-0.205-0.187-0.308-0.438-0.308-0.756c0-0.327,0.103-0.583,0.308-0.771c0.206-0.187,0.453-0.279,0.742-0.279
	c0.28,0,0.523,0.093,0.728,0.279C148.067,252.953,148.169,253.209,148.169,253.536z M156.77,259.332
	c0,0.579-0.084,1.105-0.252,1.582s-0.406,0.882-0.714,1.218c-0.308,0.336-0.681,0.597-1.12,0.784
	c-0.429,0.188-0.905,0.28-1.428,0.28c-0.522,0-0.998-0.093-1.428-0.28c-0.429-0.188-0.798-0.448-1.106-0.784
	s-0.55-0.741-0.728-1.218c-0.168-0.477-0.252-1.003-0.252-1.582s0.084-1.102,0.252-1.568c0.178-0.476,0.42-0.882,0.728-1.218
	c0.318-0.336,0.691-0.593,1.12-0.771c0.43-0.187,0.901-0.279,1.414-0.279c0.514,0,0.985,0.093,1.414,0.279
	c0.439,0.178,0.812,0.435,1.12,0.771s0.546,0.742,0.714,1.218C156.682,258.23,156.77,258.753,156.77,259.332z M155.034,259.332
	c0-0.729-0.158-1.302-0.476-1.723c-0.308-0.428-0.742-0.644-1.302-0.644s-0.998,0.216-1.316,0.644
	c-0.308,0.421-0.462,0.994-0.462,1.723c0,0.736,0.154,1.32,0.462,1.75c0.318,0.429,0.756,0.645,1.316,0.645s0.994-0.216,1.302-0.645
	C154.876,260.652,155.034,260.068,155.034,259.332z M161.064,263.141c-0.504-0.01-0.924-0.065-1.26-0.168
	c-0.327-0.104-0.588-0.248-0.784-0.435c-0.196-0.196-0.336-0.435-0.42-0.714c-0.075-0.289-0.112-0.616-0.112-0.98v-8.428l1.694-0.28
	v8.386c0,0.205,0.014,0.379,0.042,0.519c0.037,0.14,0.098,0.261,0.182,0.364c0.084,0.093,0.196,0.168,0.336,0.224
	c0.149,0.047,0.336,0.084,0.56,0.112L161.064,263.141z M169.294,259.332c0,0.579-0.084,1.105-0.252,1.582s-0.406,0.882-0.714,1.218
	c-0.308,0.336-0.682,0.597-1.12,0.784c-0.43,0.188-0.906,0.28-1.428,0.28c-0.523,0-0.999-0.093-1.428-0.28
	c-0.43-0.188-0.798-0.448-1.106-0.784s-0.551-0.741-0.728-1.218c-0.168-0.477-0.252-1.003-0.252-1.582s0.084-1.102,0.252-1.568
	c0.177-0.476,0.42-0.882,0.728-1.218c0.317-0.336,0.69-0.593,1.12-0.771c0.429-0.187,0.9-0.279,1.414-0.279
	c0.513,0,0.984,0.093,1.414,0.279c0.438,0.178,0.812,0.435,1.12,0.771s0.546,0.742,0.714,1.218
	C169.205,258.23,169.294,258.753,169.294,259.332z M167.558,259.332c0-0.729-0.159-1.302-0.476-1.723
	c-0.308-0.428-0.742-0.644-1.302-0.644c-0.561,0-0.999,0.216-1.316,0.644c-0.308,0.421-0.462,0.994-0.462,1.723
	c0,0.736,0.154,1.32,0.462,1.75c0.317,0.429,0.756,0.645,1.316,0.645c0.56,0,0.994-0.216,1.302-0.645
	C167.399,260.652,167.558,260.068,167.558,259.332z M172.369,259.15c0,0.719,0.154,1.246,0.462,1.582
	c0.317,0.326,0.723,0.49,1.218,0.49c0.271,0,0.523-0.037,0.756-0.113c0.243-0.074,0.439-0.162,0.588-0.266v-3.794
	c-0.121-0.028-0.271-0.051-0.448-0.069c-0.177-0.028-0.401-0.043-0.672-0.043c-0.616,0-1.087,0.205-1.414,0.616
	C172.532,257.955,172.369,258.486,172.369,259.15z M177.087,262.258c0,1.167-0.299,2.021-0.896,2.563
	c-0.588,0.541-1.493,0.812-2.716,0.812c-0.448,0-0.887-0.037-1.316-0.112c-0.42-0.074-0.803-0.172-1.148-0.293l0.308-1.442
	c0.289,0.121,0.616,0.219,0.98,0.294c0.373,0.074,0.775,0.111,1.204,0.111c0.681,0,1.167-0.14,1.456-0.42
	c0.289-0.279,0.434-0.694,0.434-1.246v-0.279c-0.168,0.084-0.392,0.168-0.672,0.252c-0.271,0.084-0.583,0.126-0.938,0.126
	c-0.467,0-0.896-0.075-1.288-0.224c-0.383-0.149-0.714-0.369-0.994-0.658c-0.271-0.289-0.485-0.649-0.644-1.078
	c-0.149-0.439-0.224-0.943-0.224-1.512c0-0.532,0.079-1.022,0.238-1.471c0.168-0.447,0.406-0.83,0.714-1.147
	c0.317-0.317,0.7-0.565,1.148-0.742c0.448-0.177,0.957-0.267,1.526-0.267c0.551,0,1.073,0.043,1.568,0.127s0.915,0.173,1.26,0.266
	V262.258z M185.22,255.678c-0.756,2.781-1.633,5.301-2.632,7.561c-0.187,0.42-0.378,0.779-0.574,1.078
	c-0.196,0.299-0.415,0.545-0.658,0.742c-0.243,0.195-0.513,0.336-0.812,0.42c-0.299,0.093-0.644,0.14-1.036,0.14
	c-0.261,0-0.523-0.028-0.784-0.084c-0.252-0.056-0.443-0.117-0.574-0.183l0.308-1.357c0.336,0.131,0.667,0.195,0.994,0.195
	c0.439,0,0.779-0.106,1.022-0.321c0.252-0.205,0.471-0.527,0.658-0.966c-0.532-1.027-1.045-2.147-1.54-3.36
	c-0.485-1.213-0.919-2.501-1.302-3.864h1.806c0.093,0.393,0.205,0.817,0.336,1.274c0.14,0.457,0.289,0.924,0.448,1.399
	c0.159,0.467,0.327,0.934,0.504,1.4c0.177,0.467,0.355,0.9,0.532,1.302c0.299-0.831,0.579-1.713,0.84-2.646
	c0.261-0.943,0.499-1.854,0.714-2.73H185.22z"/>
<path opacity="0.12" fill="#03A9F4" enable-background="new    " d="M247,240h38c3.313,0,6,2.687,6,6v24c0,3.313-2.687,6-6,6h-38
	c-3.313,0-6-2.687-6-6v-24C241,242.687,243.687,240,247,240z"/>
<path fill="#000014" d="M264.353,262h-1.638v-7.21l-1.526,1.582l-0.952-0.994l2.688-2.716h1.428V262z M271.338,261.748
	c-0.495,0.279-1.055,0.42-1.68,0.42c-0.626,0-1.187-0.141-1.68-0.42c-0.495-0.28-0.887-0.653-1.176-1.12
	c-0.29-0.467-0.509-0.979-0.658-1.54c-0.15-0.561-0.224-1.143-0.224-1.75s0.074-1.189,0.224-1.75
	c0.149-0.561,0.368-1.068,0.658-1.525c0.289-0.468,0.681-0.84,1.176-1.121c0.494-0.279,1.054-0.42,1.68-0.42
	c0.625,0,1.185,0.141,1.68,0.42c0.494,0.281,0.886,0.653,1.176,1.121c0.289,0.457,0.508,0.965,0.658,1.525
	c0.149,0.561,0.224,1.143,0.224,1.75s-0.075,1.189-0.224,1.75c-0.15,0.561-0.369,1.073-0.658,1.54
	C272.224,261.095,271.832,261.468,271.338,261.748z M268.09,259.76c0.336,0.635,0.858,0.952,1.568,0.952
	c0.709,0,1.232-0.317,1.568-0.952s0.504-1.441,0.504-2.422c0-0.625-0.066-1.181-0.196-1.666c-0.122-0.484-0.346-0.887-0.672-1.204
	c-0.318-0.327-0.719-0.489-1.204-0.489c-0.486,0-0.892,0.162-1.218,0.489c-0.318,0.317-0.542,0.72-0.672,1.204
	c-0.122,0.485-0.182,1.041-0.182,1.666C267.586,258.318,267.754,259.125,268.09,259.76z"/>
<path fill="#03A9F4" d="M241,246c0-3.314,2.686-6,6-6v36c-3.314,0-6-2.686-6-6V246z"/>
<path opacity="0.12" fill="#FFC107" enable-background="new    " d="M422,240h38c3.313,0,6,2.687,6,6v24c0,3.313-2.687,6-6,6h-38
	c-3.313,0-6-2.687-6-6v-24C416,242.687,418.687,240,422,240z"/>
<path fill="#000014" d="M439.354,262h-1.639v-7.21l-1.525,1.582l-0.952-0.994l2.688-2.716h1.429V262z M446.338,261.748
	c-0.495,0.279-1.055,0.42-1.68,0.42c-0.626,0-1.187-0.141-1.68-0.42c-0.495-0.28-0.888-0.653-1.177-1.12
	c-0.29-0.467-0.509-0.979-0.657-1.54c-0.15-0.561-0.225-1.143-0.225-1.75s0.074-1.189,0.225-1.75
	c0.148-0.561,0.367-1.068,0.657-1.525c0.289-0.468,0.682-0.84,1.177-1.121c0.493-0.279,1.054-0.42,1.68-0.42
	c0.625,0,1.185,0.141,1.68,0.42c0.494,0.281,0.886,0.653,1.176,1.121c0.289,0.457,0.508,0.965,0.658,1.525
	c0.149,0.561,0.225,1.143,0.225,1.75s-0.075,1.189-0.225,1.75c-0.15,0.561-0.369,1.073-0.658,1.54
	C447.224,261.095,446.832,261.468,446.338,261.748z M443.09,259.76c0.336,0.635,0.858,0.952,1.568,0.952
	c0.709,0,1.231-0.317,1.568-0.952c0.336-0.635,0.504-1.441,0.504-2.422c0-0.625-0.066-1.181-0.196-1.666
	c-0.122-0.484-0.347-0.887-0.672-1.204c-0.318-0.327-0.72-0.489-1.204-0.489c-0.486,0-0.893,0.162-1.219,0.489
	c-0.317,0.317-0.541,0.72-0.672,1.204c-0.121,0.485-0.182,1.041-0.182,1.666C442.586,258.318,442.754,259.125,443.09,259.76z"/>
<path fill="#FFC107" d="M416,246c0-3.314,2.686-6,6-6v36c-3.314,0-6-2.686-6-6V246z"/>
<path opacity="0.12" fill="#F25A29" enable-background="new    " d="M335,240h38c3.313,0,6,2.687,6,6v24c0,3.313-2.687,6-6,6h-38
	c-3.313,0-6-2.687-6-6v-24C329,242.687,331.687,240,335,240z"/>
<path fill="#000014" d="M354.484,262h-6.762v-1.288c1.951-1.476,3.276-2.567,3.977-3.276c0.71-0.719,1.063-1.395,1.063-2.029
	c0-0.457-0.168-0.807-0.504-1.051c-0.325-0.252-0.723-0.377-1.19-0.377c-1.025,0-1.865,0.373-2.52,1.119l-0.952-1.078
	c0.402-0.484,0.906-0.854,1.513-1.105c0.615-0.262,1.26-0.393,1.932-0.393c0.952,0,1.755,0.258,2.408,0.771
	c0.654,0.513,0.979,1.218,0.979,2.114c0,0.803-0.336,1.601-1.008,2.394s-1.698,1.714-3.08,2.759h4.144V262z M361.342,261.748
	c-0.495,0.279-1.055,0.42-1.68,0.42c-0.626,0-1.186-0.141-1.68-0.42c-0.495-0.28-0.888-0.653-1.176-1.12
	c-0.291-0.467-0.51-0.979-0.658-1.54c-0.15-0.561-0.225-1.143-0.225-1.75s0.074-1.189,0.225-1.75
	c0.148-0.561,0.367-1.068,0.658-1.525c0.288-0.468,0.681-0.84,1.176-1.121c0.494-0.279,1.054-0.42,1.68-0.42
	c0.625,0,1.185,0.141,1.68,0.42c0.494,0.281,0.887,0.653,1.176,1.121c0.289,0.457,0.508,0.965,0.658,1.525
	c0.149,0.561,0.225,1.143,0.225,1.75s-0.075,1.189-0.225,1.75c-0.15,0.561-0.369,1.073-0.658,1.54S361.836,261.468,361.342,261.748z
	 M358.094,259.76c0.336,0.635,0.858,0.952,1.568,0.952c0.709,0,1.232-0.317,1.568-0.952s0.504-1.441,0.504-2.422
	c0-0.625-0.066-1.181-0.196-1.666c-0.122-0.484-0.347-0.887-0.672-1.204c-0.318-0.327-0.72-0.489-1.204-0.489
	c-0.486,0-0.893,0.162-1.219,0.489c-0.317,0.317-0.541,0.72-0.672,1.204c-0.121,0.485-0.182,1.041-0.182,1.666
	C357.59,258.318,357.758,259.125,358.094,259.76z"/>
<path fill="#F25A29" d="M329,246c0-3.314,2.686-6,6-6v36c-3.314,0-6-2.686-6-6V246z"/>
<path opacity="0.12" fill="#F25A29" enable-background="new    " d="M509,240h38c3.313,0,6,2.687,6,6v24c0,3.313-2.687,6-6,6h-38
	c-3.313,0-6-2.687-6-6v-24C503,242.687,505.687,240,509,240z"/>
<path fill="#000014" d="M527.607,262h-1.638v-2.114h-4.452v-1.315l3.836-5.908h2.254v5.781h1.246v1.442h-1.246V262z M525.97,258.443
	v-4.312l-2.842,4.312H525.97z M535.239,261.748c-0.495,0.279-1.056,0.42-1.681,0.42s-1.185-0.141-1.68-0.42
	c-0.495-0.28-0.887-0.653-1.176-1.12s-0.509-0.979-0.658-1.54c-0.148-0.561-0.224-1.143-0.224-1.75s0.075-1.189,0.224-1.75
	c0.149-0.561,0.369-1.068,0.658-1.525c0.289-0.468,0.681-0.84,1.176-1.121c0.495-0.279,1.055-0.42,1.68-0.42s1.186,0.141,1.681,0.42
	c0.495,0.281,0.887,0.653,1.176,1.121c0.289,0.457,0.509,0.965,0.658,1.525c0.148,0.561,0.224,1.143,0.224,1.75
	s-0.075,1.189-0.224,1.75c-0.149,0.561-0.369,1.073-0.658,1.54S535.734,261.468,535.239,261.748z M531.991,259.76
	c0.336,0.635,0.858,0.952,1.567,0.952s1.232-0.317,1.568-0.952s0.504-1.441,0.504-2.422c0-0.625-0.064-1.181-0.195-1.666
	c-0.121-0.484-0.346-0.887-0.673-1.204c-0.316-0.327-0.719-0.489-1.204-0.489c-0.484,0-0.891,0.162-1.218,0.489
	c-0.317,0.317-0.541,0.72-0.672,1.204c-0.121,0.485-0.182,1.041-0.182,1.666C531.487,258.318,531.655,259.125,531.991,259.76z"/>
<path fill="#F25A29" d="M503,246c0-3.314,2.686-6,6-6v36c-3.314,0-6-2.686-6-6V246z"/>
<path d="M141.474,319.21c-0.728,0-1.381-0.112-1.96-0.336c-0.579-0.224-1.069-0.551-1.47-0.979
	c-0.401-0.439-0.709-0.972-0.924-1.597s-0.322-1.344-0.322-2.156c0-0.812,0.121-1.53,0.364-2.155
	c0.252-0.625,0.593-1.153,1.022-1.582c0.429-0.439,0.933-0.771,1.512-0.994c0.579-0.225,1.199-0.336,1.862-0.336
	c0.401,0,0.765,0.033,1.092,0.098c0.327,0.057,0.611,0.121,0.854,0.196s0.443,0.153,0.602,0.237
	c0.159,0.085,0.271,0.146,0.336,0.183l-0.518,1.442c-0.224-0.141-0.546-0.271-0.966-0.393c-0.411-0.131-0.859-0.196-1.344-0.196
	c-0.42,0-0.813,0.075-1.176,0.225c-0.364,0.14-0.681,0.354-0.952,0.644c-0.261,0.289-0.467,0.653-0.616,1.092
	c-0.149,0.439-0.224,0.947-0.224,1.526c0,0.513,0.056,0.985,0.168,1.414c0.121,0.429,0.303,0.803,0.546,1.12
	c0.243,0.308,0.551,0.551,0.924,0.728c0.373,0.168,0.821,0.252,1.344,0.252c0.625,0,1.134-0.061,1.526-0.182
	c0.392-0.131,0.695-0.252,0.91-0.364l0.476,1.442c-0.112,0.075-0.266,0.149-0.462,0.224c-0.187,0.075-0.411,0.149-0.672,0.225
	c-0.261,0.064-0.555,0.117-0.882,0.153C142.197,319.188,141.847,319.21,141.474,319.21z M146.006,319v-10.584l1.694-0.28v3.626
	c0.186-0.064,0.401-0.121,0.644-0.168c0.252-0.047,0.499-0.069,0.742-0.069c0.588,0,1.073,0.084,1.456,0.252
	c0.392,0.158,0.704,0.387,0.938,0.686c0.233,0.289,0.396,0.639,0.49,1.05c0.103,0.411,0.154,0.868,0.154,1.372V319h-1.694v-3.85
	c0-0.393-0.028-0.724-0.084-0.994c-0.047-0.28-0.131-0.504-0.252-0.672c-0.112-0.178-0.266-0.304-0.462-0.379
	c-0.196-0.084-0.439-0.125-0.728-0.125c-0.224,0-0.453,0.022-0.686,0.069c-0.234,0.047-0.406,0.089-0.518,0.126V319H146.006z
	 M153.748,315.374c0-0.644,0.094-1.209,0.28-1.694c0.196-0.484,0.453-0.887,0.77-1.204c0.318-0.326,0.682-0.568,1.092-0.728
	c0.411-0.168,0.831-0.252,1.26-0.252c1.008,0,1.792,0.313,2.352,0.938c0.57,0.625,0.854,1.56,0.854,2.801
	c0,0.093-0.004,0.2-0.014,0.321c0,0.112-0.004,0.216-0.014,0.309h-4.83c0.047,0.588,0.252,1.045,0.616,1.372
	c0.374,0.316,0.91,0.476,1.61,0.476c0.411,0,0.784-0.037,1.12-0.112c0.346-0.074,0.616-0.153,0.813-0.237l0.224,1.386
	c-0.093,0.047-0.224,0.098-0.392,0.154c-0.158,0.047-0.345,0.089-0.561,0.126c-0.205,0.047-0.429,0.084-0.672,0.111
	c-0.242,0.028-0.49,0.042-0.742,0.042c-0.644,0-1.204-0.093-1.68-0.279c-0.476-0.196-0.868-0.462-1.176-0.799
	c-0.308-0.345-0.536-0.746-0.686-1.203C153.823,316.433,153.748,315.925,153.748,315.374z M158.662,314.618
	c0-0.233-0.032-0.453-0.098-0.658c-0.065-0.215-0.163-0.397-0.294-0.546c-0.121-0.159-0.275-0.28-0.462-0.364
	c-0.177-0.093-0.392-0.14-0.644-0.14c-0.261,0-0.49,0.051-0.686,0.154c-0.196,0.093-0.364,0.219-0.504,0.378
	c-0.13,0.158-0.233,0.341-0.308,0.546c-0.074,0.205-0.126,0.415-0.154,0.63H158.662z M166.324,315.15
	c0-0.766-0.098-1.316-0.294-1.652c-0.187-0.345-0.541-0.518-1.064-0.518c-0.186,0-0.392,0.014-0.616,0.041
	c-0.224,0.028-0.392,0.052-0.504,0.07V319h-1.694v-7.084c0.327-0.093,0.752-0.182,1.274-0.266c0.532-0.084,1.092-0.126,1.68-0.126
	c0.504,0,0.915,0.064,1.232,0.195c0.327,0.131,0.598,0.304,0.812,0.519c0.103-0.075,0.234-0.154,0.392-0.238
	c0.159-0.084,0.336-0.159,0.532-0.224c0.196-0.075,0.402-0.136,0.616-0.183c0.224-0.047,0.448-0.069,0.672-0.069
	c0.57,0,1.036,0.084,1.4,0.252c0.374,0.158,0.663,0.387,0.868,0.686c0.215,0.289,0.36,0.644,0.434,1.064
	c0.084,0.411,0.126,0.862,0.126,1.357V319h-1.694v-3.85c0-0.766-0.093-1.316-0.28-1.652c-0.186-0.345-0.546-0.518-1.078-0.518
	c-0.27,0-0.527,0.047-0.77,0.14c-0.242,0.084-0.424,0.168-0.546,0.252c0.075,0.233,0.126,0.481,0.154,0.742s0.042,0.541,0.042,0.84
	V319h-1.694V315.15z M175.974,319h-1.694v-7.322h1.694V319z M176.156,309.536c0,0.317-0.104,0.569-0.308,0.756
	c-0.206,0.187-0.448,0.28-0.728,0.28c-0.29,0-0.537-0.094-0.742-0.28c-0.206-0.187-0.308-0.438-0.308-0.756
	c0-0.327,0.102-0.583,0.308-0.771c0.205-0.187,0.452-0.279,0.742-0.279c0.28,0,0.522,0.093,0.728,0.279
	C176.053,308.953,176.156,309.209,176.156,309.536z M179.969,317.782c0.448,0,0.774-0.052,0.98-0.154
	c0.205-0.112,0.308-0.299,0.308-0.56c0-0.243-0.112-0.443-0.336-0.603c-0.215-0.159-0.574-0.331-1.078-0.518
	c-0.308-0.112-0.593-0.229-0.854-0.351c-0.252-0.131-0.472-0.279-0.658-0.447c-0.187-0.168-0.336-0.369-0.448-0.603
	c-0.103-0.243-0.154-0.537-0.154-0.882c0-0.672,0.247-1.199,0.742-1.582c0.494-0.392,1.166-0.588,2.016-0.588
	c0.429,0,0.84,0.042,1.232,0.126c0.392,0.075,0.687,0.149,0.882,0.224l-0.308,1.372c-0.187-0.084-0.425-0.159-0.714-0.224
	c-0.29-0.075-0.626-0.112-1.008-0.112c-0.346,0-0.626,0.062-0.84,0.183c-0.215,0.111-0.322,0.289-0.322,0.531
	c0,0.121,0.018,0.229,0.056,0.322c0.046,0.093,0.121,0.182,0.224,0.266c0.102,0.075,0.238,0.154,0.406,0.238
	c0.168,0.075,0.373,0.154,0.616,0.238c0.401,0.148,0.742,0.299,1.022,0.448c0.28,0.14,0.508,0.303,0.686,0.489
	c0.186,0.178,0.322,0.383,0.406,0.616s0.126,0.513,0.126,0.84c0,0.7-0.262,1.232-0.784,1.597c-0.514,0.354-1.251,0.531-2.212,0.531
	c-0.644,0-1.162-0.056-1.554-0.168c-0.392-0.103-0.668-0.187-0.826-0.252l0.294-1.414c0.252,0.104,0.55,0.201,0.896,0.294
	C179.119,317.735,179.521,317.782,179.969,317.782z M184.449,309.746l1.694-0.28v2.212h2.604v1.414h-2.604v2.982
	c0,0.588,0.093,1.008,0.28,1.26s0.504,0.378,0.952,0.378c0.308,0,0.579-0.033,0.812-0.098c0.243-0.065,0.434-0.126,0.574-0.183
	l0.28,1.345c-0.196,0.084-0.453,0.168-0.77,0.252c-0.317,0.093-0.691,0.14-1.12,0.14c-0.523,0-0.961-0.07-1.316-0.21
	c-0.345-0.14-0.621-0.341-0.826-0.603c-0.205-0.271-0.35-0.593-0.434-0.966c-0.084-0.383-0.126-0.816-0.126-1.302V309.746z
	 M194.557,313.204c-0.14-0.047-0.336-0.093-0.588-0.14c-0.243-0.057-0.528-0.084-0.854-0.084c-0.188,0-0.388,0.019-0.602,0.056
	c-0.206,0.037-0.35,0.069-0.434,0.098V319h-1.694v-6.972c0.326-0.121,0.732-0.233,1.218-0.336c0.494-0.112,1.04-0.168,1.638-0.168
	c0.112,0,0.242,0.009,0.392,0.027c0.149,0.009,0.298,0.028,0.448,0.057c0.149,0.019,0.294,0.047,0.434,0.084
	c0.14,0.027,0.252,0.056,0.336,0.084L194.557,313.204z M202.255,311.678c-0.756,2.781-1.633,5.301-2.632,7.561
	c-0.186,0.42-0.378,0.778-0.574,1.078c-0.196,0.299-0.415,0.546-0.658,0.741c-0.242,0.196-0.513,0.337-0.812,0.421
	c-0.298,0.093-0.644,0.14-1.036,0.14c-0.261,0-0.522-0.028-0.784-0.084c-0.252-0.056-0.443-0.117-0.574-0.183l0.308-1.357
	c0.336,0.131,0.668,0.196,0.994,0.196c0.439,0,0.78-0.107,1.022-0.322c0.252-0.205,0.472-0.527,0.658-0.966
	c-0.532-1.027-1.045-2.147-1.54-3.36c-0.485-1.213-0.919-2.501-1.302-3.864h1.806c0.094,0.393,0.206,0.817,0.336,1.274
	c0.14,0.457,0.29,0.924,0.448,1.399c0.159,0.468,0.327,0.934,0.504,1.4c0.178,0.467,0.355,0.901,0.532,1.302
	c0.299-0.831,0.579-1.713,0.84-2.646c0.262-0.943,0.5-1.854,0.714-2.73H202.255z"/>
<path opacity="0.12" fill="#F25A29" enable-background="new    " d="M247,296h38c3.313,0,6,2.687,6,6v24c0,3.313-2.687,6-6,6h-38
	c-3.313,0-6-2.687-6-6v-24C241,298.687,243.687,296,247,296z"/>
<path fill="#000014" d="M264.47,318h-1.638v-7.21l-1.526,1.582l-0.952-0.994l2.688-2.716h1.428V318z M269.718,318.168
	c-1.503,0-2.66-0.48-3.472-1.442l0.938-1.12c0.653,0.737,1.493,1.106,2.52,1.106c0.579,0,1.041-0.154,1.386-0.462
	c0.355-0.317,0.532-0.709,0.532-1.176c0-0.504-0.173-0.905-0.518-1.204c-0.336-0.308-0.789-0.462-1.358-0.462
	c-0.793,0-1.475,0.271-2.044,0.812l-1.162-0.336v-5.222h6.118v1.441h-4.48v2.702c0.541-0.541,1.246-0.812,2.114-0.812
	c0.821,0,1.521,0.275,2.1,0.826c0.588,0.541,0.882,1.269,0.882,2.184c0,0.961-0.331,1.731-0.994,2.311
	C271.627,317.883,270.773,318.168,269.718,318.168z"/>
<path fill="#F25A29" d="M241,302c0-3.314,2.686-6,6-6v36c-3.314,0-6-2.686-6-6V302z"/>
<path opacity="0.12" fill="#FFC107" enable-background="new    " d="M422,296h38c3.313,0,6,2.687,6,6v24c0,3.313-2.687,6-6,6h-38
	c-3.313,0-6-2.687-6-6v-24C416,298.687,418.687,296,422,296z"/>
<path fill="#000014" d="M439.48,317.748c-0.493,0.28-1.054,0.42-1.68,0.42c-0.625,0-1.185-0.14-1.68-0.42
	c-0.494-0.28-0.886-0.653-1.176-1.12c-0.289-0.467-0.508-0.979-0.658-1.54c-0.149-0.56-0.225-1.143-0.225-1.75
	s0.075-1.189,0.225-1.75c0.15-0.56,0.369-1.068,0.658-1.525c0.29-0.468,0.682-0.841,1.176-1.12c0.495-0.28,1.055-0.421,1.68-0.421
	c0.626,0,1.187,0.141,1.68,0.421c0.496,0.279,0.888,0.652,1.177,1.12c0.29,0.457,0.509,0.966,0.657,1.525
	c0.15,0.561,0.225,1.143,0.225,1.75s-0.074,1.19-0.225,1.75c-0.148,0.561-0.367,1.073-0.657,1.54
	C440.368,317.095,439.977,317.468,439.48,317.748z M436.233,315.76c0.336,0.635,0.858,0.952,1.567,0.952
	c0.71,0,1.232-0.317,1.568-0.952s0.504-1.441,0.504-2.422c0-0.625-0.065-1.181-0.196-1.666c-0.121-0.484-0.345-0.887-0.672-1.204
	c-0.317-0.327-0.718-0.489-1.204-0.489c-0.484,0-0.891,0.162-1.218,0.489c-0.317,0.317-0.541,0.72-0.672,1.204
	c-0.121,0.485-0.183,1.041-0.183,1.666C435.729,314.318,435.896,315.125,436.233,315.76z M446.372,318.168
	c-1.502,0-2.66-0.48-3.472-1.442l0.938-1.12c0.654,0.737,1.494,1.106,2.521,1.106c0.579,0,1.04-0.154,1.386-0.462
	c0.354-0.317,0.532-0.709,0.532-1.176c0-0.504-0.173-0.905-0.519-1.204c-0.336-0.308-0.788-0.462-1.357-0.462
	c-0.793,0-1.475,0.271-2.045,0.812l-1.161-0.336v-5.222h6.118v1.441h-4.48v2.702c0.542-0.541,1.246-0.812,2.114-0.812
	c0.821,0,1.521,0.275,2.1,0.826c0.588,0.541,0.882,1.269,0.882,2.184c0,0.961-0.331,1.731-0.994,2.311
	C448.281,317.883,447.427,318.168,446.372,318.168z"/>
<path fill="#FFC107" d="M416,302c0-3.314,2.686-6,6-6v36c-3.314,0-6-2.686-6-6V302z"/>
<path opacity="0.12" fill="#F25A29" enable-background="new    " d="M335,296h38c3.313,0,6,2.687,6,6v24c0,3.313-2.687,6-6,6h-38
	c-3.313,0-6-2.687-6-6v-24C329,298.687,331.687,296,335,296z"/>
<path fill="#000014" d="M352.47,318h-1.638v-7.21l-1.525,1.582l-0.953-0.994l2.688-2.716h1.428V318z M357.718,318.168
	c-1.503,0-2.659-0.48-3.472-1.442l0.938-1.12c0.653,0.737,1.493,1.106,2.521,1.106c0.579,0,1.041-0.154,1.386-0.462
	c0.355-0.317,0.532-0.709,0.532-1.176c0-0.504-0.173-0.905-0.519-1.204c-0.336-0.308-0.789-0.462-1.357-0.462
	c-0.793,0-1.475,0.271-2.044,0.812l-1.162-0.336v-5.222h6.118v1.441h-4.48v2.702c0.541-0.541,1.246-0.812,2.114-0.812
	c0.821,0,1.521,0.275,2.101,0.826c0.588,0.541,0.881,1.269,0.881,2.184c0,0.961-0.33,1.731-0.993,2.311
	C359.627,317.883,358.773,318.168,357.718,318.168z"/>
<path fill="#F25A29" d="M329,302c0-3.314,2.686-6,6-6v36c-3.314,0-6-2.686-6-6V302z"/>
<path opacity="0.12" fill="#F25A29" enable-background="new    " d="M509,296h38c3.313,0,6,2.687,6,6v24c0,3.313-2.687,6-6,6h-38
	c-3.313,0-6-2.687-6-6v-24C503,298.687,505.687,296,509,296z"/>
<path fill="#000014" d="M525.146,318.168c-0.793,0-1.498-0.14-2.113-0.42c-0.606-0.28-1.078-0.645-1.414-1.092l0.882-1.078
	c0.299,0.345,0.682,0.621,1.147,0.826c0.468,0.205,0.948,0.308,1.442,0.308c0.607,0,1.083-0.126,1.429-0.378
	c0.346-0.261,0.518-0.611,0.518-1.05c0-0.877-0.69-1.316-2.072-1.316c-0.625,0-0.984,0.005-1.078,0.015v-1.471
	c0.112,0.01,0.473,0.015,1.078,0.015c0.579,0,1.041-0.104,1.387-0.309c0.354-0.205,0.531-0.513,0.531-0.924
	c0-0.42-0.177-0.742-0.531-0.966c-0.354-0.233-0.808-0.35-1.358-0.35c-0.914,0-1.717,0.345-2.408,1.035l-0.84-1.021
	c0.831-0.98,1.965-1.471,3.401-1.471c1.019,0,1.834,0.229,2.45,0.687c0.616,0.448,0.925,1.059,0.925,1.834
	c0,0.579-0.205,1.059-0.616,1.442c-0.401,0.373-0.872,0.606-1.414,0.699c0.532,0.047,1.026,0.271,1.483,0.672
	c0.458,0.401,0.687,0.934,0.687,1.597c0,0.803-0.322,1.456-0.966,1.96C527.061,317.916,526.211,318.168,525.146,318.168z
	 M533.578,318.168c-1.502,0-2.66-0.48-3.473-1.442l0.938-1.12c0.654,0.737,1.494,1.106,2.521,1.106c0.578,0,1.041-0.154,1.386-0.462
	c0.354-0.317,0.532-0.709,0.532-1.176c0-0.504-0.172-0.905-0.519-1.204c-0.336-0.308-0.788-0.462-1.358-0.462
	c-0.793,0-1.474,0.271-2.043,0.812l-1.162-0.336v-5.222h6.117v1.441h-4.479v2.702c0.542-0.541,1.246-0.812,2.114-0.812
	c0.821,0,1.521,0.275,2.1,0.826c0.588,0.541,0.882,1.269,0.882,2.184c0,0.961-0.331,1.731-0.994,2.311
	C535.487,317.883,534.633,318.168,533.578,318.168z"/>
<path fill="#F25A29" d="M503,302c0-3.314,2.686-6,6-6v36c-3.314,0-6-2.686-6-6V302z"/>
</svg>
