<?xml version="1.0" encoding="utf-8"?>
<!-- Generator: Adobe Illustrator 16.0.0, SVG Export Plug-In . SVG Version: 6.00 Build 0)  -->
<!DOCTYPE svg PUBLIC "-//W3C//DTD SVG 1.1//EN" "http://www.w3.org/Graphics/SVG/1.1/DTD/svg11.dtd">
<svg version="1.1" id="Layer_1" xmlns="http://www.w3.org/2000/svg" xmlns:xlink="http://www.w3.org/1999/xlink" x="0px" y="0px"
	 width="431px" height="260px" viewBox="128.5 80 431 260" enable-background="new 128.5 80 431 260" xml:space="preserve">
<path opacity="0.4" fill="#000014" enable-background="new    " d="M285.62,205h-1.66v-10.98L279.42,205h-0.68l-4.521-10.98V205
	h-1.66v-13.34h2.38l4.14,10.04l4.16-10.04h2.38V205z M296.352,203.78c-0.867,0.973-2.02,1.46-3.46,1.46s-2.6-0.487-3.48-1.46
	c-0.867-0.973-1.3-2.18-1.3-3.62c0-1.44,0.433-2.64,1.3-3.6c0.88-0.973,2.04-1.46,3.48-1.46s2.593,0.487,3.46,1.46
	c0.88,0.96,1.32,2.16,1.32,3.6C297.672,201.6,297.232,202.807,296.352,203.78z M290.532,202.82c0.587,0.72,1.373,1.08,2.36,1.08
	s1.767-0.36,2.34-1.08c0.573-0.733,0.86-1.62,0.86-2.66s-0.287-1.92-0.86-2.64s-1.353-1.08-2.34-1.08s-1.773,0.367-2.36,1.1
	c-0.573,0.72-0.86,1.593-0.86,2.62C289.672,201.2,289.959,202.087,290.532,202.82z M308.137,205h-1.5v-6.32
	c0-0.813-0.186-1.387-0.56-1.72c-0.373-0.347-0.906-0.52-1.6-0.52c-0.56,0-1.106,0.147-1.64,0.44c-0.52,0.293-0.926,0.647-1.22,1.06
	V205h-1.5v-9.66h1.5v1.4c0.374-0.44,0.874-0.82,1.5-1.14c0.627-0.333,1.274-0.5,1.94-0.5c2.054,0,3.08,1.04,3.08,3.12V205z
	 M315.493,205.24c-1.44,0-2.62-0.467-3.54-1.4c-0.92-0.947-1.38-2.173-1.38-3.68c0-1.413,0.453-2.607,1.36-3.58
	c0.906-0.987,2.04-1.48,3.4-1.48c1.426,0,2.553,0.493,3.38,1.48c0.84,0.973,1.26,2.207,1.26,3.7v0.38h-7.82
	c0.065,0.947,0.413,1.74,1.04,2.38c0.626,0.64,1.44,0.96,2.44,0.96c1.2,0,2.193-0.407,2.98-1.22l0.72,0.979
	C318.346,204.747,317.066,205.24,315.493,205.24z M318.493,199.56c-0.014-0.827-0.294-1.567-0.84-2.22c-0.547-0.667-1.327-1-2.34-1
	c-0.96,0-1.72,0.327-2.28,0.98c-0.547,0.653-0.84,1.4-0.88,2.24H318.493z M321.862,208.78l0.239-1.36
	c0.24,0.107,0.515,0.16,0.82,0.16c0.348,0,0.635-0.073,0.86-0.22c0.227-0.147,0.42-0.413,0.58-0.8l0.64-1.46l-4.04-9.76h1.62
	l3.22,7.92l3.2-7.92h1.641l-4.841,11.62c-0.532,1.28-1.479,1.933-2.84,1.96C322.563,208.92,322.196,208.873,321.862,208.78z
	 M338.104,193.96c-0.267,0-0.5-0.093-0.7-0.28c-0.2-0.2-0.3-0.44-0.3-0.72c0-0.28,0.1-0.52,0.3-0.72c0.2-0.2,0.434-0.3,0.7-0.3
	c0.279,0,0.52,0.1,0.72,0.3c0.2,0.2,0.3,0.44,0.3,0.72c0,0.28-0.1,0.52-0.3,0.72C338.623,193.867,338.383,193.96,338.104,193.96z
	 M338.863,205h-1.5v-9.66h1.5V205z M349.875,205h-1.5v-6.32c0-0.813-0.186-1.387-0.561-1.72c-0.373-0.347-0.905-0.52-1.6-0.52
	c-0.56,0-1.105,0.147-1.64,0.44c-0.521,0.293-0.927,0.647-1.22,1.06V205h-1.5v-9.66h1.5v1.4c0.373-0.44,0.873-0.82,1.5-1.14
	c0.627-0.333,1.273-0.5,1.939-0.5c2.055,0,3.08,1.04,3.08,3.12V205z M367.887,205h-1.5l-2.52-7.76l-2.521,7.76h-1.5l-3.079-9.66
	h1.56l2.36,7.7l2.539-7.7h1.28l2.54,7.7l2.36-7.7h1.56L367.887,205z M380.255,205h-1.5v-1.1c-0.813,0.893-1.88,1.34-3.2,1.34
	c-0.893,0-1.68-0.287-2.359-0.86c-0.68-0.573-1.021-1.353-1.021-2.34c0-1.013,0.333-1.793,1-2.34c0.681-0.56,1.474-0.84,2.38-0.84
	c1.373,0,2.44,0.44,3.2,1.32v-1.74c0-0.64-0.227-1.14-0.68-1.5s-1.04-0.54-1.761-0.54c-1.133,0-2.119,0.447-2.959,1.34l-0.7-1.04
	c1.026-1.067,2.313-1.6,3.86-1.6c1.106,0,2.006,0.267,2.699,0.8c0.693,0.533,1.04,1.353,1.04,2.46V205z M376.095,204.16
	c1.2,0,2.087-0.4,2.66-1.2v-1.82c-0.573-0.8-1.46-1.2-2.66-1.2c-0.692,0-1.267,0.2-1.72,0.6c-0.439,0.387-0.66,0.893-0.66,1.52
	c0,0.613,0.221,1.12,0.66,1.52C374.828,203.967,375.402,204.16,376.095,204.16z M384.762,205h-1.5v-13.34h1.5V205z M389.254,205
	h-1.5v-13.34h1.5V205z M396.605,205.24c-1.439,0-2.619-0.467-3.539-1.4c-0.92-0.947-1.381-2.173-1.381-3.68
	c0-1.413,0.453-2.607,1.36-3.58c0.907-0.987,2.04-1.48,3.4-1.48c1.427,0,2.553,0.493,3.38,1.48c0.84,0.973,1.26,2.207,1.26,3.7v0.38
	h-7.82c0.067,0.947,0.413,1.74,1.041,2.38c0.627,0.64,1.439,0.96,2.439,0.96c1.2,0,2.193-0.407,2.98-1.22l0.72,0.979
	C399.459,204.747,398.179,205.24,396.605,205.24z M399.605,199.56c-0.013-0.827-0.293-1.567-0.84-2.22c-0.547-0.667-1.326-1-2.34-1
	c-0.96,0-1.72,0.327-2.279,0.98c-0.547,0.653-0.84,1.4-0.881,2.24H399.605z M405.956,205.24c-0.707,0-1.24-0.193-1.601-0.58
	c-0.359-0.387-0.539-0.947-0.539-1.68v-6.32h-1.601v-1.32h1.601v-2.64h1.5v2.64h1.96v1.32h-1.96v6c0,0.373,0.08,0.673,0.239,0.9
	c0.173,0.227,0.421,0.34,0.74,0.34c0.44,0,0.78-0.133,1.021-0.4l0.439,1.12C407.316,205.033,406.716,205.24,405.956,205.24z"/>
<path fill="#000014" d="M254.76,159l-8.64-15.072v-3.552H249c1.696,0,3.12-0.368,4.272-1.104c1.152-0.768,1.888-1.824,2.208-3.168
	h-9.36v-3.552h9.312c-0.288-1.216-0.88-2.224-1.776-3.024c-0.896-0.832-2.145-1.248-3.744-1.248h-3.792v-3.552h21.648v3.552h-7.536
	c1.12,1.216,1.824,2.64,2.112,4.271h5.424v3.552h-5.328c-0.32,2.368-1.232,4.224-2.736,5.568c-1.504,1.312-3.44,2.208-5.808,2.688
	l9.408,14.64H254.76z M296.053,159h-23.184v-4.416c6.688-5.056,11.232-8.8,13.632-11.232c2.432-2.464,3.648-4.784,3.648-6.96
	c0-1.568-0.576-2.768-1.728-3.6c-1.12-0.864-2.48-1.296-4.08-1.296c-3.52,0-6.4,1.28-8.64,3.84l-3.264-3.696
	c1.376-1.664,3.104-2.928,5.184-3.792c2.112-0.896,4.32-1.344,6.624-1.344c3.264,0,6.016,0.88,8.256,2.64
	c2.24,1.76,3.36,4.176,3.36,7.248c0,2.752-1.152,5.488-3.456,8.208c-2.304,2.72-5.824,5.872-10.561,9.456h14.208V159z
	 M319.56,158.136c-1.696,0.96-3.616,1.44-5.76,1.44c-2.144,0-4.064-0.48-5.76-1.44c-1.696-0.96-3.04-2.24-4.032-3.84
	c-0.992-1.6-1.744-3.36-2.256-5.28c-0.512-1.92-0.768-3.92-0.768-6s0.256-4.08,0.768-6c0.512-1.92,1.264-3.664,2.256-5.232
	c0.992-1.6,2.336-2.88,4.032-3.84c1.696-0.96,3.616-1.44,5.76-1.44c2.144,0,4.064,0.48,5.76,1.44s3.04,2.24,4.032,3.84
	c0.992,1.568,1.744,3.312,2.256,5.232s0.769,3.92,0.769,6s-0.257,4.08-0.769,6s-1.264,3.68-2.256,5.28
	S321.256,157.176,319.56,158.136z M308.424,151.32c1.152,2.176,2.944,3.264,5.376,3.264c2.432,0,4.224-1.088,5.376-3.264
	c1.152-2.176,1.729-4.944,1.729-8.304c0-2.144-0.225-4.048-0.672-5.712c-0.416-1.664-1.184-3.04-2.304-4.128
	c-1.088-1.12-2.464-1.68-4.128-1.68s-3.056,0.56-4.176,1.68c-1.088,1.088-1.856,2.464-2.304,4.128
	c-0.416,1.664-0.624,3.568-0.624,5.712C306.696,146.376,307.272,149.144,308.424,151.32z M349.138,158.136
	c-1.696,0.96-3.616,1.44-5.76,1.44s-4.063-0.48-5.76-1.44c-1.696-0.96-3.04-2.24-4.032-3.84s-1.744-3.36-2.256-5.28
	s-0.768-3.92-0.768-6s0.256-4.08,0.768-6s1.264-3.664,2.256-5.232c0.992-1.6,2.336-2.88,4.032-3.84s3.616-1.44,5.76-1.44
	s4.063,0.48,5.76,1.44s3.04,2.24,4.032,3.84c0.992,1.568,1.744,3.312,2.256,5.232s0.768,3.92,0.768,6s-0.256,4.08-0.768,6
	s-1.264,3.68-2.256,5.28S350.834,157.176,349.138,158.136z M338.002,151.32c1.152,2.176,2.944,3.264,5.376,3.264
	c2.433,0,4.224-1.088,5.376-3.264c1.152-2.176,1.729-4.944,1.729-8.304c0-2.144-0.225-4.048-0.672-5.712
	c-0.416-1.664-1.185-3.04-2.305-4.128c-1.088-1.12-2.464-1.68-4.128-1.68s-3.056,0.56-4.176,1.68
	c-1.088,1.088-1.856,2.464-2.304,4.128c-0.416,1.664-0.625,3.568-0.625,5.712C336.273,146.376,336.85,149.144,338.002,151.32z
	 M378.716,158.136c-1.696,0.96-3.616,1.44-5.76,1.44s-4.063-0.48-5.76-1.44c-1.696-0.96-3.04-2.24-4.032-3.84
	s-1.744-3.36-2.256-5.28s-0.768-3.92-0.768-6s0.256-4.08,0.768-6s1.264-3.664,2.256-5.232c0.992-1.6,2.336-2.88,4.032-3.84
	s3.616-1.44,5.76-1.44s4.063,0.48,5.76,1.44s3.04,2.24,4.032,3.84c0.992,1.568,1.744,3.312,2.256,5.232s0.768,3.92,0.768,6
	s-0.256,4.08-0.768,6s-1.264,3.68-2.256,5.28S380.412,157.176,378.716,158.136z M367.58,151.32c1.152,2.176,2.943,3.264,5.376,3.264
	c2.432,0,4.224-1.088,5.376-3.264c1.152-2.176,1.729-4.944,1.729-8.304c0-2.144-0.225-4.048-0.673-5.712
	c-0.416-1.664-1.184-3.04-2.304-4.128c-1.088-1.12-2.464-1.68-4.128-1.68s-3.056,0.56-4.176,1.68
	c-1.089,1.088-1.856,2.464-2.304,4.128c-0.416,1.664-0.625,3.568-0.625,5.712C365.852,146.376,366.428,149.144,367.58,151.32z
	 M394.739,158.568c-0.673,0.64-1.456,0.96-2.353,0.96c-0.896,0-1.68-0.32-2.352-0.96c-0.672-0.672-1.008-1.472-1.008-2.4
	c0-0.928,0.336-1.712,1.008-2.352c0.672-0.672,1.456-1.008,2.352-1.008c0.896,0,1.68,0.336,2.353,1.008
	c0.672,0.64,1.008,1.424,1.008,2.352C395.747,157.096,395.411,157.896,394.739,158.568z M417.622,158.136
	c-1.696,0.96-3.616,1.44-5.76,1.44c-2.145,0-4.064-0.48-5.761-1.44c-1.695-0.96-3.039-2.24-4.031-3.84s-1.744-3.36-2.256-5.28
	c-0.513-1.92-0.769-3.92-0.769-6s0.256-4.08,0.769-6c0.512-1.92,1.264-3.664,2.256-5.232c0.992-1.6,2.336-2.88,4.031-3.84
	c1.696-0.96,3.616-1.44,5.761-1.44c2.144,0,4.063,0.48,5.76,1.44s3.04,2.24,4.032,3.84c0.992,1.568,1.744,3.312,2.256,5.232
	s0.768,3.92,0.768,6s-0.256,4.08-0.768,6s-1.264,3.68-2.256,5.28S419.318,157.176,417.622,158.136z M406.486,151.32
	c1.151,2.176,2.943,3.264,5.376,3.264c2.432,0,4.224-1.088,5.376-3.264c1.151-2.176,1.728-4.944,1.728-8.304
	c0-2.144-0.224-4.048-0.672-5.712c-0.416-1.664-1.184-3.04-2.304-4.128c-1.088-1.12-2.464-1.68-4.128-1.68s-3.057,0.56-4.177,1.68
	c-1.088,1.088-1.855,2.464-2.304,4.128c-0.416,1.664-0.624,3.568-0.624,5.712C404.758,146.376,405.334,149.144,406.486,151.32z
	 M447.2,158.136c-1.696,0.96-3.616,1.44-5.761,1.44c-2.144,0-4.063-0.48-5.76-1.44c-1.695-0.96-3.04-2.24-4.031-3.84
	c-0.992-1.6-1.744-3.36-2.257-5.28c-0.512-1.92-0.768-3.92-0.768-6s0.256-4.08,0.768-6c0.513-1.92,1.265-3.664,2.257-5.232
	c0.991-1.6,2.336-2.88,4.031-3.84c1.696-0.96,3.616-1.44,5.76-1.44c2.145,0,4.064,0.48,5.761,1.44s3.04,2.24,4.032,3.84
	c0.991,1.568,1.744,3.312,2.256,5.232s0.768,3.92,0.768,6s-0.256,4.08-0.768,6s-1.265,3.68-2.256,5.28
	C450.24,155.896,448.896,157.176,447.2,158.136z M436.064,151.32c1.151,2.176,2.943,3.264,5.375,3.264
	c2.433,0,4.225-1.088,5.377-3.264c1.151-2.176,1.728-4.944,1.728-8.304c0-2.144-0.224-4.048-0.672-5.712
	c-0.416-1.664-1.185-3.04-2.304-4.128c-1.088-1.12-2.465-1.68-4.129-1.68c-1.663,0-3.056,0.56-4.176,1.68
	c-1.088,1.088-1.855,2.464-2.304,4.128c-0.416,1.664-0.624,3.568-0.624,5.712C434.336,146.376,434.912,149.144,436.064,151.32z"/>
<circle opacity="0.16" fill="#8BC34A" enable-background="new    " cx="344" cy="277" r="32"/>
<path fill="#8BC34A" d="M330.666,271.667v5.334h1.333V285h-1.333v4h1.333h4h2.667h4h2.667h4h2.666l4,0.001V289h1.334v-4h-1.334
	v-7.999h1.334v-5.334l-13.334-8L330.666,271.667z M335.999,285v-7.999h2.667V285H335.999z M342.666,285v-7.999h2.667V285H342.666z
	 M351.999,285h-2.666v-7.999h2.666V285z M346.666,271.667c0,1.472-1.195,2.666-2.667,2.666s-2.666-1.194-2.666-2.666
	s1.194-2.667,2.666-2.667S346.666,270.195,346.666,271.667z"/>
<circle opacity="0.16" fill="#8BC34A" enable-background="new    " cx="232" cy="277" r="32"/>
<path fill="#8BC34A" d="M242.666,266.333h-21.333c-1.471,0-2.667,1.196-2.667,2.667v2.667h26.667V269
	C245.333,267.529,244.137,266.333,242.666,266.333z M218.666,285c0,1.471,1.196,2.667,2.667,2.667h21.333
	c1.471,0,2.667-1.196,2.667-2.667v-8h-26.667V285z M222.666,281h8v2.667h-8V281z"/>
<circle opacity="0.16" fill="#8BC34A" enable-background="new    " cx="456" cy="277" r="32"/>
<path fill="#8BC34A" d="M464,290.333c1.471,0,2.667-1.196,2.667-2.666v-21.334c0-1.47-1.196-2.666-2.667-2.666h-13.333
	c-1.471,0-2.667,1.196-2.667,2.666v21.334c0,1.47,1.196,2.666,2.667,2.666H464z M457.333,283.667c0.738,0,1.334,0.597,1.334,1.333
	s-0.596,1.333-1.334,1.333c-0.737,0-1.333-0.597-1.333-1.333S456.596,283.667,457.333,283.667z"/>
</svg>
